<ttFont>
          <CharString index="0">
            rmoveto
            27 hlineto
            25 16 5 14 11 hvcurveto
            30 45 22 -46 rlineto
            -13 5 18 -5 26 hhcurveto
            28 hlineto
            13 7 3 7 1 hvcurveto
            3 -2 7 -4 7 vhcurveto
            -49 100 rlineto
            17 -9 -19 2 -27 hhcurveto
            -2 hlineto
            -26 -20 -2 -17 -13 hvcurveto
            -70 -100 rlineto
            -4 -7 -4 -7 -3 vvcurveto
            -7 -1 7 -3 14 hhcurveto
            return
          </CharString>
          <CharString index="1">
            46 22 11 21 3 hvcurveto
            6 60 rlineto
            21 2 -20 11 -49 hhcurveto
            -46 -25 callsubr
            -6 -60 rlineto
            -21 -3 20 -11 49 hhcurveto
            return
          </CharString>
          <CharString index="2">
            50 13 13 12 9 hvcurveto
            83 107 5 1 -12 callgsubr
            -33 -7 -20 -10 vhcurveto
            -40 -80 -16 1 callgsubr
            return
          </CharString>
          <CharString index="3">
            296 hlineto
            20 11 -71 callgsubr
            -6 15 -20 hhcurveto
            -177 hlineto
            17 162 6 callsubr
            20 12 -71 callgsubr
            -7 15 -20 hhcurveto
            -156 hlineto
            15 145 rlineto
            176 hlineto
            20 12 -71 callgsubr
            -7 15 -20 hhcurveto
            -295 hlineto
            -26 -12 -12 -28 -3 hvcurveto
            -66 -620 rlineto
            -28 -3 10 -12 26 hhcurveto
            return
          </CharString>
          <CharString index="4">
            rmoveto
            6 hlineto
            26 18 2 17 13 hvcurveto
            70 100 rlineto
            5 7 4 7 3 vvcurveto
            7 1 -7 3 -13 hhcurveto
            -28 hlineto
            -26 -19 -5 -13 -8 hvcurveto
            -31 -46 -21 45 rlineto
            14 -8 -15 5 -25 hhcurveto
            -27 hlineto
            -14 -7 -3 -7 -1 hvcurveto
            -3 2 -7 3 -7 vhcurveto
            49 -100 rlineto
            -17 9 17 -2 27 hhcurveto
            return
          </CharString>
          <CharString index="5">
            rmoveto
            39 -18 callsubr
            6 60 -74 callsubr
            -39 -66 callgsubr
            -6 -60 -46 callgsubr
            162 hmoveto
            38 -14 callsubr
            6 60 -12 callsubr
            -39 -66 callgsubr
            -6 -60 -46 callgsubr
            return
          </CharString>
          <CharString index="6">
            rmoveto
            177 96 108 250 26 hvcurveto
            250 26 -93 108 -156 hhcurveto
            -177 -97 -107 -251 -26 hvcurveto
            -251 -26 97 -107 153 hhcurveto
            15 131 rmoveto
            -69 -30 49 178 19 hvcurveto
            178 19 40 48 69 hhcurveto
            68 29 -48 -178 -19 hvcurveto
            -178 -19 -39 -49 -68 hhcurveto
            return
          </CharString>
          <CharString index="7">
            hlineto
            -40 -19 -77 callgsubr
            -48 -455 rlineto
            -53 -5 -38 -39 -52 hhcurveto
            -53 -27 39 53 5 hvcurveto
            48 455 -74 callsubr
            -40 -81 callgsubr
            -49 -465 rlineto
            -135 -14 83 -78 150 hhcurveto
            return
          </CharString>
          <CharString index="8">
            rmoveto
            24 hlineto
            41 19 -29 callgsubr
            37 339 3 23 -2 22 -2 23 rlinecurve
            6 3 6 -21 5 -23 9 -20 rlinecurve
            152 -350 rlineto
            -23 10 17 -5 24 hhcurveto
            19 -6 callsubr
            67 640 -12 callsubr
            -24 -81 callgsubr
            -37 -329 -3 -26 2 -27 1 -26 rlinecurve
            -4 -2 -7 26 -8 26 -11 26 rlinecurve
            -143 336 rlineto
            24 -10 -17 4 -22 hhcurveto
            -26 -19 callsubr
            -640 -46 callgsubr
            return
          </CharString>
          <CharString index="9">
            -100 callgsubr
            endchar
          </CharString>
          <CharString index="10">
            rmoveto
            24 5 4 11 11 -13 25 -42 81 hvcurveto
            20 -11 -33 7 -36 hhcurveto
            -36 -18 -3 -11 -12 5 -2 84 -106 hvcurveto
            -11 8 13 -14 50 hhcurveto
            return
          </CharString>
          <CharString index="11">
            rmoveto
            -29 hlineto
            -28 -22 -5 -16 -5 hvcurveto
            -62 -215 -8 -29 -11 -45 -10 -38 rlinecurve
            -4 hlineto
            -1 38 -1 44 -2 30 -15 213 rcurveline
            20 -1 -22 3 -26 hhcurveto
            -43 hlineto
            -34 -17 -9 -14 -1 hvcurveto
            -1 -5 1 -8 2 -9 69 -406 rcurveline
            -21 4 17 0 19 hhcurveto
            -83 -220 rlineto
            -3 -7 -2 -6 -5 vvcurveto
            -13 -2 18 -8 38 hhcurveto
            20 hlineto
            29 22 5 16 6 hvcurveto
            240 670 36 callsubr
            6 5 vvcurveto
            14 2 -17 8 -41 hhcurveto
            return
          </CharString>
          <CharString index="12">
            -99 callgsubr
            -116 -87 callsubr
            return
          </CharString>
          <CharString index="13">
            -5 callsubr
            29 14 106 23 226 hvcurveto
            -23 callsubr
            -37 -351 -53 callsubr
            vhcurveto
            return
          </CharString>
          <CharString index="14">
            -7 callsubr
            -344 rlineto
            -14 -8 -21 -21 -26 hhcurveto
            -29 -8 18 31 4 hvcurveto
            34 330 rlineto
            -62 callgsubr
            -36 -349 rlineto
            -104 -11 33 -49 83 hhcurveto
            60 1 47 40 27 43 -5 -42 rcurveline
            -82 -9 -45 -46 -67 -65 -39 35 -10 hhcurveto
            -7 -7 -10 -30 -3 hvcurveto
            -1 -12 -1 -16 -19 vvcurveto
            -38 69 -26 89 147 76 101 203 19 vhcurveto
            return
          </CharString>
          <CharString index="15">
            -1 4 4 -1 4 hhcurveto
            10 7 6 11 8 hvcurveto
            15 9 8 14 callsubr
            25 50 -28 30 hhcurveto
            40 30 33 37 13 hvcurveto
            1 4 1 24 callgsubr
            -5 10 -15 -21 callgsubr
            -4 -4 1 -4 31 callgsubr
            -7 hvcurveto
            -15 -11 -7 -1 -5 hhcurveto
            1 -25 -50 28 -31 hhcurveto
            -41 -28 36 callgsubr
            -2 -21 callsubr
            return
          </CharString>
          <CharString index="16">
            rmoveto
            33 hlineto
            29 20 7 14 4 hvcurveto
            80 263 4 16 4 16 5 15 rlinecurve
            4 hlineto
            1 -15 0 -16 2 -16 25 -263 rcurveline
            -14 2 17 -7 31 hhcurveto
            32 hlineto
            26 24 7 14 3 hvcurveto
            143 465 rlineto
            2 6 1 7 4 vvcurveto
            15 -18 9 -41 -44 -22 -7 -14 -3 vhcurveto
            -56 -247 -4 -23 -6 -35 -6 -23 rlinecurve
            -4 84 hlineto
            -22 244 rlineto
            14 -2 -21 7 -27 hhcurveto
            -26 hlineto
            -28 -22 -7 -14 -4 hvcurveto
            -73 -242 -20 -86 rlineto
            -4 hlineto
            1 23 2 35 -1 23 -3 247 rcurveline
            14 -1 -20 7 -49 hhcurveto
            -45 -19 -11 -24 -4 1 -13 1 -8 hvcurveto
            45 -446 rlineto
            -14 2 19 -7 28 hhcurveto
            endchar
          </CharString>
          <CharString index="17">
            -6 -1 -2 -7 hhcurveto
            -9 -4 6 16 return
          </CharString>
          <CharString index="18">
            rmoveto
            -27 callsubr
            hvcurveto
            9 11 12 22 hhcurveto
            16 16 -8 -14 hvcurveto
            -30 -67 -28 -17 vvcurveto
            -8 30 -15 24 vhcurveto
            return
          </CharString>
          <CharString index="19">
            rmoveto
            111 70 72 97 10 hvcurveto
            9 81 -40 36 -38 26 -34 24 -37 13 4 35 rrcurveto
            24 3 17 10 25 32 21 -18 9 hhcurveto
            17 30 57 24 2 hvcurveto
            43 5 -80 15 -49 hhcurveto
            -97 -74 -59 -102 -11 hvcurveto
            -9 -90 48 -34 40 -25 33 -20 28 -15 -4 -35 rrcurveto
            -24 -2 -17 -14 -26 -36 -20 27 -12 hhcurveto
            -20 -40 -55 -28 -2 hvcurveto
            -42 -5 76 -23 63 hhcurveto
            return
          </CharString>
          <CharString index="20">
            -584 -107 callgsubr
            return
          </CharString>
          <CharString index="21">
            rmoveto
            39 hlineto
            41 -18 callsubr
            29 269 191 358 5 11 4 8 1 6 rlinecurve
            12 1 -18 8 -44 hhcurveto
            -42 hlineto
            -28 -23 -3 -16 -6 hvcurveto
            -111 -281 -44 281 rlineto
            15 -2 -24 4 -27 hhcurveto
            -51 hlineto
            -40 -21 -8 -12 -1 hvcurveto
            -1 -6 3 -9 4 -10 117 -355 rcurveline
            -29 -272 -1 callgsubr
            return
          </CharString>
          <CharString index="22">
            rmoveto
            191 hlineto
            21 10 12 28 2 5 callsubr
            28 3 -7 12 -21 hhcurveto
            -191 hlineto
            -20 -10 -12 -28 -3 hvcurveto
            -2 -15 rlineto
            -28 -2 7 -12 20 hhcurveto
            return
          </CharString>
          <CharString index="23">
            4 callsubr
            12 19 callsubr
            12 16 callsubr
            -41 -18 -12 -39 callgsubr
            -12 41 hhcurveto
            return
          </CharString>
          <CharString index="24">
            rmoveto
            76 64 53 109 11 hvcurveto
            57 543 rlineto
            -62 callgsubr
            -57 -545 rlineto
            -30 -3 -7 -13 -18 -11 -13 4 -6 hhcurveto
            -21 -15 -47 -23 -2 hvcurveto
            -39 -4 34 -12 63 hhcurveto
            endchar
          </CharString>
          <CharString index="25">
            rmoveto
            55 98 28 41 4 hvcurveto
            22 2 -16 54 -22 hhcurveto
            -4 -6 -3 -4 -9 hvcurveto
            -7 -16 -25 -14 -32 hhcurveto
            -51 -23 40 113 12 hvcurveto
            112 12 32 40 53 hhcurveto
            29 20 -12 -8 14 hvcurveto
            -5 7 6 -3 5 hhcurveto
            20 31 55 -27 callgsubr
            37 4 -69 32 -73 hhcurveto
            -148 -78 -94 -177 -18 hvcurveto
            -182 -19 64 -86 139 hhcurveto
            endchar
          </CharString>
          <CharString index="26">
            rmoveto
            67 27 -26 13 hhcurveto
            25 44 63 27 3 hvcurveto
            34 4 -84 37 -93 hhcurveto
            -195 -93 2 callgsubr
            82 -113 179 hhcurveto
            79 117 31 49 5 hvcurveto
            31 298 rlineto
            28 3 -11 12 -25 hhcurveto
            -165 2 callsubr
            -3 -32 rlineto
            -35 -4 7 -15 20 hhcurveto
            51 hlineto
            -15 -24 callsubr
            45 70 86 hhcurveto
            return
          </CharString>
          <CharString index="27">
            -581 -105 callgsubr
          </CharString>
          <CharString index="28">
            575 -99 callgsubr
            return
          </CharString>
          <CharString index="29">
            rmoveto
            50 13 13 12 10 hvcurveto
            82 107 5 1 -12 callgsubr
            -34 -6 -21 -10 vhcurveto
            -37 16 callgsubr
            5 -4 24 vhcurveto
            165 hmoveto
            51 12 13 12 9 hvcurveto
            83 107 5 1 -12 callgsubr
            -33 -6 -21 -10 vhcurveto
            -38 -80 -18 1 callgsubr
            return
          </CharString>
          <CharString index="30">
            rmoveto
            29 60 78 67 25 -12 19 -33 hvcurveto
            -20 hlineto
            -41 -17 -17 -27 hvcurveto
            -80 -10 -25 -18 vvcurveto
            -16 26 -6 18 vhcurveto
            return
          </CharString>
          <CharString index="31">
            -17 11 -42 hhcurveto
            -28 hlineto
            -42 -31 callsubr
            return
          </CharString>
          <CharString index="32">
            rmoveto
            72 56 47 78 8 hvcurveto
            5 48 -18 39 -44 18 rrcurveto
            2 vlineto
            35 14 24 31 5 41 rrcurveto
            63 6 -38 40 -68 hhcurveto
            -53 -53 -14 -29 -3 hvcurveto
            -16 -2 15 -29 12 8 13 18 35 hhcurveto
            29 12 -18 -29 -3 hvcurveto
            -30 -3 -23 -19 -36 hhcurveto
            -15 hlineto
            -12 -6 -9 -20 -2 hvcurveto
            -2 -11 rlineto
            -20 -2 5 -9 12 hhcurveto
            21 hlineto
            46 16 -21 -39 -4 hvcurveto
            -36 -4 -24 -21 -32 -39 -20 24 -9 hhcurveto
            -13 -19 -33 -12 -1 hvcurveto
            -36 -4 77 -12 40 hhcurveto
            return
          </CharString>
          <CharString index="33">
            rlineto
            -67 callgsubr
            return
          </CharString>
          <CharString index="34">
            52 hlineto
            25 20 5 16 4 hvcurveto
            40 122 6 callsubr
            return
          </CharString>
          <CharString index="35">
            -102 callgsubr
            36 -62 callsubr
          </CharString>
          <CharString index="36">
            21 2 -76 callsubr
            -2 hvcurveto
            return
          </CharString>
          <CharString index="37">
            190 hlineto
            176 90 118 232 24 hvcurveto
            232 24 -64 118 -176 hhcurveto
            -190 hlineto
            -26 -12 -12 -28 -3 hvcurveto
            -66 -620 rlineto
            -28 -3 10 -12 26 hhcurveto
            135 131 rmoveto
            46 438 rlineto
            64 hlineto
            70 23 -58 -161 -17 hvcurveto
            -161 -17 -35 -58 -70 hhcurveto
            return
          </CharString>
          <CharString index="38">
            -57 8 32 -23 49 hhcurveto
            -85 callgsubr
            hvcurveto
            return
          </CharString>
          <CharString index="39">
            752 -99 callgsubr
            return
          </CharString>
          <CharString index="40">
            268 hlineto
            21 -45 callgsubr
            -21 hhcurveto
            -149 hlineto
            57 539 -74 callsubr
            -40 -19 callsubr
            -630 rlineto
            -28 -3 10 -12 26 hhcurveto
            return
          </CharString>
          <CharString index="41">
            -1 -10 -2 -24 -8 vvcurveto
            -77 38 -31 56 return
          </CharString>
          <CharString index="42">
            rmoveto
            126 63 75 32 callgsubr
            468 rlineto
            21 2 -17 12 16 callsubr
            -40 31 callsubr
            -47 -443 rlineto
            -71 -7 -15 -31 -37 -26 -10 6 -11 hhcurveto
            -23 -1 -25 -57 -4 -35 rrcurveto
            -28 -2 57 -18 55 hhcurveto
            return
          </CharString>
          <CharString index="43">
            -5 callsubr
            20 16 137 12 102 hvcurveto
            91 11 -37 48 -73 hhcurveto
            -57 -45 -32 -36 -30 hvcurveto
            27 259 rlineto
            32 callsubr
            -40 hhcurveto
            -34 17 callsubr
            34 hlineto
            39 20 10 22 3 hvcurveto
            36 8 callgsubr
            9 -18 -33 -4 hvcurveto
            -22 -216 -53 callsubr
            vhcurveto
            return
          </CharString>
          <CharString index="44">
            -46 -25 callsubr
            -6 -60 rlineto
            -21 -3 20 -11 49 hhcurveto
            46 22 11 21 3 hvcurveto
            6 60 rlineto
            21 2 -20 11 -49 hhcurveto
            endchar
          </CharString>
          <CharString index="45">
            -580 -98 callsubr
          </CharString>
          <CharString index="46">
            44 107 123 112 11 hvcurveto
            25 3 -16 19 -42 hhcurveto
            -19 hlineto
            -42 -20 -17 -27 -3 hvcurveto
            -10 -102 -30 -50 -16 -32 -6 -12 -3 -9 -1 -8 rrcurveto
            -16 -2 27 -6 18 hhcurveto
            return
          </CharString>
          <CharString index="47">
            rlineto
            -71 callsubr
            return
          </CharString>
          <CharString index="48">
            rmoveto
            0 callsubr
            57 539 rlineto
            112 hlineto
            21 -45 callgsubr
            -21 hhcurveto
            -380 hlineto
            -20 -11 -15 -35 -3 hvcurveto
            -4 -31 rlineto
            -35 -3 7 -15 20 hhcurveto
            111 hlineto
            -57 -539 -26 callsubr
            return
          </CharString>
          <CharString index="49">
            -16 11 -41 hhcurveto
            return
          </CharString>
          <CharString index="50">
            rmoveto
            33 hlineto
            41 -18 callsubr
            9 92 20 callgsubr
            -41 hhcurveto
            -33 -38 callsubr
            return
          </CharString>
          <CharString index="51">
            208 hlineto
            12 6 9 20 2 hvcurveto
            2 10 rlineto
            21 1 -4 8 -12 hhcurveto
            -117 hlineto
            116 149 23 28 14 29 4 33 rlinecurve
            62 6 -36 44 -79 hhcurveto
            -53 -64 -19 -34 -4 hvcurveto
            -15 -1 12 -26 18 10 27 26 34 hhcurveto
            27 17 -13 -28 -2 hvcurveto
            -2 -18 -9 -17 -18 -24 -147 -185 rcurveline
            -1 -2 -1 -3 -1 -4 rrcurveto
            -17 -1 4 -34 9 hhcurveto
            return
          </CharString>
          <CharString index="52">
            -90 callsubr
            5 return
          </CharString>
          <CharString index="53">
            rmoveto
            64 57 27 32 26 hvcurveto
            -37 33 52 -22 69 hhcurveto
            62 100 25 44 5 hvcurveto
            24 2 -26 53 -19 -13 -38 -29 -49 hhcurveto
            -42 -35 23 75 8 hvcurveto
            189 hlineto
            13 43 42 17 1 hvcurveto
            169 18 -51 96 -127 hhcurveto
            -44 -42 -9 -22 -34 hvcurveto
            19 -27 -47 12 -55 hhcurveto
            -85 -83 -31 -35 -4 hvcurveto
            -21 -2 24 -59 22 16 37 29 50 hhcurveto
            33 25 -11 -25 7 hvcurveto
            -5 -13 -5 -14 -3 -16 -217 1 -29 -111 -8 -76 rrcurveto
            -95 -10 56 -62 88 hhcurveto
            264 314 rmoveto
            88 14 24 20 29 hhcurveto
            31 11 -28 -80 -8 hvcurveto
            -321 -197 rmoveto
            -27 -12 21 30 3 hvcurveto
            46 5 27 32 66 hhcurveto
            -3 -36 0 -32 5 -28 rrcurveto
            -22 -16 -25 -11 -23 hhcurveto
            endchar
          </CharString>
          <CharString index="54">
            rlineto
            -66 callsubr
            return
          </CharString>
          <CharString index="55">
            rmoveto
            17 22 14 8 10 hvcurveto
            20 16 6 15 16 vvcurveto
            40 -35 26 -58 -35 -45 -15 28 callgsubr
            9 11 17 33 hhcurveto
            10 11 -6 -11 -14 -12 -5 -19 -9 hvcurveto
            -10 -5 -9 -7 -4 vvcurveto
            -11 17 -10 27 vhcurveto
            return
          </CharString>
          <CharString index="56">
            179 372 rmoveto
            64 76 29 139 14 hvcurveto
            139 15 -70 29 -64 hhcurveto
            -63 -76 -29 -139 -15 hvcurveto
            -139 -14 70 -29 63 hhcurveto
            -26 -374 rmoveto
            33 hlineto
            20 14 9 19 11 hvcurveto
            346 641 rlineto
            3 6 2 5 4 vvcurveto
            12 1 -9 8 -17 hhcurveto
            -33 hlineto
            -20 -14 -9 -19 -10 hvcurveto
            -346 -641 -4 -6 -1 -5 -1 -4 rlinecurve
            -12 -1 9 -8 17 hhcurveto
            34 456 rmoveto
            -34 callgsubr
            308 -462 rmoveto
            64 76 29 139 14 hvcurveto
            139 15 -70 29 -64 hhcurveto
            -63 -76 -29 -139 -15 hvcurveto
            -139 -14 70 -29 63 hhcurveto
            return
          </CharString>
          <CharString index="57">
            rmoveto
            31 47 rlineto
            6 8 1 5 6 vvcurveto
            18 -34 23 -17 -10 -6 -6 -10 -7 vhcurveto
            -23 -35 rlineto
            19 -34 -41 10 -46 hhcurveto
            -177 -97 -107 -251 -26 hvcurveto
            -12 -115 14 -85 34 -58 -37 -56 rcurveline
            -4 -6 -3 -7 -5 vvcurveto
            -18 33 -23 18 8 9 5 11 7 vhcurveto
            24 37 rlineto
            -26 36 46 -12 51 35 callgsubr
            13 125 -17 89 -39 59 rrcurveto
            -321 -273 rmoveto
            178 19 40 48 69 hhcurveto
            22 19 -5 -14 13 hvcurveto
            -187 -286 rlineto
            23 2 26 3 30 vhcurveto
            206 hmoveto
            -178 -19 -39 -49 -68 hhcurveto
            -29 -22 9 23 -15 hvcurveto
            198 301 rlineto
            -29 -1 -35 -5 -42 vhcurveto
            endchar
          </CharString>
          <CharString index="58">
            hvcurveto
            3 31 rlineto
            35 return
          </CharString>
          <CharString index="59">
            rmoveto
            17 -36 24 -17 -6 -9 -4 -9 -6 vhcurveto
            -19 -28 rlineto
            15 -26 -32 7 -38 hhcurveto
            -135 -79 -95 -174 -18 hvcurveto
            -8 -81 8 -64 25 -46 -17 -25 rcurveline
            -6 -10 -3 -4 -7 vvcurveto
            -19 36 -24 16 6 8 4 9 6 vhcurveto
            12 18 rlineto
            -14 26 31 -7 36 33 callsubr
            79 -8 63 -23 45 27 39 rcurveline
            5 8 3 6 7 vvcurveto
            -271 -247 rmoveto
            113 12 19 39 40 hhcurveto
            13 11 -5 -10 7 hvcurveto
            -103 -149 rlineto
            4 1 4 4 vvcurveto
            109 hmoveto
            -113 -12 -19 -40 -39 hhcurveto
            -13 -10 4 9 -7 hvcurveto
            100 145 rlineto
            endchar
          </CharString>
          <CharString index="60">
            30 -21 53 -26 -6 -5 -1 -4 -5 vhcurveto
            -32 -22 rlineto
            -8 -5 -3 -7 -7 -13 28 -17 -25 vvcurveto
            -20 -16 -13 -27 vhcurveto
            return
          </CharString>
          <CharString index="61">
            -87 callsubr
            endchar
          </CharString>
          <CharString index="62">
            9 callsubr
            -2 -17 rlineto
            -35 return
          </CharString>
          <CharString index="63">
            -84 callgsubr
            endchar
          </CharString>
          <CharString index="64">
            416 12 callsubr
            1 26 231 12 128 hvcurveto
            -28 callsubr
            -34 -36 callsubr
            -33 -321 rlineto
            -23 -3 -15 -35 -30 hhcurveto
            -25 0 23 39 4 hvcurveto
            33 317 20 callgsubr
            -40 hhcurveto
            -35 -36 callsubr
            -70 -667 -26 callsubr
            35 14 callgsubr
            18 172 32 11 28 23 27 40 rlinecurve
            18 callsubr
          </CharString>
          <CharString index="65">
            rmoveto
            26 2 52 76 67 vvcurveto
            25 -12 19 -28 vhcurveto
            -19 hlineto
            -42 -18 -17 -27 hvcurveto
            -35 -4 -37 -51 vvcurveto
            -16 27 -6 18 vhcurveto
            return
          </CharString>
          <CharString index="66">
            -74 170 -8 -92 callgsubr
            return
          </CharString>
          <CharString index="67">
            -1 88 -2 rmoveto
            40 hlineto
            41 19 -29 callgsubr
            28 303 rlineto
            6 hlineto
            97 -316 rlineto
            -15 5 19 -4 28 hhcurveto
            58 hlineto
            36 17 6 9 1 hvcurveto
            5 0 7 -4 9 vhcurveto
            -123 319 186 313 rlineto
            5 9 3 7 5 vvcurveto
            9 1 -15 6 -39 hhcurveto
            -55 hlineto
            -27 -18 -3 -16 -8 hvcurveto
            -161 -303 rlineto
            -7 hlineto
            35 290 rlineto
            21 3 -18 11 -41 hhcurveto
            -40 -16 callsubr
            return
          </CharString>
          <CharString index="68">
            150 98 78 135 14 hvcurveto
            return
          </CharString>
          <CharString index="69">
            -36 callsubr
            -9 -92 -46 callgsubr
            return
          </CharString>
          <CharString index="70">
            -15 -35 -3 hvcurveto
            -1 -7 rlineto
            -35 -4 return
          </CharString>
          <CharString index="71">
            -15 callsubr
            -3 hvcurveto
            return
          </CharString>
          <CharString index="72">
            578 -33 callsubr
          </CharString>
          <CharString index="73">
            rmoveto
            -90 callsubr
            return
          </CharString>
          <CharString index="74">
            rmoveto
            -106 callsubr
            -142 -790 -83 callsubr
          </CharString>
          <CharString index="75">
            hhcurveto
            -4 callsubr
            return
          </CharString>
          <CharString index="76">
            -19 -11 -21 return
          </CharString>
          <CharString index="77">
            -69 callgsubr
            vhcurveto
            return
          </CharString>
          <CharString index="78">
            19 hlineto
            42 20 17 27 2 hvcurveto
            11 105 32 50 15 32 5 10 3 8 1 8 rrcurveto
            16 1 -26 6 -18 hhcurveto
            -44 -107 -123 -112 -12 hvcurveto
            -25 -2 16 -19 42 hhcurveto
            return
          </CharString>
          <CharString index="79">
            21 2 11 callgsubr
            return
          </CharString>
          <CharString index="80">
            -47 callgsubr
            -35 -45 -18 -13 -15 22 -27 8 return
          </CharString>
          <CharString index="81">
            rlineto
            -21 -2 -53 callgsubr
            return
          </CharString>
          <CharString index="82">
            -22 -77 callgsubr
            return
          </CharString>
          <CharString index="83">
            -146 rlineto
            -3 -13 -13 -1 -15 hhcurveto
            -70 -38 52 171 18 hvcurveto
            152 16 return
          </CharString>
          <CharString index="84">
            16 -17 15 -40 vhcurveto
            -28 -44 callgsubr
            return
          </CharString>
          <CharString index="85" raw="1">
            05ae8e84 9a771b0b  
          </CharString>
          <CharString index="86">
            -7 -1 -5 -4 vvcurveto
            -9 5 -12 16 -5 vhcurveto
            return
          </CharString>
          <CharString index="87">
            306 -8 rmoveto
            158 127 120 238 238 -127 120 -158 -158 -128 -120 -238 -238 128 -120 158 hvcurveto
            64 vmoveto
            -121 -99 92 202 202 99 92 121 120 99 -92 -202 -202 -99 -92 -120 hvcurveto
            return
          </CharString>
          <CharString index="88">
            -81 callgsubr
            -67 return
          </CharString>
          <CharString index="89">
            18 11 21 3 hvcurveto
            return
          </CharString>
          <CharString index="90">
            -42 callgsubr
            endchar
          </CharString>
          <CharString index="91">
            hlineto
            -41 -18 -11 -39 callgsubr
            -11 41 hhcurveto
            return
          </CharString>
          <CharString index="92">
            hlineto
            -41 -18 -11 -21 return
          </CharString>
          <CharString index="93">
            19 11 21 3 hvcurveto
            return
          </CharString>
          <CharString index="94">
            -73 callgsubr
            endchar
          </CharString>
          <CharString index="95">
            -18 callgsubr
            -40 hhcurveto
            return
          </CharString>
          <CharString index="96">
            -28 hlineto
            -42 -19 -77 callgsubr
            return
          </CharString>
          <CharString index="97">
            rmoveto
            41 100 123 112 12 hvcurveto
            25 3 -14 19 -42 hhcurveto
            -20 hlineto
            -41 -19 -17 -27 -3 hvcurveto
            -10 -98 -27 -50 -12 -32 -3 -13 -5 -11 -1 -9 rrcurveto
            -16 -2 26 -6 17 hhcurveto
            endchar
          </CharString>
          <CharString index="98">
            hlineto
            -21 -45 callsubr
            return
          </CharString>
          <CharString index="99">
            -9 -11 10 hvcurveto
            -3 -13 -4 -26 -4 -30 rrcurveto
            endchar
          </CharString>
          <CharString index="100">
            -2 callgsubr
            -36 return
          </CharString>
          <CharString index="101">
            hlineto
            40 -14 callsubr
            return
          </CharString>
          <CharString index="102">
            rmoveto
            -4 callsubr
            return
          </CharString>
          <CharString index="103">
            -85 callgsubr
            hvcurveto
            -90 callsubr
            return
          </CharString>
          <CharString index="104">
            rmoveto
            28 -35 callgsubr
            return
          </CharString>
          <CharString index="105">
            -34 -319 rcurveline
            -21 -2 return
          </CharString>
          <CharString index="106">
            20 hlineto
            41 17 17 27 hvcurveto
            80 10 25 18 vvcurveto
            16 -26 6 -18 return
          </CharString>
          <CharString index="107">
            41 -5 callgsubr
            return
          </CharString>
          <CharString index="108">
            28 callsubr
            27 12 26 hvcurveto
            return
          </CharString>
          <CharString index="109">
            hlineto
            -20 9 callsubr
            return
          </CharString>
          <CharString index="110">
            rlineto
            -21 -3 17 -11 42 hhcurveto
            return
          </CharString>
          <CharString index="111">
            rmoveto
            42 hlineto
            40 18 return
          </CharString>
          <CharString index="112">
            hvcurveto
            2 15 rlineto
            return
          </CharString>
          <CharString index="113">
            rlineto
            156 hlineto
            return
          </CharString>
          <CharString index="114">
            hlineto
            33 4 44 21 20 -9 10 -17 hvcurveto
            return
          </CharString>
          <CharString index="115">
            rlinecurve
            95 -153 rlineto
            -10 6 8 -5 9 hhcurveto
            23 37 21 13 2 hvcurveto
            1 6 -2 6 -3 7 return
          </CharString>
          <CharString index="116">
            -10 -15 -35 -4 hvcurveto
            return
          </CharString>
          <CharString index="117">
            -28 -3 hvcurveto
            -1 -14 return
          </CharString>
          <CharString index="118">
            hlineto
            -67 -642 rlineto
            -22 11 -10 45 vhcurveto
            24 hlineto
            41 21 -29 callgsubr
            67 642 rlineto
            return
          </CharString>
          <CharString index="119">
            113 -34 callsubr
            return
          </CharString>
          <CharString index="120">
            -640 rlineto
            -21 return
          </CharString>
          <CharString index="121">
            1 6 hhcurveto
            -1 return
          </CharString>
          <CharString index="122">
            hlineto
            -18 -8 -37 callsubr
            5 -15 18 hhcurveto
            endchar
          </CharString>
          <CharString index="123">
            -40 hhcurveto
            -42 hlineto
            return
          </CharString>
          <CharString index="124">
            -36 callsubr
            -72 -692 -46 callgsubr
            return
          </CharString>
          <CharString index="125">
            -69 callsubr
            endchar
          </CharString>
          <CharString index="126">
            -27 callgsubr
            68 640 rlineto
            21 2 -16 return
          </CharString>
          <CharString index="127">
            hlineto
            -21 9 callsubr
            -1 -10 rlineto
            -35 -4 8 -15 21 hhcurveto
            return
          </CharString>
          <CharString index="128">
            hlineto
            -21 -11 -15 -35 -3 hvcurveto
            -2 -17 rlineto
            -35 -4 8 -15 21 hhcurveto
            return
          </CharString>
          <CharString index="129">
            -26 callsubr
            0 callsubr
            return
          </CharString>
          <CharString index="130">
            hlineto
            -20 -10 -15 -35 return
          </CharString>
          <CharString index="131">
            -83 161 -140 rmoveto
            19 hlineto
            31 16 -29 callgsubr
            return
          </CharString>
          <CharString index="132">
            -19 callgsubr
            3 30 rlineto
            35 4 -6 15 -18 hhcurveto
            return
          </CharString>
          <CharString index="133">
            2 hlineto
            22 9 10 20 2 hvcurveto
            82 779 rlineto
            return
          </CharString>
          <CharString index="134">
            21 2 5 callsubr
            21 2 -8 9 -20 hhcurveto
            return
          </CharString>
          <CharString index="135">
            -26 callgsubr
            21 5 return
          </CharString>
          <CharString index="136">
            12 28 2 5 callsubr
            28 4 -8 12 return
          </CharString>
          <CharString index="137">
            hvcurveto
            -3 -7 -1 -5 -4 vvcurveto
            return
          </CharString>
          <CharString index="138">
            -18 -12 -60 callgsubr
            return
          </CharString>
          <CharString index="139">
            21 3 -17 11 return
          </CharString>
          <CharString index="140">
            hhcurveto
            135 80 96 174 18 hvcurveto
            8 return
          </CharString>
          <CharString index="141">
            hlineto
            16 154 rlineto
            21 -10 9 -37 vhcurveto
            return
          </CharString>
          <CharString index="142">
            -6 -3 -5 -4 vvcurveto
            -8 7 -3 13 vhcurveto
            return
          </CharString>
          <CharString index="143">
            rlineto
            2 7 2 return
          </CharString>
        <CharString name=".notdef">
          3 -20 hmoveto
          500 hlineto
          73 700 rlineto
          -500 hlineto
          218 -305 rmoveto
          -144 255 rlineto
          340 hlineto
          -428 -555 rmoveto
          53 510 144 -255 rlineto
          203 -255 rmoveto
          -143 255 196 255 rlineto
          -427 -555 rmoveto
          196 255 144 -255 rlineto
          endchar
        </CharString>
        <CharString name="A">
          -6 23 -2 -106 callgsubr
          endchar
        </CharString>
        <CharString name="AE">
          235 34 -2 -48 callgsubr
        </CharString>
        <CharString name="AEacute">
          235 412 752 rmoveto
          -105 callsubr
          -378 -754 -48 callgsubr
        </CharString>
        <CharString name="Aacute">
          -6 271 752 rmoveto
          -105 callsubr
          -248 -754 -106 callgsubr
          endchar
        </CharString>
        <CharString name="Abreve">
          -6 305 -68 callsubr
          -282 -754 -106 callgsubr
          endchar
        </CharString>
        <CharString name="Acircumflex">
          -6 201 749 -107 callsubr
          -178 -751 -106 callgsubr
          endchar
        </CharString>
        <CharString name="Adieresis">
          -6 226 755 -102 callsubr
          -365 -757 -106 callgsubr
          endchar
        </CharString>
        <CharString name="Agrave">
          -6 331 752 -97 callsubr
          -308 -754 -106 callgsubr
          endchar
        </CharString>
        <CharString name="Amacron">
          -6 212 774 -85 callsubr
          -189 -776 -106 callgsubr
          endchar
        </CharString>
        <CharString name="Aogonek">
          -6 384 -2 rmoveto
          49 hlineto
          31 13 8 14 1 hvcurveto
          1 5 0 6 -1 7 -93 636 rcurveline
          19 -3 -19 9 -37 hhcurveto
          -56 hlineto
          -35 -22 -9 -19 -7 hvcurveto
          -224 -636 -3 -7 -1 -6 -1 -5 rlinecurve
          -14 -1 14 -8 33 hhcurveto
          -73 callsubr
          12 -115 rlineto
          -22 -38 -6 -40 -22 -55 callgsubr
          -26 callgsubr
          15 3 19 6 19 hvcurveto
          -186 265 rmoveto
          68 212 8 25 6 26 6 25 rlinecurve
          5 hlineto
          -25 2 -26 2 -25 vhcurveto
          21 -212 rlineto
          endchar
        </CharString>
        <CharString name="Aring">
          -6 302 727 -74 callgsubr
          -287 -791 -106 callgsubr
          endchar
        </CharString>
        <CharString name="Aringacute">
          -6 289 812 rmoveto
          47 18 13 12 12 hvcurveto
          83 70 5 2 1 8 rrcurveto
          11 1 -20 3 -40 hhcurveto
          -40 -33 -6 -21 -15 hvcurveto
          -17 -23 -12 -17 -20 -37 rrcurveto
          -11 -1 7 -4 24 hhcurveto
          189 -774 rmoveto
          -90 616 6 13 4 14 2 15 rlinecurve
          58 6 -32 42 -63 hhcurveto
          -62 -40 -42 -58 -6 hvcurveto
          -1 -10 0 -10 1 -9 -221 -629 rcurveline
          -3 -7 -1 -6 -1 -5 rrcurveto
          -14 -1 14 -8 33 hhcurveto
          -73 callsubr
          13 -122 rlineto
          -16 3 20 -5 28 hhcurveto
          49 hlineto
          31 13 8 14 1 hvcurveto
          1 5 0 6 -1 7 rrcurveto
          -213 657 rmoveto
          23 2 15 14 24 hhcurveto
          23 12 -14 -23 -2 hvcurveto
          -23 -3 -15 -13 -23 hhcurveto
          -24 -12 13 23 3 hvcurveto
          -71 -432 rmoveto
          68 212 8 25 6 26 6 25 rlinecurve
          5 hlineto
          -25 2 -26 2 -25 vhcurveto
          21 -212 rlineto
          endchar
        </CharString>
        <CharString name="Atilde">
          -6 174 757 rmoveto
          -104 callgsubr
          -140 -762 -106 callgsubr
          endchar
        </CharString>
        <CharString name="B">
          28 67 hmoveto
          182 hlineto
          171 65 84 113 12 hvcurveto
          9 86 -35 59 -66 20 rrcurveto
          4 vlineto
          56 31 42 51 9 83 rrcurveto
          108 11 -57 61 -146 hhcurveto
          -179 hlineto
          -26 -12 -12 -27 -3 hvcurveto
          -66 -621 rlineto
          -28 -3 10 -12 26 hhcurveto
          155 415 rmoveto
          17 165 rlineto
          71 hlineto
          42 17 -22 -58 -6 hvcurveto
          -59 -6 -23 -26 -43 hhcurveto
          -100 -294 rmoveto
          18 175 rlineto
          76 hlineto
          49 21 -22 -63 -7 hvcurveto
          -65 -6 -27 -25 -48 hhcurveto
          endchar
        </CharString>
        <CharString name="C">
          -52 293 -8 -83 callgsubr
        </CharString>
        <CharString name="CR">
          -271 endchar
        </CharString>
        <CharString name="Cacute">
          -52 295 752 rmoveto
          -105 callsubr
          -2 -760 -83 callgsubr
        </CharString>
        <CharString name="Cacute.loclPLK">
          -52 305 752 -76 callgsubr
          -12 -760 -83 callgsubr
        </CharString>
        <CharString name="Ccaron">
          -52 326 749 -103 callsubr
          -33 -757 -83 callgsubr
        </CharString>
        <CharString name="Ccedilla">
          -52 442 697 rmoveto
          5 -18 -32 6 -36 hhcurveto
          -187 -97 -118 -238 -25 hvcurveto
          -21 -195 52 -111 112 -39 rrcurveto
          -20 -57 -8 -20 -9 -65 callgsubr
          12 42 rlineto
          -1 14 14 -1 15 hhcurveto
          30 29 3 11 23 hvcurveto
          24 12 16 21 37 vvcurveto
          1 43 -13 28 -29 -8 rrcurveto
          -6 -22 -16 -5 -29 hhcurveto
          -82 -34 76 147 15 hvcurveto
          148 16 46 74 81 hhcurveto
          27 20 -5 -5 16 hvcurveto
          26 -10 24 51 6 46 3 21 -4 19 -25 7 rrcurveto
          endchar
        </CharString>
        <CharString name="Ccircumflex">
          -52 225 749 -107 callsubr
          68 -757 -83 callgsubr
        </CharString>
        <CharString name="Cdotaccent">
          -52 331 755 rmoveto
          -106 callsubr
          -38 -763 -83 callgsubr
        </CharString>
        <CharString name="D">
          -23 callgsubr
          endchar
        </CharString>
        <CharString name="Dcaron">
          66 326 749 -103 callsubr
          -264 -749 rmoveto
          -70 callsubr
          endchar
        </CharString>
        <CharString name="Dcroat">
          -41 callgsubr
        </CharString>
        <CharString name="E">
          -54 67 hmoveto
          -104 callsubr
          endchar
        </CharString>
        <CharString name="Eacute">
          -54 266 752 rmoveto
          -105 callsubr
          -199 -752 rmoveto
          -104 callsubr
          endchar
        </CharString>
        <CharString name="Ebreve">
          -54 300 -68 callsubr
          -233 -752 rmoveto
          -104 callsubr
          endchar
        </CharString>
        <CharString name="Ecaron">
          -54 297 749 -103 callsubr
          -230 -749 rmoveto
          -104 callsubr
          endchar
        </CharString>
        <CharString name="Ecircumflex">
          -54 196 749 -107 callsubr
          -129 -749 rmoveto
          -104 callsubr
          endchar
        </CharString>
        <CharString name="Edieresis">
          -54 221 755 -102 callsubr
          -316 -755 rmoveto
          -104 callsubr
          endchar
        </CharString>
        <CharString name="Edotaccent">
          -54 302 755 rmoveto
          -106 callsubr
          -235 -755 rmoveto
          -104 callsubr
          endchar
        </CharString>
        <CharString name="Egrave">
          -54 326 752 -97 callsubr
          -259 -752 rmoveto
          -104 callsubr
          endchar
        </CharString>
        <CharString name="Emacron">
          -54 207 774 -85 callsubr
          -140 -774 rmoveto
          -104 callsubr
          endchar
        </CharString>
        <CharString name="Eng">
          79 526 702 rmoveto
          -24 -81 callgsubr
          -37 -329 -3 -26 2 -27 1 -26 rlinecurve
          -4 -2 -7 26 -8 26 -11 26 rlinecurve
          -143 336 rlineto
          24 -10 -17 4 -22 hhcurveto
          -26 -19 callsubr
          -640 -46 callgsubr
          24 hlineto
          41 19 -29 callgsubr
          37 339 3 23 -2 22 -2 23 rlinecurve
          6 3 6 -21 5 -23 9 -20 rlinecurve
          139 -320 -12 -108 rlineto
          -30 -3 -7 -13 -18 -11 -13 4 -6 hhcurveto
          -21 -15 -47 -23 -2 hvcurveto
          -39 -4 34 -12 63 hhcurveto
          76 64 53 109 11 hvcurveto
          76 720 -12 callsubr
          endchar
        </CharString>
        <CharString name="Eogonek">
          -54 440 29 callgsubr
          20 5 26 11 26 hvcurveto
          8 7 4 14 2 21 3 31 rcurveline
          35 3 -6 15 -20 hhcurveto
          -177 hlineto
          17 162 6 callsubr
          20 12 -71 callgsubr
          -7 15 -20 hhcurveto
          -156 hlineto
          15 145 rlineto
          176 hlineto
          20 12 -71 callgsubr
          -7 15 -20 hhcurveto
          -295 hlineto
          -26 -12 -12 -28 -3 hvcurveto
          -66 -620 rlineto
          -28 -3 10 -12 26 hhcurveto
          253 hlineto
          -16 -33 -4 -31 -19 -9 callgsubr
        </CharString>
        <CharString name="Eth">
          -41 callgsubr
        </CharString>
        <CharString name="Euro">
          -8 282 -8 rmoveto
          97 85 42 42 5 hvcurveto
          16 1 -17 67 -35 -17 -33 -31 -61 hhcurveto
          -50 -29 35 70 -8 hvcurveto
          168 hlineto
          21 10 10 24 3 hvcurveto
          7 vlineto
          24 3 -8 10 -21 hhcurveto
          -178 hlineto
          14 2 14 1 15 vhcurveto
          2 11 1 11 1 11 rrcurveto
          179 hlineto
          21 10 10 24 2 hvcurveto
          1 7 rlineto
          24 3 -8 10 -21 hhcurveto
          -171 hlineto
          76 23 37 38 54 60 23 -26 12 hhcurveto
          24 46 64 27 3 hvcurveto
          29 3 -68 41 -96 hhcurveto
          -151 -91 -83 -166 -40 hvcurveto
          -29 hlineto
          -21 -10 -10 -24 -3 hvcurveto
          -1 -7 rlineto
          -24 -2 8 -10 21 hhcurveto
          23 hlineto
          -3 -32 rlineto
          -2 -15 -2 -15 -14 vvcurveto
          -24 hlineto
          -21 -10 -10 -24 -3 hvcurveto
          -7 vlineto
          -24 -3 8 -10 21 hhcurveto
          30 hlineto
          -165 6 70 -76 149 hhcurveto
          endchar
        </CharString>
        <CharString name="F">
          -88 88 -2 rmoveto
          40 -5 callgsubr
          28 262 rlineto
          147 hlineto
          20 -45 callgsubr
          -20 hhcurveto
          -147 hlineto
          15 146 6 callsubr
          20 -45 callgsubr
          -20 hhcurveto
          -275 hlineto
          -26 -12 -12 -28 -3 hvcurveto
          -67 -630 -26 callsubr
          endchar
        </CharString>
        <CharString name="G">
          41 355 573 -81 callsubr
          endchar
        </CharString>
        <CharString name="Gbreve">
          41 351 -68 callsubr
          4 -179 -81 callsubr
          endchar
        </CharString>
        <CharString name="Gcircumflex">
          41 247 749 -107 callsubr
          108 -176 -81 callsubr
          endchar
        </CharString>
        <CharString name="Gcommaaccent">
          41 355 573 -81 callsubr
          -62 -624 rmoveto
          -20 hlineto
          -41 -17 -17 -27 hvcurveto
          -80 -10 -25 -18 vvcurveto
          -16 26 -6 18 29 60 78 67 25 -12 19 -33 vhcurveto
          endchar
        </CharString>
        <CharString name="Gdotaccent">
          41 353 755 rmoveto
          -106 callsubr
          2 -182 -81 callsubr
          endchar
        </CharString>
        <CharString name="H">
          90 88 -2 -57 callgsubr
          endchar
        </CharString>
        <CharString name="Hbar">
          90 636 571 rmoveto
          -61 hlineto
          11 99 -74 callsubr
          -41 -81 callgsubr
          -10 -99 rlineto
          -171 hlineto
          10 99 rlineto
          -28 callsubr
          -42 -81 callgsubr
          -11 -99 rlineto
          -70 7 callgsubr
          71 hlineto
          -47 -446 -26 callsubr
          42 14 callgsubr
          28 261 rlineto
          171 hlineto
          -28 -261 22 callsubr
          47 446 rlineto
          60 7 callsubr
          -233 -148 rmoveto
          -171 hlineto
          6 53 rlineto
          171 hlineto
          endchar
        </CharString>
        <CharString name="Hcircumflex">
          90 248 749 -107 callsubr
          -160 -751 -57 callgsubr
          endchar
        </CharString>
        <CharString name="I">
          -249 83 -3 -84 callsubr
          endchar
        </CharString>
        <CharString name="IJ">
          106 83 -3 -84 callsubr
          264 -5 -65 callsubr
          endchar
        </CharString>
        <CharString name="Iacute">
          -249 149 752 rmoveto
          -105 callsubr
          -66 -755 -84 callsubr
          endchar
        </CharString>
        <CharString name="Iacute_J.loclNLD">
          106 149 752 rmoveto
          -105 callsubr
          344 hmoveto
          -105 callsubr
          -410 -755 -84 callsubr
          264 -5 -65 callsubr
          endchar
        </CharString>
        <CharString name="Ibreve">
          -249 183 -68 callsubr
          -100 -755 -84 callsubr
          endchar
        </CharString>
        <CharString name="Icircumflex">
          -249 79 749 -107 callsubr
          4 -752 -84 callsubr
          endchar
        </CharString>
        <CharString name="Idieresis">
          -249 104 755 -102 callsubr
          -183 -758 -84 callsubr
          endchar
        </CharString>
        <CharString name="Idotaccent">
          -249 185 755 rmoveto
          -106 callsubr
          -102 -758 -84 callsubr
          endchar
        </CharString>
        <CharString name="Igrave">
          -249 209 752 -97 callsubr
          -126 -755 -84 callsubr
          endchar
        </CharString>
        <CharString name="Imacron">
          -249 90 774 -85 callsubr
          -7 -777 -84 callsubr
          endchar
        </CharString>
        <CharString name="Iogonek">
          -249 236 -99 rmoveto
          1 callsubr
          3 4 1 5 1 6 68 640 rcurveline
          21 2 -16 12 16 callsubr
          -41 -18 -12 -39 callgsubr
          -12 41 hhcurveto
          29 hlineto
          -12 -30 -4 -28 -17 -9 callgsubr
        </CharString>
        <CharString name="Itilde">
          -249 65 757 rmoveto
          -78 callgsubr
          28 -763 -84 callsubr
          endchar
        </CharString>
        <CharString name="J">
          -156 85 -8 -65 callsubr
          endchar
        </CharString>
        <CharString name="Jcircumflex">
          -156 161 749 -107 callsubr
          -76 -757 -65 callsubr
          endchar
        </CharString>
        <CharString name="K">
          -40 callsubr
          endchar
        </CharString>
        <CharString name="Kcommaaccent">
          -40 callsubr
          122 -238 -77 callsubr
          endchar
        </CharString>
        <CharString name="L">
          -103 67 hmoveto
          -67 callsubr
          endchar
        </CharString>
        <CharString name="Lacute">
          -103 155 752 rmoveto
          -105 callsubr
          -88 -752 rmoveto
          -67 callsubr
          endchar
        </CharString>
        <CharString name="Lcaron">
          -103 67 hmoveto
          -67 callsubr
          281 511 -42 callsubr
          endchar
        </CharString>
        <CharString name="Lcommaaccent">
          -103 67 hmoveto
          -67 callsubr
          93 -240 -77 callsubr
          endchar
        </CharString>
        <CharString name="Ldot">
          -103 67 hmoveto
          -67 callsubr
          252 289 -11 callgsubr
        </CharString>
        <CharString name="Lslash">
          -103 348 131 rmoveto
          -149 hlineto
          29 273 50 31 rlineto
          18 11 8 14 21 vvcurveto
          20 vlineto
          13 -4 7 -7 -4 -5 -2 -4 -6 vhcurveto
          -41 -25 19 180 -74 callsubr
          -40 -81 callgsubr
          -30 -282 -31 -19 rlineto
          -18 -11 -8 -12 -22 vvcurveto
          -20 vlineto
          -14 3 -6 8 4 5 1 4 6 vhcurveto
          22 13 -28 -262 rlineto
          -28 -3 10 -12 26 hhcurveto
          268 hlineto
          21 -45 callgsubr
          -21 hhcurveto
          endchar
        </CharString>
        <CharString name="M">
          178 331 223 rmoveto
          17 hlineto
          21 11 7 17 10 hvcurveto
          89 138 10 15 9 16 8 16 rlinecurve
          4 -1 -6 -18 -5 -19 -2 -18 rlinecurve
          -36 -346 22 callgsubr
          67 640 rlineto
          22 2 -16 10 -41 hhcurveto
          -31 hlineto
          -32 -18 -8 -20 -13 hvcurveto
          -148 -235 -10 -15 -8 -17 -5 -16 rlinecurve
          -4 16 -4 17 -6 15 -100 235 rcurveline
          20 -9 -16 8 -32 hhcurveto
          -31 hlineto
          -41 -18 -10 -22 -2 hvcurveto
          -67 -640 22 callgsubr
          36 346 2 18 -1 19 -1 18 rlinecurve
          4 1 5 -16 5 -16 6 -15 rlinecurve
          59 -138 rlineto
          -17 8 9 -7 21 hhcurveto
          endchar
        </CharString>
        <CharString name="N">
          79 -43 callgsubr
          endchar
        </CharString>
        <CharString name="NULL">
          -511 endchar
        </CharString>
        <CharString name="Nacute">
          79 314 752 rmoveto
          -105 callsubr
          -232 -754 -99 callsubr
          endchar
        </CharString>
        <CharString name="Nacute.loclPLK">
          79 324 752 -76 callgsubr
          -242 -754 -99 callsubr
          endchar
        </CharString>
        <CharString name="Ncaron">
          79 345 749 -103 callsubr
          -263 -751 -99 callsubr
          endchar
        </CharString>
        <CharString name="Ncommaaccent">
          79 -43 callgsubr
          167 -238 -77 callsubr
          endchar
        </CharString>
        <CharString name="Ntilde">
          79 217 757 rmoveto
          -104 callgsubr
          -124 -762 -99 callsubr
          endchar
        </CharString>
        <CharString name="O">
          88 271 -8 -101 callsubr
          endchar
        </CharString>
        <CharString name="OE">
          312 799 700 rmoveto
          -311 hlineto
          -25 -12 -11 -26 -4 hvcurveto
          33 -30 -42 12 -57 hhcurveto
          -155 -89 -114 -244 -27 hvcurveto
          -251 -27 94 -107 133 hhcurveto
          51 45 11 23 38 hvcurveto
          -18 1 11 -8 21 hhcurveto
          312 hlineto
          20 11 -71 callgsubr
          -6 15 -20 hhcurveto
          -193 hlineto
          17 162 rlineto
          172 hlineto
          20 12 -71 callgsubr
          -7 15 -20 hhcurveto
          -172 hlineto
          15 145 rlineto
          192 hlineto
          20 12 -71 callgsubr
          -7 15 -20 hhcurveto
          -513 -577 rmoveto
          -69 -30 49 178 19 hvcurveto
          178 19 40 48 69 hhcurveto
          68 29 -48 -178 -19 hvcurveto
          -178 -19 -39 -49 -68 hhcurveto
          endchar
        </CharString>
        <CharString name="Oacute">
          88 317 752 rmoveto
          -105 callsubr
          -46 -760 -101 callsubr
          endchar
        </CharString>
        <CharString name="Oacute.loclPLK">
          88 327 752 -76 callgsubr
          -56 -760 -101 callsubr
          endchar
        </CharString>
        <CharString name="Obreve">
          88 351 -68 callsubr
          -80 -760 -101 callsubr
          endchar
        </CharString>
        <CharString name="Ocircumflex">
          88 247 749 -107 callsubr
          24 -757 -101 callsubr
          endchar
        </CharString>
        <CharString name="Odieresis">
          88 272 755 -102 callsubr
          -163 -763 -101 callsubr
          endchar
        </CharString>
        <CharString name="Ograve">
          88 377 752 -97 callsubr
          -106 -760 -101 callsubr
          endchar
        </CharString>
        <CharString name="Ohorn">
          88 644 702 -90 callgsubr
          endchar
        </CharString>
        <CharString name="Ohungarumlaut">
          88 250 752 -78 callsubr
          -144 -760 -101 callsubr
          endchar
        </CharString>
        <CharString name="Omacron">
          88 258 774 -85 callsubr
          13 -782 -101 callsubr
          endchar
        </CharString>
        <CharString name="Oslash">
          88 527 623 -50 callsubr
        </CharString>
        <CharString name="Oslashacute">
          88 314 752 rmoveto
          -105 callsubr
          213 -129 -50 callsubr
        </CharString>
        <CharString name="Otilde">
          88 220 757 rmoveto
          -104 callgsubr
          62 -768 -101 callsubr
          endchar
        </CharString>
        <CharString name="P">
          90 -2 -3 callgsubr
          25 232 rlineto
          69 hlineto
          45 148 26 193 20 hvcurveto
          193 20 -122 26 -75 hhcurveto
          -173 hlineto
          -28 -13 -12 -28 -3 hvcurveto
          -67 -630 rlineto
          -21 -2 17 -11 42 hhcurveto
          134 393 rmoveto
          19 178 rlineto
          53 hlineto
          25 30 -16 -72 -7 hvcurveto
          -74 -8 -34 -16 -25 hhcurveto
          endchar
        </CharString>
        <CharString name="Q">
          88 471 -159 rmoveto
          32 42 79 15 3 hvcurveto
          1 7 -2 7 -9 4 -152 69 rcurveline
          1 4 99 48 63 104 20 172 rlinecurve
          250 26 -88 108 -161 hhcurveto
          -176 -98 -107 -251 -26 hvcurveto
          -19 -183 45 -99 83 -53 rrcurveto
          -57 89 213 -117 14 hhcurveto
          -186 280 rmoveto
          -69 -30 49 180 19 hvcurveto
          178 19 40 48 69 hhcurveto
          68 29 -48 -178 -19 hvcurveto
          -180 -19 -39 -49 -68 hhcurveto
          endchar
        </CharString>
        <CharString name="R">
          2 87 -2 -44 callsubr
        </CharString>
        <CharString name="Racute">
          2 269 752 rmoveto
          -105 callsubr
          -182 -754 -44 callsubr
        </CharString>
        <CharString name="Rcaron">
          2 300 749 -103 callsubr
          -213 -751 -44 callsubr
        </CharString>
        <CharString name="Rcommaaccent">
          2 87 -2 -84 callgsubr
          -73 -642 -77 callsubr
          endchar
        </CharString>
        <CharString name="S">
          -41 callsubr
          endchar
        </CharString>
        <CharString name="Sacute">
          -74 235 752 rmoveto
          -105 callsubr
          -65 -760 -92 callgsubr
          endchar
        </CharString>
        <CharString name="Sacute.loclPLK">
          -74 245 752 -76 callgsubr
          -75 -760 -92 callgsubr
          endchar
        </CharString>
        <CharString name="Scaron">
          -74 266 749 -103 callsubr
          -96 -757 -92 callgsubr
          endchar
        </CharString>
        <CharString name="Scedilla">
          -74 297 403 rmoveto
          -46 30 -43 21 54 vvcurveto
          18 5 50 72 14 19 -3 -11 30 vhcurveto
          -3 9 12 -4 9 hhcurveto
          28 17 60 30 14 -9 12 -15 9 hvcurveto
          19 -31 -52 9 -40 hhcurveto
          -125 -99 -84 -142 -90 39 -39 69 -44 hvcurveto
          49 -31 47 -22 -51 vvcurveto
          -63 -43 -19 -38 -40 -26 14 19 -35 vhcurveto
          4 -7 -6 3 -6 hhcurveto
          -28 -24 -62 -35 1 hvcurveto
          -27 35 -20 31 -11 vhcurveto
          16 -5 17 -5 18 -2 rrcurveto
          -17 -49 -7 -18 -8 -65 callgsubr
          12 40 rlineto
          140 6 87 85 147 vvcurveto
          87 -42 39 -73 47 vhcurveto
          endchar
        </CharString>
        <CharString name="Scircumflex">
          -74 165 749 -107 callsubr
          5 -757 -92 callgsubr
          endchar
        </CharString>
        <CharString name="Scommaaccent">
          -41 callsubr
          -41 -232 -77 callsubr
          endchar
        </CharString>
        <CharString name="T">
          -57 179 -2 -59 callsubr
          endchar
        </CharString>
        <CharString name="Tbar">
          -57 464 700 rmoveto
          -380 hlineto
          -20 -11 -15 -35 -3 hvcurveto
          -4 -31 rlineto
          -35 -3 7 -15 20 hhcurveto
          111 hlineto
          -18 -171 rlineto
          -99 7 callgsubr
          100 hlineto
          -29 -273 22 callsubr
          29 273 rlineto
          99 7 callsubr
          -100 hlineto
          18 171 rlineto
          112 hlineto
          21 -45 callgsubr
          -21 hhcurveto
          endchar
        </CharString>
        <CharString name="Tcaron">
          -57 276 749 -103 callsubr
          -97 -751 -59 callsubr
          endchar
        </CharString>
        <CharString name="Thorn">
          85 -2 rmoveto
          40 -6 callsubr
          13 123 rlineto
          67 hlineto
          45 147 26 193 21 hvcurveto
          193 20 -122 26 -75 hhcurveto
          -57 hlineto
          8 79 -12 callsubr
          -40 -19 callsubr
          -640 -46 callgsubr
          128 284 rmoveto
          19 178 rlineto
          50 hlineto
          26 29 -16 -72 -7 hvcurveto
          -74 -8 -33 -16 -26 hhcurveto
          endchar
        </CharString>
        <CharString name="U">
          72 264 -8 rmoveto
          -39 callsubr
          49 465 -74 callsubr
          -39 -100 callsubr
          endchar
        </CharString>
        <CharString name="Uacute">
          72 309 752 rmoveto
          -105 callsubr
          -45 -760 rmoveto
          -39 callsubr
          49 465 -74 callsubr
          -39 -100 callsubr
          endchar
        </CharString>
        <CharString name="Ubreve">
          72 343 -68 callsubr
          -79 -760 rmoveto
          -39 callsubr
          49 465 -74 callsubr
          -39 -100 callsubr
          endchar
        </CharString>
        <CharString name="Ucircumflex">
          72 239 749 -107 callsubr
          25 -757 rmoveto
          -39 callsubr
          49 465 -74 callsubr
          -39 -100 callsubr
          endchar
        </CharString>
        <CharString name="Udieresis">
          72 264 755 -102 callsubr
          -162 -763 rmoveto
          -39 callsubr
          49 465 -74 callsubr
          -39 -100 callsubr
          endchar
        </CharString>
        <CharString name="Ugrave">
          72 369 752 -97 callsubr
          -105 -760 rmoveto
          -39 callsubr
          49 465 -74 callsubr
          -39 -100 callsubr
          endchar
        </CharString>
        <CharString name="Uhorn">
          72 653 753 rmoveto
          -47 callsubr
          -51 -100 callsubr
          -39 callsubr
          48 458 rlineto
          55 10 24 33 47 vvcurveto
          endchar
        </CharString>
        <CharString name="Uhungarumlaut">
          72 242 752 -78 callsubr
          -143 -760 rmoveto
          -39 callsubr
          49 465 -74 callsubr
          -39 -100 callsubr
          endchar
        </CharString>
        <CharString name="Umacron">
          72 250 774 -85 callsubr
          14 -782 rmoveto
          -39 callsubr
          49 465 -74 callsubr
          -39 -100 callsubr
          endchar
        </CharString>
        <CharString name="Uogonek">
          72 520 702 rmoveto
          -39 -100 callsubr
          28 26 3 5 23 hvcurveto
          -9 -26 -3 -24 -16 -55 callgsubr
          28 callsubr
          26 11 25 hvcurveto
          65 36 40 61 9 83 49 465 rcurveline
          -67 callgsubr
          endchar
        </CharString>
        <CharString name="Uring">
          72 340 727 -74 callgsubr
          -84 -797 rmoveto
          -39 callsubr
          49 465 -74 callsubr
          -39 -100 callsubr
          endchar
        </CharString>
        <CharString name="Utilde">
          72 212 757 rmoveto
          -104 callgsubr
          63 -768 rmoveto
          -39 callsubr
          49 465 -74 callsubr
          -39 -100 callsubr
          endchar
        </CharString>
        <CharString name="V">
          -3 192 -2 rmoveto
          71 hlineto
          28 22 5 16 5 hvcurveto
          223 643 2 7 2 6 1 5 rlinecurve
          14 1 -17 8 -39 hhcurveto
          -37 hlineto
          -28 -23 -7 -22 -7 hvcurveto
          -136 -452 -17 -69 rlineto
          -4 hlineto
          -1 69 -39 452 rlineto
          22 -2 -22 7 -28 hhcurveto
          -38 hlineto
          -39 -20 -8 -14 -1 hvcurveto
          -1 -5 2 -6 1 -7 90 -643 rcurveline
          -16 2 21 -5 28 hhcurveto
          endchar
        </CharString>
        <CharString name="W">
          241 166 -2 -91 callgsubr
        </CharString>
        <CharString name="Wacute">
          241 389 752 rmoveto
          -105 callsubr
          -223 -754 -91 callgsubr
        </CharString>
        <CharString name="Wcircumflex">
          241 319 749 -107 callsubr
          -153 -751 -91 callgsubr
        </CharString>
        <CharString name="Wdieresis">
          241 344 755 -102 callsubr
          -340 -757 -91 callgsubr
        </CharString>
        <CharString name="Wgrave">
          241 449 752 -97 callsubr
          -283 -754 -91 callgsubr
        </CharString>
        <CharString name="X">
          -5 39 -2 rmoveto
          45 hlineto
          29 19 0 20 9 hvcurveto
          117 254 55 -255 rlineto
          -15 4 22 -4 27 hhcurveto
          43 hlineto
          40 20 7 12 1 hvcurveto
          1 7 -3 7 -3 11 -103 321 rcurveline
          167 295 rlineto
          6 11 4 8 6 vvcurveto
          12 2 -20 7 -39 hhcurveto
          -47 hlineto
          -29 -21 -2 -18 -8 hvcurveto
          -101 -235 -45 236 rlineto
          16 -3 -23 3 -26 hhcurveto
          -47 hlineto
          -40 -21 -8 -11 -1 hvcurveto
          -7 3 -8 4 -10 vhcurveto
          95 -293 -179 -323 -6 -12 -4 -7 -1 -6 rlinecurve
          -12 -1 17 -7 41 hhcurveto
          endchar
        </CharString>
        <CharString name="Y">
          -27 195 -2 -86 callgsubr
        </CharString>
        <CharString name="Y.loclGUA">
          -13 440 701 -96 callgsubr
          endchar
        </CharString>
        <CharString name="Yacute">
          -27 259 752 rmoveto
          -105 callsubr
          -64 -754 -86 callgsubr
        </CharString>
        <CharString name="Yacute.loclGUA">
          -13 266 752 rmoveto
          -105 callsubr
          174 -51 -96 callgsubr
          endchar
        </CharString>
        <CharString name="Ycircumflex">
          -27 189 749 -107 callsubr
          6 -751 -86 callgsubr
        </CharString>
        <CharString name="Ycircumflex.loclGUA">
          -13 196 749 -107 callsubr
          244 -48 -96 callgsubr
          endchar
        </CharString>
        <CharString name="Ydieresis">
          -27 214 755 -102 callsubr
          -181 -757 -86 callgsubr
        </CharString>
        <CharString name="Ydieresis.loclGUA">
          -13 221 755 -102 callsubr
          57 -54 -96 callgsubr
          endchar
        </CharString>
        <CharString name="Ygrave">
          -27 319 752 -97 callsubr
          -124 -754 -86 callgsubr
        </CharString>
        <CharString name="Ygrave.loclGUA">
          -13 326 752 -97 callsubr
          114 -51 -96 callgsubr
          endchar
        </CharString>
        <CharString name="Z">
          -4 35 -52 callgsubr
          endchar
        </CharString>
        <CharString name="Zacute">
          -4 274 752 rmoveto
          -105 callsubr
          -239 -752 rmoveto
          -88 callgsubr
          endchar
        </CharString>
        <CharString name="Zacute.loclPLK">
          -4 284 752 -76 callgsubr
          -249 -752 rmoveto
          -88 callgsubr
          endchar
        </CharString>
        <CharString name="Zcaron">
          -4 305 749 -103 callsubr
          -270 -749 rmoveto
          -88 callgsubr
          endchar
        </CharString>
        <CharString name="Zdotaccent">
          -4 310 755 rmoveto
          -106 callsubr
          -275 -755 rmoveto
          -88 callgsubr
          endchar
        </CharString>
        <CharString name="a">
          -30 155 -9 -105 callgsubr
        </CharString>
        <CharString name="aacute">
          -30 237 575 rmoveto
          -105 callsubr
          -82 -46 callsubr
        </CharString>
        <CharString name="abreve">
          -30 271 575 -95 callgsubr
        </CharString>
        <CharString name="acircumflex">
          -30 167 572 -107 callsubr
          -12 -80 callsubr
        </CharString>
        <CharString name="acute">
          -255 62 575 rmoveto
          -105 callsubr
          endchar
        </CharString>
        <CharString name="acute.loclPLK">
          -255 67 575 -76 callgsubr
          endchar
        </CharString>
        <CharString name="acutecomb">
          -511 9 575 rmoveto
          -105 callsubr
          endchar
        </CharString>
        <CharString name="adieresis">
          -30 192 578 -102 callsubr
          -199 -587 -105 callgsubr
        </CharString>
        <CharString name="ae">
          153 143 -8 -54 callsubr
        </CharString>
        <CharString name="aeacute">
          153 333 575 rmoveto
          -105 callsubr
          -190 -583 -54 callsubr
        </CharString>
        <CharString name="agrave">
          -30 297 575 -97 callsubr
          -142 -46 callsubr
        </CharString>
        <CharString name="amacron">
          -30 178 597 -85 callsubr
          -23 -606 -105 callgsubr
        </CharString>
        <CharString name="ampersand">
          9 496 426 rmoveto
          -22 hlineto
          10 95 rlineto
          21 2 -13 11 -35 hhcurveto
          -35 hlineto
          -33 -21 -11 -21 -4 hvcurveto
          -22 -95 rlineto
          -63 hlineto
          -36 -27 33 50 5 hvcurveto
          49 5 18 33 29 17 11 -7 7 hhcurveto
          14 23 34 48 6 hvcurveto
          27 2 -55 15 -43 hhcurveto
          -104 -69 -68 -107 -11 hvcurveto
          -8 -69 19 -53 43 -24 rrcurveto
          -4 vlineto
          -76 -30 -22 -67 -9 -82 rrcurveto
          -133 -14 51 -79 124 hhcurveto
          51 47 12 28 59 hvcurveto
          -27 16 24 -13 47 hhcurveto
          27 61 3 46 5 hvcurveto
          8 1 -5 64 -18 -4 -5 -4 -9 hhcurveto
          -15 0 13 30 3 hvcurveto
          17 157 rlineto
          22 hlineto
          20 -24 callgsubr
          2 17 rlineto
          35 4 -8 15 -20 hhcurveto
          -346 -220 rmoveto
          66 7 17 37 64 hhcurveto
          73 hlineto
          -19 -176 rlineto
          -19 -43 -24 -5 -28 hhcurveto
          -47 -6 35 62 6 hvcurveto
          endchar
        </CharString>
        <CharString name="aogonek">
          -30 455 -114 rmoveto
          28 callsubr
          26 11 26 hvcurveto
          38 13 19 33 39 vvcurveto
          13 -4 16 -10 vhcurveto
          -55 callsubr
          15 140 11 108 hvcurveto
          4 38 8 61 15 vvcurveto
          16 -19 9 -40 vhcurveto
          -12 hlineto
          -49 -5 -12 -34 -11 hvcurveto
          21 -18 -28 31 -54 hhcurveto
          -91 -74 -86 -175 -19 hvcurveto
          -131 -14 21 -148 116 hhcurveto
          57 35 33 44 23 hvcurveto
          8 -46 23 -22 35 -6 rrcurveto
          -16 -34 -5 -33 -20 -55 callgsubr
          -170 439 rmoveto
          -16 -159 rlineto
          -29 -9 -18 -25 -25 hhcurveto
          -42 -4 72 83 9 hvcurveto
          110 12 24 37 39 hhcurveto
          19 12 -8 callsubr
        </CharString>
        <CharString name="approxequal">
          -73 221 296 rmoveto
          -8 27 29 -8 22 hhcurveto
          -56 callgsubr
          -12 -192 rmoveto
          -8 27 29 -8 22 hhcurveto
          -56 callgsubr
          endchar
        </CharString>
        <CharString name="aring">
          -30 268 550 -74 callgsubr
          -121 -621 -105 callgsubr
        </CharString>
        <CharString name="aringacute">
          -30 290 765 rmoveto
          -105 callsubr
          -15 -215 -74 callgsubr
          -128 -621 -105 callgsubr
        </CharString>
        <CharString name="arrowdown">
          18 499 355 rmoveto
          -197 -178 52 500 rlineto
          21 3 -12 11 -31 hhcurveto
          -19 hlineto
          -31 -14 -11 -21 -3 hvcurveto
          -51 -494 -149 170 -9 12 -11 -4 -2 -17 rlinecurve
          -9 -79 -3 -25 2 -8 17 -18 rlinecurve
          186 -209 rlineto
          -5 4 5 -2 8 hhcurveto
          8 5 2 5 6 hvcurveto
          230 210 18 17 5 11 3 23 rlinecurve
          9 80 2 14 -13 3 -9 -8 rlinecurve
          endchar
        </CharString>
        <CharString name="arrowleft">
          89 562 311 rmoveto
          -373 hlineto
          166 179 rlineto
          24 23 -3 13 -32 hhcurveto
          -65 hlineto
          -24 -15 -7 -15 -15 hvcurveto
          -211 -225 -6 -5 -2 -5 -1 -8 rlinecurve
          -1 -8 1 -4 5 -6 164 -223 rcurveline
          -15 12 13 -7 24 hhcurveto
          57 hlineto
          29 8 12 26 -19 hvcurveto
          -125 167 rlineto
          379 hlineto
          21 13 13 31 3 hvcurveto
          2 19 rlineto
          31 3 -10 13 -21 hhcurveto
          endchar
        </CharString>
        <CharString name="arrowright">
          89 585 282 rmoveto
          -164 223 rlineto
          15 -12 -13 7 -24 hhcurveto
          -57 hlineto
          -29 -8 -12 -26 19 hvcurveto
          125 -167 rlineto
          -379 hlineto
          -21 -13 -13 -31 -3 hvcurveto
          -2 -19 rlineto
          -31 -3 10 -13 21 hhcurveto
          374 hlineto
          -166 -179 rlineto
          -24 -23 3 -13 32 hhcurveto
          64 hlineto
          24 15 7 15 15 hvcurveto
          211 225 6 5 2 5 1 8 rlinecurve
          1 8 -1 4 -5 6 rrcurveto
          endchar
        </CharString>
        <CharString name="arrowup">
          -6 502 493 rmoveto
          -186 209 rlineto
          5 -4 -5 2 -8 hhcurveto
          -8 -5 -2 -5 -6 hvcurveto
          -230 -210 -18 -17 -5 -11 -3 -23 rlinecurve
          -9 -80 -2 -14 13 -3 9 8 rlinecurve
          197 178 -52 -500 rlineto
          -21 -3 12 -11 31 hhcurveto
          19 hlineto
          31 14 11 21 3 hvcurveto
          51 494 149 -170 9 -12 11 4 2 17 rlinecurve
          9 79 3 25 -2 8 -17 18 rlinecurve
          endchar
        </CharString>
        <CharString name="asciicircum">
          -151 348 348 rmoveto
          -74 308 rlineto
          21 -4 -11 9 -18 hhcurveto
          -31 hlineto
          -18 -13 -9 -21 -10 hvcurveto
          -138 -308 rlineto
          -3 -6 -1 -5 -4 vvcurveto
          -9 -1 7 -6 20 hhcurveto
          26 hlineto
          25 17 9 21 8 hvcurveto
          85 213 35 -213 rlineto
          -21 3 18 -9 25 hhcurveto
          25 hlineto
          21 8 6 9 1 hvcurveto
          4 -1 5 -1 6 vhcurveto
          endchar
        </CharString>
        <CharString name="asciitilde">
          -74 291 218 rmoveto
          -56 callgsubr
          -8 27 29 -8 22 hhcurveto
          endchar
        </CharString>
        <CharString name="asterisk">
          -212 95 412 rmoveto
          7 1 9 4 9 12 52 72 rcurveline
          38 -72 5 -11 8 -5 8 -1 rlinecurve
          13 21 14 12 3 hvcurveto
          7 -1 7 -6 10 vhcurveto
          -40 78 67 24 14 6 9 6 1 11 rlinecurve
          18 2 -9 19 -18 hhcurveto
          -4 -4 0 -3 -8 hvcurveto
          -58 -21 8 78 rlineto
          21 2 -8 9 -21 hhcurveto
          -21 -10 -9 -60 callgsubr
          -8 -78 -55 21 rlineto
          3 -7 -5 0 -4 hhcurveto
          -21 -9 -23 -14 -2 hvcurveto
          -1 -11 7 -6 14 -6 60 -24 rcurveline
          -55 -78 -8 -10 -4 -7 1 -7 rlinecurve
          -12 -2 19 -14 14 hhcurveto
          endchar
        </CharString>
        <CharString name="at">
          281 441 708 rmoveto
          -217 -169 -204 -265 -214 111 -148 162 43 98 11 39 23 -5 10 -9 hvcurveto
          -18 -32 -29 -71 hhcurveto
          -130 -85 124 182 236 141 181 179 134 90 -106 -168 -127 -49 -112 -54 -19 -9 13 20 hvcurveto
          26 26 269 10 vvcurveto
          13 -12 11 -35 vhcurveto
          -12 hlineto
          -35 -7 -10 -27 -8 hvcurveto
          17 -15 -30 25 -39 hhcurveto
          -92 -64 -108 -161 -118 45 -63 66 43 34 26 34 18 hvcurveto
          -35 13 34 -25 51 hhcurveto
          122 92 145 180 196 -114 129 -172 hvcurveto
          -30 -518 rmoveto
          -16 -11 -13 -15 -17 hhcurveto
          -24 -12 19 69 107 23 56 38 14 11 -8 -10 9 hvcurveto
          -10 -59 -6 -91 -2 -52 rrcurveto
          endchar
        </CharString>
        <CharString name="atilde">
          -30 140 580 rmoveto
          -104 callgsubr
          26 -592 -105 callgsubr
        </CharString>
        <CharString name="b">
          264 -8 rmoveto
          90 72 96 172 18 hvcurveto
          176 19 -51 95 -105 hhcurveto
          -39 -29 -15 -15 -19 hvcurveto
          24 221 -60 callsubr
          -73 -692 rlineto
          -21 -2 17 -11 42 hhcurveto
          12 hlineto
          30 19 4 22 8 hvcurveto
          12 38 rlineto
          -40 17 39 -30 47 hhcurveto
          -36 121 rmoveto
          -21 -14 15 19 -10 hvcurveto
          27 252 rlineto
          8 11 14 7 18 hhcurveto
          38 16 -33 -120 -13 hvcurveto
          -110 -11 -20 -38 -35 hhcurveto
          endchar
        </CharString>
        <CharString name="backslash">
          -222 188 -22 rmoveto
          39 hlineto
          24 14 9 14 2 hvcurveto
          4 -1 4 -1 26 vhcurveto
          -92 636 rlineto
          21 -3 -15 10 -26 hhcurveto
          -36 hlineto
          -25 -13 -9 -14 -2 hvcurveto
          -1 -4 1 -3 1 -20 90 -643 rcurveline
          -21 3 16 -10 25 hhcurveto
          endchar
        </CharString>
        <CharString name="bar">
          -311 160 768 rmoveto
          -15 hlineto
          -35 -16 -9 -60 callgsubr
          -89 -846 rlineto
          -21 -2 14 -9 35 hhcurveto
          15 hlineto
          35 16 9 -27 callgsubr
          89 846 rlineto
          21 2 -14 9 -35 hhcurveto
          endchar
        </CharString>
        <CharString name="baraccent">
          -194 66 270 -85 callsubr
          endchar
        </CharString>
        <CharString name="baraccentlong">
          6 571 365 rmoveto
          -616 7 callgsubr
          616 7 callsubr
          endchar
        </CharString>
        <CharString name="baraccentmedium">
          -94 391 365 rmoveto
          -356 7 callgsubr
          356 7 callsubr
          endchar
        </CharString>
        <CharString name="braceleft">
          -262 130 -138 rmoveto
          39 hlineto
          21 10 12 28 3 hvcurveto
          2 14 3 27 -8 12 -19 1 rlinecurve
          -1 hlineto
          -17 -6 12 24 3 hvcurveto
          19 187 7 66 -15 48 -34 22 rlinecurve
          39 22 25 48 7 66 20 187 rcurveline
          26 2 9 10 21 hhcurveto
          -2 hlineto
          18 1 10 13 3 26 1 14 rcurveline
          28 3 -8 12 -21 hhcurveto
          -39 hlineto
          -58 -46 -48 -68 -7 hvcurveto
          -19 -185 -6 -55 -13 -28 -27 -13 rlinecurve
          -21 -11 -11 -13 -3 -26 -1 -12 rcurveline
          -3 -26 9 -13 18 -11 24 -13 7 -28 -5 -55 -20 -185 rcurveline
          -68 -7 36 -48 58 hhcurveto
          endchar
        </CharString>
        <CharString name="braceright">
          -262 -4 -138 rmoveto
          39 hlineto
          58 46 48 68 7 hvcurveto
          20 185 5 55 12 28 29 13 rlinecurve
          20 11 11 13 3 26 1 12 rcurveline
          3 26 -9 13 -17 11 -26 13 -6 28 6 55 19 185 rcurveline
          68 7 -36 48 -58 hhcurveto
          -39 hlineto
          -21 -10 -12 10 callsubr
          -3 -26 6 -13 18 -1 rlinecurve
          -1 hlineto
          21 6 -10 -26 -2 hvcurveto
          -20 -187 -7 -66 15 -48 35 -22 rlinecurve
          -40 -22 -25 -48 -7 -66 -19 -187 rcurveline
          -24 -3 -8 -12 -17 hhcurveto
          -1 hlineto
          -19 -1 -10 -12 -3 -27 -2 -14 rcurveline
          -28 -3 8 -12 21 hhcurveto
          endchar
        </CharString>
        <CharString name="bracketleft">
          -272 28 -138 rmoveto
          106 hlineto
          21 9 12 28 3 5 callsubr
          28 3 -7 12 -21 hhcurveto
          -30 hlineto
          75 716 rlineto
          30 hlineto
          21 10 12 28 2 5 callsubr
          28 3 -7 12 -21 hhcurveto
          -106 hlineto
          -26 -12 -12 -28 -3 hvcurveto
          -87 -826 rlineto
          -28 -3 10 -12 26 hhcurveto
          endchar
        </CharString>
        <CharString name="bracketright">
          -272 20 -138 rmoveto
          106 hlineto
          26 12 12 28 3 hvcurveto
          87 826 rlineto
          28 3 -10 12 -26 hhcurveto
          -106 hlineto
          -20 -10 -12 -28 -3 hvcurveto
          -2 -15 rlineto
          -28 -2 7 -12 20 hhcurveto
          31 hlineto
          -75 -716 rlineto
          -31 hlineto
          -20 -10 -12 -28 -3 hvcurveto
          -2 -15 rlineto
          -28 -3 8 -12 20 hhcurveto
          endchar
        </CharString>
        <CharString name="breve">
          -255 159 -79 callsubr
          endchar
        </CharString>
        <CharString name="brokenbar">
          -311 161 770 rmoveto
          -15 hlineto
          -35 -16 -77 callgsubr
          -12 -110 -23 -213 -8 vvcurveto
          -18 15 -9 32 vhcurveto
          15 hlineto
          34 18 -29 callgsubr
          11 109 23 207 10 vvcurveto
          20 -10 12 -37 vhcurveto
          -54 -520 rmoveto
          -15 hlineto
          -35 -17 -77 callgsubr
          -11 -109 -23 -206 -11 vvcurveto
          -21 10 -11 37 vhcurveto
          15 hlineto
          35 16 -29 callgsubr
          11 109 23 205 12 vvcurveto
          21 -10 11 -36 vhcurveto
          endchar
        </CharString>
        <CharString name="bullet">
          -213 142 194 rmoveto
          66 59 42 90 10 hvcurveto
          90 9 -50 43 -66 hhcurveto
          -67 -59 -43 -90 -9 hvcurveto
          -90 -10 50 -42 67 hhcurveto
          endchar
        </CharString>
        <CharString name="c">
          -103 218 -8 -82 callsubr
        </CharString>
        <CharString name="cacute">
          -103 226 575 rmoveto
          -105 callsubr
          -8 -583 -82 callsubr
        </CharString>
        <CharString name="cacute.loclPLK">
          -103 236 575 -76 callgsubr
          -18 -583 -82 callsubr
        </CharString>
        <CharString name="caron">
          -255 155 572 -103 callsubr
          endchar
        </CharString>
        <CharString name="caron.alt">
          -255 109 511 -42 callsubr
          endchar
        </CharString>
        <CharString name="ccaron">
          -103 257 572 -103 callsubr
          -39 -580 -82 callsubr
        </CharString>
        <CharString name="ccedilla">
          -103 278 531 rmoveto
          -148 -78 -94 -177 -18 hvcurveto
          -17 -165 51 -86 113 -15 rrcurveto
          -16 -47 -7 -18 -8 -65 callgsubr
          12 42 55 7 71 25 3 35 rlinecurve
          22 2 -16 54 -22 hhcurveto
          -4 -6 -3 -4 -9 hvcurveto
          -7 -16 -25 -14 -32 hhcurveto
          -51 -23 40 113 12 hvcurveto
          112 12 32 40 53 hhcurveto
          29 20 -12 -8 14 hvcurveto
          -5 7 6 -3 5 hhcurveto
          20 31 55 -27 callgsubr
          37 4 -69 32 -73 hhcurveto
          endchar
        </CharString>
        <CharString name="ccircumflex">
          -103 156 572 -107 callsubr
          62 -580 -82 callsubr
        </CharString>
        <CharString name="cdotaccent">
          -103 262 -82 callgsubr
          -44 -586 -82 callsubr
        </CharString>
        <CharString name="cedilla">
          -255 161 -48 rmoveto
          17 58 rlineto
          -64 hlineto
          -21 -59 -8 -21 -9 -65 callgsubr
          endchar
        </CharString>
        <CharString name="cent">
          -71 309 529 rmoveto
          4 42 rlineto
          14 -4 6 -14 vhcurveto
          -17 hlineto
          -15 -5 -6 -14 -2 hvcurveto
          -4 -41 -131 -11 -70 -93 -17 -166 rlinecurve
          -18 -172 56 -86 123 -9 -5 -48 rcurveline
          -14 3 -6 15 vhcurveto
          17 hlineto
          13 7 6 14 2 hvcurveto
          5 50 54 8 66 25 3 33 rlinecurve
          22 2 -16 54 -22 hhcurveto
          -4 -6 -3 -4 -9 hvcurveto
          -13 -6 -19 -10 -24 -4 32 303 rcurveline
          22 -3 15 -9 12 -7 rrcurveto
          -5 7 6 -3 5 hhcurveto
          20 31 55 -27 callgsubr
          3 32 -50 28 -60 7 rrcurveto
          -124 -267 rmoveto
          8 77 18 43 27 19 -29 -280 rcurveline
          -24 19 -8 43 8 79 rrcurveto
          endchar
        </CharString>
        <CharString name="circumflex">
          -255 55 572 -107 callsubr
          endchar
        </CharString>
        <CharString name="colon">
          -323 88 369 -57 callsubr
          -39 -371 -57 callsubr
          endchar
        </CharString>
        <CharString name="comma">
          -323 -9 -125 -10 callsubr
        </CharString>
        <CharString name="commaaccentinvert">
          -158 186 764 rmoveto
          -29 -60 -78 -67 -25 12 -19 33 hvcurveto
          -1 callsubr
          vhcurveto
          endchar
        </CharString>
        <CharString name="copyright">
          81 -20 callsubr
          8 96 rmoveto
          23 77 13 34 9 -13 40 -20 hvcurveto
          -6 -22 -23 -39 hhcurveto
          -38 -18 44 84 83 18 42 38 hvcurveto
          41 14 -18 6 hhcurveto
          14 22 37 16 23 -59 16 -36 -97 -48 -66 -133 -138 46 -63 97 hvcurveto
          endchar
        </CharString>
        <CharString name="currency">
          -49 79 72 rmoveto
          9 9 4 8 8 hvcurveto
          21 19 rlineto
          -16 24 28 -9 30 hhcurveto
          31 30 9 18 28 hvcurveto
          17 -21 rlineto
          -8 8 8 -4 8 hhcurveto
          9 9 4 8 8 hvcurveto
          33 30 9 8 5 9 1 8 rlinecurve
          1 9 -3 8 -7 8 -26 30 rcurveline
          15 29 11 32 4 34 4 36 -5 33 -11 30 38 34 rcurveline
          9 8 5 9 8 vvcurveto
          1 9 -3 8 -7 8 -27 30 rcurveline
          27 callgsubr
          -29 -27 rlineto
          16 -23 -27 9 -30 hhcurveto
          -29 -28 -9 -15 -25 hvcurveto
          -24 26 rlineto
          27 callgsubr
          -33 -30 -9 -8 -5 -8 -1 -9 rlinecurve
          -8 3 -9 7 -8 vhcurveto
          29 -32 -19 -30 -11 -35 -4 -36 rlinecurve
          -4 -35 5 -33 10 -30 -30 -27 rcurveline
          -9 -8 -5 -8 -1 -9 -1 -8 3 -9 7 -8 27 -30 rcurveline
          -8 8 8 -4 8 hhcurveto
          141 120 rmoveto
          -35 -25 32 65 7 hvcurveto
          65 7 31 32 35 hhcurveto
          35 24 -32 -65 -7 hvcurveto
          -65 -7 -30 -32 -35 hhcurveto
          endchar
        </CharString>
        <CharString name="d">
          -30 -75 callgsubr
          63 121 -17 callsubr
        </CharString>
        <CharString name="dagger">
          24 callsubr
          55 518 -17 callgsubr
          -55 -518 rlineto
          -21 -2 11 -11 31 hhcurveto
          endchar
        </CharString>
        <CharString name="daggerdbl">
          24 callsubr
          16 150 rlineto
          95 hlineto
          21 10 5 callgsubr
          1 7 rlineto
          35 4 -7 15 -21 hhcurveto
          -95 hlineto
          28 261 -17 callgsubr
          -28 -261 rlineto
          -96 2 callsubr
          -1 -7 rlineto
          -35 -3 7 -15 20 hhcurveto
          96 hlineto
          -16 -150 rlineto
          -21 -2 11 -11 31 hhcurveto
          endchar
        </CharString>
        <CharString name="dcaron">
          -30 -75 callgsubr
          374 519 -42 callsubr
          -311 -398 -17 callsubr
        </CharString>
        <CharString name="dcroat">
          -30 486 678 rmoveto
          -13 hlineto
          2 15 2 15 1 14 rrcurveto
          -71 callsubr
          -5 -44 rlineto
          -30 hlineto
          -20 -10 -12 -28 -3 hvcurveto
          -2 -15 rlineto
          -28 -2 7 -12 20 hhcurveto
          30 hlineto
          -8 -81 rlineto
          16 -17 -25 13 -37 hhcurveto
          -105 -72 -95 -172 -18 hvcurveto
          -177 -19 54 -95 86 hhcurveto
          53 43 35 44 22 hvcurveto
          -56 8 31 -23 48 -32 callsubr
          18 26 237 21 195 hvcurveto
          13 hlineto
          21 10 12 28 2 5 callsubr
          28 3 -7 12 -21 hhcurveto
          -216 -525 rmoveto
          -22 -13 -18 -18 -22 hhcurveto
          -34 -12 42 106 11 hvcurveto
          112 12 23 41 39 hhcurveto
          18 13 -7 -7 9 hvcurveto
          endchar
        </CharString>
        <CharString name="degree">
          -235 157 443 rmoveto
          58 52 39 93 10 hvcurveto
          93 10 -44 40 -58 hhcurveto
          -58 -52 -40 -93 -10 hvcurveto
          -93 -10 44 -39 58 hhcurveto
          6 62 rmoveto
          -22 -17 21 49 5 hvcurveto
          49 5 21 22 22 hhcurveto
          22 17 -22 -49 -5 hvcurveto
          -49 -5 -21 -21 -22 hhcurveto
          endchar
        </CharString>
        <CharString name="dieresis">
          -255 82 578 -102 callsubr
          endchar
        </CharString>
        <CharString name="divide">
          -63 223 318 rmoveto
          12 -5 callgsubr
          8 71 -74 callsubr
          -12 -81 callgsubr
          -8 -71 -26 callsubr
          -195 -146 rmoveto
          375 hlineto
          18 7 -20 callgsubr
          -4 15 -18 hhcurveto
          -375 hlineto
          -18 -8 -37 callsubr
          5 -15 18 hhcurveto
          161 -174 rmoveto
          12 hlineto
          41 -18 callsubr
          7 71 -74 callsubr
          -12 -81 callgsubr
          -7 -71 -46 callgsubr
          endchar
        </CharString>
        <CharString name="dollar">
          -71 176 -75 rmoveto
          17 hlineto
          12 8 6 14 2 hvcurveto
          5 50 rlineto
          120 16 75 79 120 vvcurveto
          100 -37 45 -114 57 vhcurveto
          18 164 17 -1 16 -4 26 -9 rlinecurve
          -3 9 12 -4 9 hhcurveto
          28 17 60 30 14 -9 12 -15 9 hvcurveto
          -24 15 -38 9 -35 3 rrcurveto
          1 13 3 22 3 vvcurveto
          14 -4 6 -14 vhcurveto
          -17 hlineto
          -14 -7 -6 -14 -1 hvcurveto
          -4 -39 rlineto
          -107 -12 -86 -76 -114 vvcurveto
          -133 83 -36 68 -34 vhcurveto
          -19 -178 -39 1 -24 12 -37 20 rlinecurve
          4 -7 -6 3 -6 hhcurveto
          -28 -24 -62 -35 1 hvcurveto
          -27 35 -20 31 -11 vhcurveto
          26 -9 30 -6 34 -1 rrcurveto
          -2 -16 -3 -26 -5 vvcurveto
          -14 3 -6 15 vhcurveto
          34 515 rmoveto
          -18 13 -11 17 23 vvcurveto
          23 3 36 39 16 vhcurveto
          12 -435 rmoveto
          14 138 rlineto
          18 -14 12 -17 -25 vvcurveto
          -47 -19 -24 -25 -11 vhcurveto
          endchar
        </CharString>
        <CharString name="dotaccent">
          -255 164 -82 callgsubr
          endchar
        </CharString>
        <CharString name="dotbelowcomb">
          -511 -47 -204 rmoveto
          -106 callsubr
          endchar
        </CharString>
        <CharString name="dotlessi">
          -257 123 -8 -94 callsubr
          endchar
        </CharString>
        <CharString name="e">
          -57 441 386 -97 callgsubr
        </CharString>
        <CharString name="eacute">
          -57 244 575 rmoveto
          -105 callsubr
          197 -189 -97 callgsubr
        </CharString>
        <CharString name="ebreve">
          -57 278 -79 callsubr
          163 -189 -97 callgsubr
        </CharString>
        <CharString name="ecaron">
          -57 222 591 rmoveto
          -17 9 17 -2 27 hhcurveto
          6 hlineto
          26 18 2 17 13 hvcurveto
          70 100 rlineto
          5 7 4 7 3 vvcurveto
          7 1 -7 3 -13 hhcurveto
          -28 hlineto
          -26 -19 -5 -13 -8 hvcurveto
          -31 -46 -21 45 rlineto
          14 -8 -15 5 -25 hhcurveto
          -27 hlineto
          -14 -7 -3 -7 -1 hvcurveto
          -3 2 -7 3 -7 vhcurveto
          268 -305 -97 callgsubr
        </CharString>
        <CharString name="ecircumflex">
          -54 callgsubr
          endchar
        </CharString>
        <CharString name="edieresis">
          -57 199 578 -102 callsubr
          80 -192 -97 callgsubr
        </CharString>
        <CharString name="edotaccent">
          -57 280 -82 callgsubr
          161 -192 -97 callgsubr
        </CharString>
        <CharString name="egrave">
          -57 304 575 -97 callsubr
          137 -189 -97 callgsubr
        </CharString>
        <CharString name="eight">
          -52 203 -8 rmoveto
          147 67 104 99 10 hvcurveto
          11 100 -38 51 -48 33 43 24 46 40 9 89 rrcurveto
          101 11 -60 75 -120 hhcurveto
          -127 -78 -78 -106 -11 hvcurveto
          -9 -77 30 -42 38 -33 -50 -27 -47 -53 -10 -93 rrcurveto
          -111 -11 51 -96 146 hhcurveto
          57 448 rmoveto
          -30 21 -22 25 4 43 rrcurveto
          42 5 26 20 25 hhcurveto
          25 18 -22 -42 -4 hvcurveto
          -4 -36 -16 -29 -27 -22 rrcurveto
          -46 -331 rmoveto
          -34 -20 28 66 7 hvcurveto
          5 50 16 29 26 23 38 -26 31 -29 -7 -61 rrcurveto
          -40 -4 -22 -40 -36 hhcurveto
          endchar
        </CharString>
        <CharString name="ellipsis">
          41 51 -2 rmoveto
          27 hlineto
          41 -18 callsubr
          9 92 20 callgsubr
          -41 hhcurveto
          -27 -38 callsubr
          185 hmoveto
          27 hlineto
          41 -18 callsubr
          9 92 20 callgsubr
          -41 hhcurveto
          -27 -38 callsubr
          185 hmoveto
          28 hlineto
          40 -18 callsubr
          9 92 20 callgsubr
          -40 hhcurveto
          -28 -38 callsubr
          endchar
        </CharString>
        <CharString name="emacron">
          -57 185 597 -85 callsubr
          256 -211 -97 callgsubr
        </CharString>
        <CharString name="emdash">
          375 24 212 rmoveto
          828 hlineto
          20 10 -20 callgsubr
          -7 15 -20 hhcurveto
          -828 hlineto
          -20 -11 -37 callsubr
          8 -15 20 hhcurveto
          endchar
        </CharString>
        <CharString name="endash">
          -68 24 212 rmoveto
          385 hlineto
          20 10 -20 callgsubr
          -7 15 -20 hhcurveto
          -385 hlineto
          -20 -11 -37 callsubr
          8 -15 20 hhcurveto
          endchar
        </CharString>
        <CharString name="eng">
          246 -212 rmoveto
          76 64 53 109 11 hvcurveto
          47 442 rlineto
          91 10 -33 48 -74 hhcurveto
          -61 -48 -38 -38 -30 hvcurveto
          36 -3 6 31 -34 hhcurveto
          -21 -95 -7 10 callsubr
          7 -26 -10 -98 -2 callsubr
          16 -11 40 hhcurveto
          35 hlineto
          39 19 10 22 2 hvcurveto
          37 347 rlineto
          15 12 18 17 23 hhcurveto
          29 6 -18 -33 -3 hvcurveto
          -42 -410 rlineto
          -30 -3 -7 -13 -18 -11 -13 4 -6 hhcurveto
          -21 -15 -47 -23 -2 hvcurveto
          -39 -4 34 -12 63 hhcurveto
          endchar
        </CharString>
        <CharString name="eogonek">
          -57 425 -83 rmoveto
          -26 callgsubr
          20 4 25 11 25 hvcurveto
          8 6 7 6 4 8 rrcurveto
          9 16 4 22 20 vvcurveto
          26 -6 22 -14 vhcurveto
          -17 -34 -44 -67 hhcurveto
          -45 -32 19 81 -2 hvcurveto
          -4 20 23 -2 31 hhcurveto
          106 79 72 111 hvcurveto
          -36 callgsubr
          -167 -76 -143 -176 hvcurveto
          -135 -2 61 -85 141 hhcurveto
          18 23 2 5 23 hvcurveto
          -8 -24 -3 -22 -15 -55 callgsubr
          -158 497 rmoveto
          25 15 -14 -33 -52 -34 -23 -54 hvcurveto
          -30 hlineto
          68 12 23 54 43 hhcurveto
          endchar
        </CharString>
        <CharString name="equal">
          -62 55 267 rmoveto
          342 hlineto
          17 7 -20 callgsubr
          -4 15 -17 hhcurveto
          -342 hlineto
          -18 -8 -37 callsubr
          5 -15 18 hhcurveto
          -19 -181 rmoveto
          342 hlineto
          17 7 -20 callgsubr
          -4 15 -17 hhcurveto
          -342 15 callsubr
        </CharString>
        <CharString name="estimated">
          104 312 707 rmoveto
          -159 -131 -125 -227 -232 135 -130 163 81 77 39 65 55 hvcurveto
          6 8 4 6 8 vvcurveto
          11 -15 16 -13 -8 -6 -6 -9 -8 vhcurveto
          -52 -38 -74 -31 -61 hhcurveto
          -48 -44 12 25 -37 hvcurveto
          270 402 vlineto
          227 -127 125 -154 vhcurveto
          -121 -85 rmoveto
          23 35 41 12 45 hhcurveto
          42 39 -12 -24 35 hvcurveto
          -216 -237 vlineto
          endchar
        </CharString>
        <CharString name="eth">
          -34 419 670 rmoveto
          -3 -28 -4 -5 -38 hvcurveto
          -12 18 -11 15 -12 10 rrcurveto
          7 -11 -11 4 -15 hhcurveto
          -22 -2 -20 -3 -21 -2 rrcurveto
          -13 -2 -7 -4 -6 vvcurveto
          -1 -8 22 -26 11 -17 -43 -6 rcurveline
          -16 -2 -6 -5 -1 -9 rrcurveto
          -21 -2 17 -21 20 hhcurveto
          3 3 0 8 55 hvcurveto
          10 -22 8 -20 7 -22 rrcurveto
          1 -5 -6 0 -5 hhcurveto
          -135 -79 -93 -171 -18 hvcurveto
          -174 -18 70 -96 124 hhcurveto
          145 70 96 174 18 hvcurveto
          14 135 -34 132 -41 77 47 6 rcurveline
          14 2 8 5 1 9 rrcurveto
          20 2 -18 22 -17 hhcurveto
          -126 -408 rmoveto
          -113 -12 -19 -40 -39 hhcurveto
          -40 -11 40 113 12 hvcurveto
          109 12 19 38 40 hhcurveto
          39 11 -38 -109 -12 hvcurveto
          endchar
        </CharString>
        <CharString name="exclam">
          -265 104 222 rmoveto
          8 hlineto
          43 6 11 21 5 hvcurveto
          32 140 32 140 31 140 rrcurveto
          18 2 -21 10 -36 hhcurveto
          -46 -81 callgsubr
          -44 -416 rlineto
          -21 -2 8 -11 43 hhcurveto
          -38 -224 -57 callsubr
          endchar
        </CharString>
        <CharString name="exclamdown">
          -265 134 369 -57 callsubr
          -91 -549 rmoveto
          46 -5 callgsubr
          44 416 rlineto
          21 2 -7 11 -43 hhcurveto
          -9 hlineto
          -43 -5 -11 -21 -5 hvcurveto
          -33 -140 -61 -259 -2 -21 rrcurveto
          -18 -2 21 -10 36 hhcurveto
          endchar
        </CharString>
        <CharString name="f">
          -225 94 -2 -3 callsubr
          40 376 rlineto
          33 hlineto
          21 -31 callgsubr
          4 -8 15 -21 hhcurveto
          -33 -70 callgsubr
          endchar
        </CharString>
        <CharString name="f_f">
          61 541 760 rmoveto
          -91 -55 -51 -111 -12 hvcurveto
          -8 -75 rlineto
          -138 -70 callgsubr
          28 -35 callgsubr
          40 376 rlineto
          138 hlineto
          -40 -376 rlineto
          -21 -2 17 -11 42 hhcurveto
          28 -35 callgsubr
          40 376 rlineto
          33 hlineto
          21 -31 callgsubr
          4 -8 15 -21 hhcurveto
          -33 hlineto
          8 77 rlineto
          30 3 11 13 22 8 12 -5 7 hhcurveto
          20 18 64 8 1 hvcurveto
          40 4 -66 10 -30 hhcurveto
          endchar
        </CharString>
        <CharString name="f_t">
          73 527 406 rmoveto
          39 19 60 37 14 -2 6 -14 hvcurveto
          -49 hlineto
          10 96 rlineto
          -23 callsubr
          -10 -95 rlineto
          -12 hlineto
          -1 hlineto
          -122 -70 callgsubr
          28 -35 callgsubr
          40 376 rlineto
          135 hlineto
          -15 -140 -15 -131 -22 9 callgsubr
          7 9 88 20 179 hvcurveto
          endchar
        </CharString>
        <CharString name="fi">
          29 493 12 callsubr
          29 14 106 23 226 hvcurveto
          16 -17 13 -40 vhcurveto
          -209 -70 callgsubr
          28 -35 callgsubr
          40 376 rlineto
          121 hlineto
          -9 -83 -11 -109 -8 -72 rrcurveto
          -66 callsubr
          -85 callgsubr
          vhcurveto
          -44 589 rmoveto
          -63 callsubr
        </CharString>
        <CharString name="five">
          -52 168 -8 rmoveto
          108 126 55 169 18 hvcurveto
          172 18 -82 52 -134 hhcurveto
          -15 hlineto
          25 143 rlineto
          174 hlineto
          21 10 12 28 3 hvcurveto
          3 27 3 callgsubr
          -267 hlineto
          -29 -12 -12 -28 -5 hvcurveto
          -50 -297 rlineto
          -28 -3 6 -12 29 hhcurveto
          94 hlineto
          74 22 -41 -70 -7 hvcurveto
          -65 -7 -37 -38 -51 -67 -38 34 -9 hhcurveto
          -23 -38 -61 -18 -2 hvcurveto
          -40 -4 71 -32 103 hhcurveto
          endchar
        </CharString>
        <CharString name="fl">
          45 94 -2 -3 callsubr
          40 376 rlineto
          33 hlineto
          21 -31 callgsubr
          4 -8 15 -21 hhcurveto
          -33 -70 callgsubr
          345 -6 -13 callsubr
        </CharString>
        <CharString name="florin">
          -182 262 760 rmoveto
          -94 -63 -60 -102 -12 hvcurveto
          -9 -75 rlineto
          -21 hlineto
          -31 -9 -39 -49 -20 8 -9 16 hvcurveto
          20 hlineto
          -80 -581 rlineto
          -16 17 -15 40 vhcurveto
          28 hlineto
          39 21 11 21 3 hvcurveto
          80 580 rlineto
          30 hlineto
          37 25 60 37 14 -2 6 -14 hvcurveto
          -60 hlineto
          11 77 rlineto
          29 4 13 14 25 20 5 -5 8 hhcurveto
          19 20 65 13 36 -47 8 -47 hvcurveto
          endchar
        </CharString>
        <CharString name="four">
          -52 276 -2 rmoveto
          28 hlineto
          42 -14 callsubr
          11 112 rlineto
          27 hlineto
          21 11 10 callgsubr
          17 rlineto
          35 4 -7 15 -21 hhcurveto
          -27 hlineto
          43 411 -6 callgsubr
          -51 hlineto
          -29 -23 -1 -23 -13 hvcurveto
          -261 -432 -1 -2 -1 -4 -1 -5 rlinecurve
          -27 -3 13 -66 17 hhcurveto
          206 hlineto
          -11 -112 3 callsubr
          -137 261 rmoveto
          134 235 4 -1 -12 -53 -8 -42 -4 -42 rlinecurve
          -10 -97 rlineto
          endchar
        </CharString>
        <CharString name="fraction">
          -247 374 700 rmoveto
          -17 hlineto
          -21 -15 -9 -17 -11 hvcurveto
          -427 -648 rlineto
          -5 -7 -2 -5 -5 vvcurveto
          -7 7 -2 13 vhcurveto
          17 hlineto
          20 14 7 19 13 hvcurveto
          427 648 rlineto
          5 7 2 4 5 vvcurveto
          6 -7 4 -13 vhcurveto
          endchar
        </CharString>
        <CharString name="g">
          -40 393 525 -87 callgsubr
        </CharString>
        <CharString name="g.ss01">
          -40 187 -212 -94 callgsubr
        </CharString>
        <CharString name="gbreve">
          -40 268 -79 callsubr
          125 -50 -87 callgsubr
        </CharString>
        <CharString name="gbreve.ss01">
          -40 272 -79 callsubr
          -85 -787 -94 callgsubr
        </CharString>
        <CharString name="gcircumflex">
          -40 164 572 -107 callsubr
          229 -47 -87 callgsubr
        </CharString>
        <CharString name="gcircumflex.ss01">
          -40 168 572 -107 callsubr
          19 -784 -94 callgsubr
        </CharString>
        <CharString name="gcommaaccent">
          -40 259 575 rmoveto
          -1 callsubr
          -29 -60 -78 -67 -25 12 -19 33 vhcurveto
          134 -50 -87 callgsubr
        </CharString>
        <CharString name="gcommaaccent.ss01">
          -40 307 764 rmoveto
          -29 -60 -78 -67 -25 12 -19 33 hvcurveto
          -1 callsubr
          vhcurveto
          -120 -976 -94 callgsubr
        </CharString>
        <CharString name="gdotaccent">
          -40 270 -82 callgsubr
          123 -53 -87 callgsubr
        </CharString>
        <CharString name="gdotaccent.ss01">
          -40 274 -82 callgsubr
          -87 -790 -94 callgsubr
        </CharString>
        <CharString name="germandbls">
          -31 79 -2 rmoveto
          28 hlineto
          42 -14 callsubr
          51 489 rlineto
          39 4 23 25 34 hhcurveto
          35 9 -28 -54 -6 hvcurveto
          -55 -6 -19 -29 -26 hhcurveto
          -3 hlineto
          -18 -10 -17 -33 -4 hvcurveto
          -2 -17 rlineto
          -35 -3 7 -15 21 hhcurveto
          2 hlineto
          36 19 -25 -70 -7 hvcurveto
          -66 -7 -22 -22 -32 hhcurveto
          -8 21 callsubr
          17 hlineto
          117 79 70 135 14 hvcurveto
          10 92 -26 45 -56 30 rrcurveto
          4 vlineto
          52 25 32 52 8 71 rrcurveto
          127 13 -80 57 -111 hhcurveto
          -127 -83 -80 -127 -14 hvcurveto
          -49 -471 3 callsubr
          endchar
        </CharString>
        <CharString name="grave">
          -255 193 575 -97 callsubr
          endchar
        </CharString>
        <CharString name="gravecomb">
          -511 17 575 -97 callsubr
          endchar
        </CharString>
        <CharString name="greater">
          -63 5 52 rmoveto
          -3 -32 0 -18 33 17 346 174 rcurveline
          19 10 8 11 1 22 1 19 rcurveline
          1 21 -2 11 -17 10 -309 173 rcurveline
          -24 13 -7 -4 -4 -41 -2 -16 rcurveline
          -4 -42 1 -10 21 -11 201 -107 rcurveline
          -227 -117 -25 -13 -2 -15 -4 -39 rlinecurve
          endchar
        </CharString>
        <CharString name="greaterequal">
          -58 21 171 rmoveto
          -5 -42 4 -3 34 15 339 153 rcurveline
          19 9 10 11 2 21 2 19 rcurveline
          2 21 -7 11 -17 9 -312 154 rcurveline
          -29 14 0 -9 -3 -37 -1 -11 rcurveline
          -3 -31 3 -15 17 -10 192 -106 rcurveline
          -215 -106 -23 -12 -4 -8 -2 -21 rlinecurve
          3 -197 -7 callgsubr
        </CharString>
        <CharString name="guillemotleft">
          -40 110 249 rmoveto
          17 callgsubr
          33 callgsubr
          -26 -25 -10 -38 18 -25 8 callsubr
          rrcurveto
          211 370 rmoveto
          33 callgsubr
          -23 -22 -15 -35 20 -31 8 callsubr
          -85 150 rcurveline
          17 callgsubr
          endchar
        </CharString>
        <CharString name="guillemotright">
          -40 267 301 rmoveto
          -14 callgsubr
          23 22 15 35 -20 31 rlinecurve
          199 hmoveto
          -14 callgsubr
          26 25 10 38 -18 25 rlinecurve
          endchar
        </CharString>
        <CharString name="guilsinglleft">
          -264 140 47 rmoveto
          20 44 22 -27 callgsubr
          1 8 -2 6 -4 9 -75 145 rcurveline
          106 145 6 9 2 6 1 7 rlinecurve
          23 3 -40 21 -19 hhcurveto
          -9 -9 -3 -11 -8 hvcurveto
          -118 -153 -10 -15 -6 -11 -2 -18 rlinecurve
          -2 -18 4 -11 7 -15 86 -153 rcurveline
          -11 6 7 -3 9 hhcurveto
          endchar
        </CharString>
        <CharString name="guilsinglright">
          -264 61 47 rmoveto
          9 9 3 11 8 hvcurveto
          118 153 11 15 6 11 2 18 rlinecurve
          2 18 -4 11 -8 15 -86 153 rcurveline
          11 -6 -7 3 -9 hhcurveto
          -19 -44 -21 -23 -3 hvcurveto
          -1 -7 2 -6 4 -9 76 -145 rcurveline
          -107 -145 -6 -9 -2 -6 -1 -8 rlinecurve
          -21 -2 38 -22 20 hhcurveto
          endchar
        </CharString>
        <CharString name="h">
          -26 361 -8 -64 callsubr
          endchar
        </CharString>
        <CharString name="hbar">
          -26 445 12 callsubr
          20 16 137 12 102 hvcurveto
          91 11 -37 48 -73 hhcurveto
          -57 -45 -32 -36 -30 hvcurveto
          13 120 rlineto
          54 hlineto
          26 12 29 callsubr
          -26 hhcurveto
          -57 hlineto
          5 44 rlineto
          32 callsubr
          -40 hhcurveto
          -34 -36 callsubr
          -5 -44 rlineto
          -22 hlineto
          -24 -12 -12 -28 -3 hvcurveto
          -3 -15 rlineto
          -28 -2 8 -12 24 hhcurveto
          25 hlineto
          -58 -553 -46 callgsubr
          34 hlineto
          39 20 10 22 3 hvcurveto
          36 8 callgsubr
          9 -18 -33 -4 hvcurveto
          -22 -216 -53 callsubr
          -85 callgsubr
          vhcurveto
          endchar
        </CharString>
        <CharString name="hcircumflex">
          -26 71 779 -107 callsubr
          290 -787 -64 callsubr
          endchar
        </CharString>
        <CharString name="hookabovecomb">
          -511 -216 570 -89 callsubr
          endchar
        </CharString>
        <CharString name="hungarumlaut">
          -204 -11 575 -78 callsubr
          endchar
        </CharString>
        <CharString name="hyphen">
          -255 37 212 rmoveto
          171 hlineto
          20 10 -20 callgsubr
          -7 15 -20 hhcurveto
          -171 hlineto
          -20 -11 -37 callsubr
          8 -15 20 hhcurveto
          endchar
        </CharString>
        <CharString name="i">
          -257 153 -82 callgsubr
          -30 -586 -94 callsubr
          endchar
        </CharString>
        <CharString name="i.loclTRK">
          -257 155 -82 callgsubr
          -32 -586 -94 callsubr
          endchar
        </CharString>
        <CharString name="iacute">
          -257 119 575 rmoveto
          -105 callsubr
          4 -583 -94 callsubr
          endchar
        </CharString>
        <CharString name="iacute_j.loclNLD">
          -8 119 575 rmoveto
          -105 callsubr
          256 hmoveto
          -105 callsubr
          -252 -583 -94 callsubr
          144 -204 -83 callsubr
        </CharString>
        <CharString name="ibreve">
          -257 153 -79 callsubr
          -30 -583 -94 callsubr
          endchar
        </CharString>
        <CharString name="icircumflex">
          -257 49 572 -107 callsubr
          74 -580 -94 callsubr
          endchar
        </CharString>
        <CharString name="idieresis">
          -257 74 578 -102 callsubr
          -113 -586 -94 callsubr
          endchar
        </CharString>
        <CharString name="igrave">
          -257 179 575 -97 callsubr
          -56 -583 -94 callsubr
          endchar
        </CharString>
        <CharString name="ij">
          -8 153 -82 callgsubr
          256 hmoveto
          -106 callsubr
          -286 -586 -94 callsubr
          144 -204 -83 callsubr
        </CharString>
        <CharString name="imacron">
          -257 60 597 -85 callsubr
          63 -605 -94 callsubr
          endchar
        </CharString>
        <CharString name="infinity">
          119 479 448 rmoveto
          -42 -63 -15 -90 -49 hvcurveto
          55 -16 -46 50 -63 hhcurveto
          -83 -68 -68 -98 -10 hvcurveto
          -98 -10 51 -73 78 hhcurveto
          42 63 15 90 49 hvcurveto
          -55 16 46 -50 63 hhcurveto
          83 67 68 98 11 hvcurveto
          98 10 -51 73 -78 hhcurveto
          -296 -223 rmoveto
          -26 -11 24 33 3 hvcurveto
          33 4 21 22 23 hhcurveto
          16 18 -12 -49 14 hvcurveto
          -43 -24 -25 -8 -13 hhcurveto
          305 52 rmoveto
          -33 -4 -21 -22 -23 hhcurveto
          -16 -18 12 49 -14 hvcurveto
          43 24 25 8 13 hhcurveto
          26 11 -24 -33 -3 hvcurveto
          endchar
        </CharString>
        <CharString name="integral">
          -213 23 -171 rmoveto
          100 62 89 168 18 hvcurveto
          19 184 6 167 18 168 rrcurveto
          118 13 14 45 29 22 6 -8 9 hhcurveto
          18 21 34 36 4 hvcurveto
          47 5 -73 7 -21 hhcurveto
          -101 -62 -89 -168 -18 hvcurveto
          -20 -191 -5 -164 -17 -164 rrcurveto
          -118 -13 -14 -45 -30 -21 -6 8 -10 hhcurveto
          -18 -21 -34 -36 -4 hvcurveto
          -47 -5 73 -7 22 hhcurveto
          endchar
        </CharString>
        <CharString name="iogonek">
          -257 153 -82 callgsubr
          102 -672 rmoveto
          1 callsubr
          -1 hlineto
          15 17 8 22 25 vvcurveto
          13 -4 16 -10 vhcurveto
          -90 callsubr
          29 14 106 23 226 hvcurveto
          -23 callsubr
          -37 -351 -53 callsubr
          vhcurveto
          4 hlineto
          -9 -26 -3 -24 -15 -9 callgsubr
        </CharString>
        <CharString name="itilde">
          -257 35 580 rmoveto
          -78 callgsubr
          98 -591 -94 callsubr
          endchar
        </CharString>
        <CharString name="j">
          -262 155 -35 callsubr
        </CharString>
        <CharString name="jcircumflex">
          -262 51 572 -107 callsubr
          -38 -784 -83 callsubr
        </CharString>
        <CharString name="k">
          -40 callgsubr
          endchar
        </CharString>
        <CharString name="kcommaaccent">
          -40 callgsubr
          -188 -576 rmoveto
          -20 hlineto
          -41 -17 -17 -27 hvcurveto
          -80 -10 -25 -18 vvcurveto
          -16 26 -6 18 29 60 78 67 25 -12 19 -33 vhcurveto
          endchar
        </CharString>
        <CharString name="kgreenlandic">
          24 172 525 rmoveto
          -11 callsubr
          -49 -463 rlineto
          -21 14 -11 43 vhcurveto
          28 -35 callgsubr
          23 216 4 1 115 -230 rlineto
          -15 7 22 -4 29 hhcurveto
          42 hlineto
          45 13 7 11 5 -1 5 -4 8 hvcurveto
          -136 258 159 198 rlineto
          7 8 5 8 5 vvcurveto
          8 -18 6 -37 vhcurveto
          -37 hlineto
          -29 -21 -2 -17 -13 hvcurveto
          -140 -181 -4 1 18 167 rlineto
          21 -14 11 -43 vhcurveto
          endchar
        </CharString>
        <CharString name="l">
          -241 153 -8 -13 callsubr
        </CharString>
        <CharString name="lacute">
          -241 145 772 rmoveto
          -105 callsubr
          8 -780 -13 callsubr
        </CharString>
        <CharString name="lcaron">
          -241 153 -8 -73 callgsubr
          156 519 -42 callsubr
          endchar
        </CharString>
        <CharString name="lcommaaccent">
          -241 153 -8 -73 callgsubr
          -64 -232 -77 callsubr
          endchar
        </CharString>
        <CharString name="ldot">
          -241 153 -8 -73 callgsubr
          138 297 -11 callgsubr
        </CharString>
        <CharString name="less">
          -63 368 14 rmoveto
          17 -11 3 13 4 36 2 16 rcurveline
          3 33 1 15 -23 15 -193 114 rcurveline
          215 114 21 12 8 12 4 39 rlinecurve
          2 16 2 26 3 24 -32 -16 rlinecurve
          -349 -175 -18 -9 -7 -12 -3 -21 rlinecurve
          -2 -19 -2 -22 5 -12 17 -8 rlinecurve
          endchar
        </CharString>
        <CharString name="lessequal">
          -58 368 138 rmoveto
          24 -12 4 3 4 42 3 26 rcurveline
          2 21 -6 11 -15 9 -194 106 rcurveline
          215 106 16 9 9 9 4 43 rlinecurve
          1 6 5 45 -5 1 -27 -12 rlinecurve
          -344 -156 -19 -8 -8 -12 -2 -21 rlinecurve
          -2 -19 -2 -21 5 -12 17 -8 rlinecurve
          -31 -294 -7 callgsubr
        </CharString>
        <CharString name="logicalnot">
          -62 331 72 rmoveto
          40 hlineto
          26 12 -29 callgsubr
          22 205 rlineto
          28 3 -10 12 -26 hhcurveto
          -342 2 callsubr
          -1 -7 rlineto
          -35 -3 7 -15 20 hhcurveto
          266 hlineto
          -15 -138 rlineto
          -21 -2 10 -11 25 hhcurveto
          endchar
        </CharString>
        <CharString name="longs">
          -238 93 -2 rmoveto
          28 hlineto
          42 -14 callsubr
          60 570 rlineto
          30 3 10 13 22 8 13 -5 7 hhcurveto
          20 17 64 8 1 hvcurveto
          40 4 -66 10 -30 hhcurveto
          -91 -55 -51 -111 -12 hvcurveto
          -8 -75 rlineto
          -12 hlineto
          -21 -38 callgsubr
          21 hhcurveto
          12 hlineto
          -39 -376 3 callsubr
          endchar
        </CharString>
        <CharString name="lozenge">
          -65 428 372 rmoveto
          -93 313 rlineto
          20 -6 -23 5 -30 hhcurveto
          -11 hlineto
          -29 -24 -5 -20 -10 hvcurveto
          -159 -313 -5 -8 -2 -8 -1 -8 rlinecurve
          -1 -8 1 -7 3 -9 88 -307 rcurveline
          -20 6 23 -5 29 hhcurveto
          22 hlineto
          30 23 5 20 10 hvcurveto
          154 307 5 9 1 7 1 8 rlinecurve
          1 8 -1 8 -2 8 rrcurveto
          -213 -203 rmoveto
          -40 179 78 172 36 -172 rlineto
          endchar
        </CharString>
        <CharString name="lslash">
          -241 274 527 rmoveto
          -4 -5 -1 -4 -6 hvcurveto
          -33 -20 23 220 -60 callsubr
          -33 -316 -27 -16 rlineto
          -18 -11 -8 -14 -21 vvcurveto
          -20 vlineto
          -14 3 -6 7 4 5 2 4 7 vhcurveto
          18 11 -19 -177 rlineto
          -104 -11 41 -48 83 hhcurveto
          59 38 27 56 hvcurveto
          22 1 -7 16 -13 -5 -11 -4 -7 hhcurveto
          -17 -6 10 23 3 hvcurveto
          29 274 42 26 rlineto
          18 11 8 12 22 vvcurveto
          20 vlineto
          14 -4 6 -7 vhcurveto
          endchar
        </CharString>
        <CharString name="m">
          209 679 12 callsubr
          5 16 146 11 108 hvcurveto
          91 10 -33 48 -73 hhcurveto
          -64 -49 -35 -35 -29 hvcurveto
          47 -10 -32 23 -52 hhcurveto
          -62 -47 -38 -38 -30 hvcurveto
          36 -3 6 31 -34 hhcurveto
          -21 -95 -7 10 callsubr
          7 -26 -10 -98 -2 callsubr
          16 -11 40 hhcurveto
          35 hlineto
          39 19 10 22 2 hvcurveto
          37 8 callgsubr
          6 -18 -33 -3 hvcurveto
          -35 -328 -26 callsubr
          34 -5 callgsubr
          37 352 rlineto
          15 14 18 12 20 hhcurveto
          29 6 -18 -33 -3 hvcurveto
          -19 -190 -6 -55 -13 vvcurveto
          -77 38 -31 56 -85 callgsubr
          vhcurveto
          endchar
        </CharString>
        <CharString name="macron">
          -256 66 597 -85 callsubr
          endchar
        </CharString>
        <CharString name="minus">
          -62 38 172 rmoveto
          355 hlineto
          21 9 -20 callgsubr
          -6 15 -21 hhcurveto
          -355 hlineto
          -20 -11 -37 callsubr
          8 -15 20 hhcurveto
          endchar
        </CharString>
        <CharString name="multiply">
          -63 390 439 rmoveto
          -20 18 -14 12 -15 15 -21 -26 rlinecurve
          -108 -132 -83 134 -11 17 -9 -1 -32 -25 rlinecurve
          -9 -7 -29 -24 -5 -12 14 -19 rlinecurve
          91 -146 -122 -148 -18 -19 1 -12 25 -24 rlinecurve
          7 -7 26 -25 9 -4 16 16 rlinecurve
          115 140 81 -134 17 -26 17 15 16 12 rlinecurve
          24 18 21 16 6 6 -13 24 rlinecurve
          -95 153 121 145 19 24 -5 10 -17 16 rlinecurve
          endchar
        </CharString>
        <CharString name="n">
          444 113 -98 callgsubr
          endchar
        </CharString>
        <CharString name="nacute">
          238 575 rmoveto
          -105 callsubr
          206 -462 -98 callgsubr
          endchar
        </CharString>
        <CharString name="nacute.loclPLK">
          248 575 -76 callgsubr
          196 -462 -98 callgsubr
          endchar
        </CharString>
        <CharString name="napostrophe">
          70 532 -77 callsubr
          374 -419 -98 callgsubr
          endchar
        </CharString>
        <CharString name="ncaron">
          269 572 -103 callsubr
          175 -459 -98 callgsubr
          endchar
        </CharString>
        <CharString name="ncommaaccent">
          444 113 -98 callgsubr
          -242 -353 -77 callsubr
          endchar
        </CharString>
        <CharString name="nine">
          -52 86 -7 rmoveto
          12 309 67 384 40 hvcurveto
          193 20 -100 68 -100 hhcurveto
          -99 -114 -62 -162 -17 hvcurveto
          -162 -17 97 -50 62 hhcurveto
          24 26 4 20 34 hvcurveto
          -36 -99 -71 -67 -96 -30 -12 -3 -2 -4 -1 -14 rrcurveto
          -20 -3 10 -63 34 hhcurveto
          155 393 rmoveto
          -41 -19 38 61 6 hvcurveto
          61 7 29 42 30 hhcurveto
          32 23 -33 -99 -11 hvcurveto
          -2 -19 -1 -18 -3 -18 rrcurveto
          -9 -17 -17 -6 -16 hhcurveto
          endchar
        </CharString>
        <CharString name="notequal">
          -63 408 374 rmoveto
          -36 hlineto
          16 25 rlineto
          37 23 -9 20 -43 hhcurveto
          -27 hlineto
          -28 -14 -11 -19 -12 hvcurveto
          -32 -52 rlineto
          -180 hlineto
          -18 -8 -37 callsubr
          5 -15 18 hhcurveto
          125 hlineto
          -46 -74 rlineto
          -87 hlineto
          -18 -8 -37 callsubr
          5 -15 18 hhcurveto
          32 hlineto
          -26 -43 rlineto
          -22 -13 12 -19 38 hhcurveto
          27 hlineto
          28 13 9 21 13 hvcurveto
          34 54 rlineto
          184 hlineto
          17 7 -20 callgsubr
          -4 15 -17 hhcurveto
          -129 hlineto
          46 74 rlineto
          91 hlineto
          17 7 -20 callgsubr
          -4 15 -17 hhcurveto
          endchar
        </CharString>
        <CharString name="ntilde">
          141 580 rmoveto
          -104 callgsubr
          314 -470 -98 callgsubr
          endchar
        </CharString>
        <CharString name="numbersign">
          3 75 -2 rmoveto
          19 hlineto
          30 17 11 21 7 hvcurveto
          39 153 rlineto
          75 hlineto
          -21 -78 -17 -72 -1 -7 rrcurveto
          -19 -2 14 -9 29 hhcurveto
          18 hlineto
          30 18 11 21 7 hvcurveto
          38 153 rlineto
          69 hlineto
          21 10 10 callgsubr
          10 3 callgsubr
          -53 hlineto
          28 110 rlineto
          61 hlineto
          21 10 10 callgsubr
          10 3 callgsubr
          -45 hlineto
          36 142 rlineto
          20 4 -14 11 -30 25 callgsubr
          -77 hlineto
          36 142 rlineto
          20 4 -13 11 -31 25 callgsubr
          -64 20 callsubr
          48 hlineto
          -28 -110 rlineto
          -60 20 callsubr
          44 hlineto
          -22 -78 -17 -73 -1 -4 rrcurveto
          -21 -3 14 -9 30 hhcurveto
          139 295 rmoveto
          28 110 rlineto
          76 hlineto
          -28 -110 rlineto
          endchar
        </CharString>
        <CharString name="o">
          -34 210 -8 -98 callsubr
        </CharString>
        <CharString name="oacute">
          -34 237 575 rmoveto
          -105 callsubr
          -27 -583 -98 callsubr
        </CharString>
        <CharString name="oacute.loclPLK">
          -34 247 575 -76 callgsubr
          -37 -583 -98 callsubr
        </CharString>
        <CharString name="obreve">
          -34 271 -79 callsubr
          -61 -583 -98 callsubr
        </CharString>
        <CharString name="ocircumflex">
          -34 167 572 -107 callsubr
          43 -62 callsubr
        </CharString>
        <CharString name="odieresis">
          -34 192 578 -102 callsubr
          -144 -586 -98 callsubr
        </CharString>
        <CharString name="oe">
          211 706 386 rmoveto
          -36 callgsubr
          -61 -49 -19 -33 -38 hvcurveto
          33 -29 -42 19 -55 hhcurveto
          -141 -73 -95 -174 -18 hvcurveto
          -174 -18 54 -96 140 hhcurveto
          56 45 19 35 37 hvcurveto
          -35 33 49 -19 67 hhcurveto
          47 85 15 40 22 hvcurveto
          9 16 4 22 20 vvcurveto
          26 -6 22 -14 vhcurveto
          -17 -34 -44 -67 hhcurveto
          -45 -32 19 81 -2 hvcurveto
          -4 20 23 -2 31 hhcurveto
          106 79 72 111 hvcurveto
          -483 -277 rmoveto
          -40 -11 40 113 12 hvcurveto
          113 12 19 39 40 hhcurveto
          39 11 -39 -113 -12 hvcurveto
          -113 -12 -19 -40 -39 hhcurveto
          231 183 rmoveto
          18 callgsubr
        </CharString>
        <CharString name="ogonek">
          -255 140 -183 rmoveto
          19 20 4 8 17 hvcurveto
          12 7 5 10 14 vvcurveto
          24 -10 6 -20 vhcurveto
          1 callsubr
          -50 16 rlineto
          -27 -41 -7 -44 -24 vvcurveto
          -27 9 -67 88 vhcurveto
          endchar
        </CharString>
        <CharString name="ograve">
          -34 297 575 -97 callsubr
          -87 -583 -98 callsubr
        </CharString>
        <CharString name="ohorn">
          -34 518 546 -89 callgsubr
          endchar
        </CharString>
        <CharString name="ohungarumlaut">
          -34 170 575 -78 callsubr
          -125 -583 -98 callsubr
        </CharString>
        <CharString name="omacron">
          -34 178 597 -85 callsubr
          32 -605 -98 callsubr
        </CharString>
        <CharString name="one">
          -52 40 hmoveto
          339 hlineto
          21 -31 callgsubr
          3 -7 15 -21 hhcurveto
          -84 hlineto
          59 563 rlineto
          12 1 -23 12 -16 hhcurveto
          -226 -41 -17 -3 -10 -10 -2 -15 rlinecurve
          -28 -3 0 -56 26 hhcurveto
          110 15 -47 -449 rlineto
          -107 21 callsubr
          endchar
        </CharString>
        <CharString name="oneeighth">
          117 142 -59 callgsubr
          1 -51 callgsubr
          298 -5 rmoveto
          86 40 62 58 6 hvcurveto
          6 59 -22 30 -28 20 25 14 27 23 5 53 rrcurveto
          59 7 -35 45 -71 hhcurveto
          -75 -46 -46 -63 -7 hvcurveto
          -5 -45 18 -25 22 -20 -29 -15 -28 -32 -6 -55 rrcurveto
          -65 -6 30 -57 86 hhcurveto
          33 265 rmoveto
          -17 12 -13 15 2 25 rrcurveto
          25 3 15 12 15 hhcurveto
          15 10 -13 -25 -2 hvcurveto
          -2 -21 -10 -17 -16 -13 rrcurveto
          -27 -196 rmoveto
          -20 -12 17 39 5 hvcurveto
          2 29 10 17 15 14 23 -15 18 -18 -4 -35 rrcurveto
          -24 -3 -13 -24 -21 hhcurveto
          endchar
        </CharString>
        <CharString name="onehalf">
          130 142 -59 callgsubr
          -5 -51 callgsubr
          209 hmoveto
          -56 callsubr
          endchar
        </CharString>
        <CharString name="onequarter">
          75 142 -59 callgsubr
          -6 -51 callgsubr
          322 -37 callgsubr
        </CharString>
        <CharString name="ordfeminine">
          -230 125 437 rmoveto
          32 18 19 18 12 hvcurveto
          -24 6 16 -12 26 hhcurveto
          36 19 23 28 7 -2 9 -6 hvcurveto
          -7 hlineto
          -5 -2 2 4 2 6 65 7 56 hvcurveto
          2 19 4 30 8 vvcurveto
          9 -11 5 -23 vhcurveto
          -7 hlineto
          -27 -3 -5 -18 -6 hvcurveto
          10 -10 -15 16 -30 hhcurveto
          -50 -39 -40 -90 -10 hvcurveto
          -65 -7 12 -76 64 hhcurveto
          35 68 rmoveto
          -22 -3 30 41 5 hvcurveto
          55 6 12 11 20 hhcurveto
          10 6 -2 -5 5 hvcurveto
          -5 -37 -8 -78 rlineto
          -4 -4 -9 -11 -13 hhcurveto
          endchar
        </CharString>
        <CharString name="ordmasculine">
          -219 165 439 rmoveto
          79 49 49 86 9 hvcurveto
          86 9 -38 49 -80 hhcurveto
          -80 -48 -49 -86 -9 hvcurveto
          -86 -9 39 -49 79 hhcurveto
          9 79 rmoveto
          -20 -8 14 42 5 hvcurveto
          42 4 11 14 20 hhcurveto
          19 6 -14 -42 -4 hvcurveto
          -42 -5 -9 -14 -19 hhcurveto
          endchar
        </CharString>
        <CharString name="oslash">
          -34 455 509 -48 callsubr
        </CharString>
        <CharString name="oslashacute">
          -34 243 575 rmoveto
          -105 callsubr
          212 -66 -48 callsubr
        </CharString>
        <CharString name="otilde">
          -34 140 580 rmoveto
          -104 callgsubr
          81 -591 -98 callsubr
        </CharString>
        <CharString name="p">
          -27 64 -206 rmoveto
          28 hlineto
          42 -14 callsubr
          20 15 callgsubr
          19 -54 95 -86 hhcurveto
          -49 -41 -30 -40 -24 hvcurveto
          25 -2 -2 36 -30 hhcurveto
          -25 -88 -8 -24 -3 hvcurveto
          -2 -20 10 -21 -11 -102 -54 -521 rcurveline
          -21 -3 17 -11 42 hhcurveto
          162 315 rmoveto
          -18 -12 7 7 -9 hvcurveto
          26 247 rlineto
          22 13 18 18 22 hhcurveto
          34 12 -42 -106 -12 hvcurveto
          -112 -11 -24 -41 -39 hhcurveto
          endchar
        </CharString>
        <CharString name="paragraph">
          -45 187 -171 rmoveto
          26 callsubr
          78 hlineto
          -82 -779 rlineto
          -21 -3 9 -9 21 hhcurveto
          26 callsubr
          21 hlineto
          21 10 9 20 2 hvcurveto
          1 vlineto
          23 2 -8 9 -21 hhcurveto
          -198 hlineto
          -109 -97 -75 -169 -18 hvcurveto
          -15 -149 67 -80 96 -14 -37 -354 rcurveline
          -21 -3 9 -9 21 hhcurveto
          endchar
        </CharString>
        <CharString name="parenleft">
          -262 130 -208 rmoveto
          20 39 23 23 2 hvcurveto
          1 6 0 7 -3 7 -68 147 -4 133 16 149 15 150 33 133 98 147 5 7 1 7 1 6 rrcurveto
          23 2 -34 23 -20 hhcurveto
          -10 -10 -5 -11 -9 hvcurveto
          -111 -134 -60 -172 -18 -174 -19 -174 25 -171 82 -134 rrcurveto
          -11 7 9 -5 10 hhcurveto
          endchar
        </CharString>
        <CharString name="parenright">
          -262 21 -208 rmoveto
          10 9 5 11 9 hvcurveto
          111 134 59 171 19 174 18 174 -24 172 -82 134 rrcurveto
          11 -7 -8 5 -10 hhcurveto
          -20 -40 -23 -23 -2 hvcurveto
          -1 -6 1 -7 3 -7 67 -147 3 -133 -15 -150 -16 -149 -33 -133 -96 -147 -5 -7 -2 -7 -1 -6 rrcurveto
          -23 -2 35 -23 20 hhcurveto
          endchar
        </CharString>
        <CharString name="partialdiff">
          -100 156 -10 rmoveto
          157 77 160 183 20 hvcurveto
          244 25 -69 157 -147 hhcurveto
          -98 -37 -42 -29 -3 hvcurveto
          -23 -2 26 -55 22 15 19 26 35 hhcurveto
          48 32 -54 -154 -2 hvcurveto
          17 -24 -27 7 -26 hhcurveto
          -96 -86 -91 -142 -15 hvcurveto
          -119 -13 45 -85 124 hhcurveto
          22 124 rmoveto
          -26 -21 12 72 7 hvcurveto
          64 7 29 42 37 hhcurveto
          16 16 -10 -21 15 hvcurveto
          -68 -7 -24 -91 -49 hhcurveto
          endchar
        </CharString>
        <CharString name="percent">
          175 -51 callsubr
          8 82 rmoveto
          -34 callgsubr
          endchar
        </CharString>
        <CharString name="period">
          -323 49 -2 -57 callsubr
          endchar
        </CharString>
        <CharString name="periodcentered">
          -297 113 289 -11 callgsubr
        </CharString>
        <CharString name="perthousand">
          475 -51 callsubr
          300 hmoveto
          64 76 29 139 14 hvcurveto
          139 15 -70 29 -64 hhcurveto
          -63 -76 -29 -139 -15 hvcurveto
          -139 -14 70 -29 63 hhcurveto
          -292 82 rmoveto
          -34 callgsubr
          300 hmoveto
          -34 callgsubr
          endchar
        </CharString>
        <CharString name="pi">
          -4 89 -2 rmoveto
          5 hlineto
          37 31 9 20 9 hvcurveto
          31 85 34 170 17 124 rrcurveto
          48 hlineto
          -35 -287 rlineto
          -45 -6 -7 -76 59 hhcurveto
          23 hlineto
          45 23 12 18 1 hvcurveto
          1 5 -3 37 9 84 26 252 rcurveline
          34 hlineto
          20 11 11 22 5 hvcurveto
          2 9 5 25 2 19 rrcurveto
          20 2 -10 11 -22 hhcurveto
          -323 hlineto
          -63 -67 -9 -41 -5 hvcurveto
          -7 -1 -8 -72 37 hhcurveto
          11 18 10 2 36 hvcurveto
          -18 -122 -40 -155 -36 -98 rrcurveto
          -2 -4 -1 -3 -3 vvcurveto
          -13 -2 25 -10 42 hhcurveto
          endchar
        </CharString>
        <CharString name="plus">
          -62 250 473 26 callgsubr
          -101 19 callgsubr
          101 12 callgsubr
          113 34 callgsubr
          -113 34 callsubr
          endchar
        </CharString>
        <CharString name="plusminus">
          -62 266 604 26 callgsubr
          -104 19 callgsubr
          104 12 callgsubr
          108 34 callgsubr
          -108 34 callsubr
          106 -497 rmoveto
          -325 19 callgsubr
          325 hlineto
          33 4 50 23 23 -9 11 -17 hvcurveto
          endchar
        </CharString>
        <CharString name="product">
          89 608 700 rmoveto
          -526 hlineto
          -29 -9 -38 -52 -28 8 -12 18 hvcurveto
          49 11 callsubr
          135 11 callsubr
          54 hlineto
          29 9 38 52 28 -8 12 -18 hvcurveto
          endchar
        </CharString>
        <CharString name="q">
          -30 295 -206 rmoveto
          28 hlineto
          42 -14 callsubr
          70 667 -6 callgsubr
          -12 hlineto
          -30 -19 -4 -22 -8 hvcurveto
          -4 -12 -4 -14 -5 -12 rrcurveto
          40 -15 -40 30 -47 hhcurveto
          -91 -73 -96 -172 -18 hvcurveto
          -176 -19 51 -95 108 hhcurveto
          38 29 15 15 18 hvcurveto
          -20 -196 3 callsubr
          -69 315 rmoveto
          -40 -15 33 120 12 hvcurveto
          110 12 21 38 36 hhcurveto
          21 13 -15 -19 10 hvcurveto
          -26 -252 rlineto
          -8 -11 -15 -7 -18 hhcurveto
          endchar
        </CharString>
        <CharString name="question">
          -120 138 222 rmoveto
          23 hlineto
          33 15 6 21 8 hvcurveto
          15 57 37 34 39 33 46 41 47 40 9 85 rrcurveto
          109 12 -74 60 -121 hhcurveto
          -72 -101 -29 -52 -6 hvcurveto
          -21 -2 29 -61 28 11 34 31 45 hhcurveto
          45 18 -21 -35 -4 hvcurveto
          -3 -33 -42 -37 -42 -46 -41 -47 -26 -48 -6 -58 rrcurveto
          -21 -2 13 -8 35 hhcurveto
          -26 -224 rmoveto
          32 hlineto
          42 -14 callsubr
          9 92 -4 callgsubr
          -32 hlineto
          -42 -31 callsubr
          -3 hvcurveto
          -9 -92 3 callsubr
          endchar
        </CharString>
        <CharString name="questiondown">
          -120 279 525 rmoveto
          -32 hlineto
          -42 -31 callsubr
          -3 hvcurveto
          -9 -92 3 callsubr
          32 hlineto
          42 -14 callsubr
          9 92 -4 callgsubr
          -26 -224 rmoveto
          -23 hlineto
          -33 -15 -6 -21 -8 hvcurveto
          -15 -57 -37 -34 -39 -33 -46 -41 -47 -40 -9 -85 rrcurveto
          -109 -12 74 -60 121 hhcurveto
          72 101 29 52 6 hvcurveto
          21 2 -29 61 -28 -11 -34 -31 -45 hhcurveto
          -45 -18 21 35 4 hvcurveto
          3 33 42 37 42 46 41 47 26 48 6 58 rrcurveto
          21 2 -13 8 -35 hhcurveto
          endchar
        </CharString>
        <CharString name="quotedbl">
          -202 91 464 rmoveto
          -30 callgsubr
          151 hmoveto
          -30 callgsubr
          endchar
        </CharString>
        <CharString name="quotedblbase">
          -163 4 -125 -32 callgsubr
        </CharString>
        <CharString name="quotedblleft">
          -163 84 478 rmoveto
          -29 callsubr
          166 hmoveto
          -29 callsubr
          endchar
        </CharString>
        <CharString name="quotedblright">
          -163 70 478 -32 callgsubr
        </CharString>
        <CharString name="quoteleft">
          -301 96 478 rmoveto
          -29 callsubr
          endchar
        </CharString>
        <CharString name="quoteright">
          -301 81 478 -8 callgsubr
          endchar
        </CharString>
        <CharString name="quotesinglbase">
          -301 18 -125 -8 callgsubr
          endchar
        </CharString>
        <CharString name="quotesingle">
          -347 94 464 rmoveto
          -30 callgsubr
          endchar
        </CharString>
        <CharString name="quotesingle.loclGUA">
          -340 83 381 rmoveto
          26 2 65 110 17 163 rrcurveto
          25 3 -13 19 -35 hhcurveto
          -19 hlineto
          -42 -20 -17 -27 -3 hvcurveto
          -22 -253 rlineto
          -16 -2 27 -6 18 hhcurveto
          endchar
        </CharString>
        <CharString name="r">
          -174 85 -2 -25 callgsubr
        </CharString>
        <CharString name="racute">
          -174 179 575 rmoveto
          -105 callsubr
          -94 -577 -25 callgsubr
        </CharString>
        <CharString name="radical">
          -16 259 -156 rmoveto
          23 hlineto
          34 18 10 21 5 hvcurveto
          169 908 rlineto
          11 vlineto
          12 -12 8 -30 vhcurveto
          -31 hlineto
          -32 -18 -10 -21 -4 hvcurveto
          -107 -630 rlineto
          -32 -6 -7 -83 2 hhcurveto
          -5 hlineto
          2 -14 65 50 -11 hvcurveto
          -48 218 rlineto
          15 -3 -11 8 -12 hhcurveto
          -17 -60 -30 -23 -44 hvcurveto
          -18 -9 -7 -7 -13 vvcurveto
          -9 3 -9 13 -31 vhcurveto
          -16 7 8 -8 13 hhcurveto
          7 17 5 9 16 hvcurveto
          101 -379 rlineto
          -22 6 22 -8 31 hhcurveto
          endchar
        </CharString>
        <CharString name="rcaron">
          -174 210 572 -103 callsubr
          -125 -574 -25 callgsubr
        </CharString>
        <CharString name="rcommaaccent">
          -174 85 -2 -72 callgsubr
          -8 -240 -77 callsubr
          endchar
        </CharString>
        <CharString name="registered">
          80 -20 callsubr
          -76 100 rmoveto
          22 hlineto
          23 9 6 12 hvcurveto
          136 2 vlineto
          24 0 -11 -22 5 hvcurveto
          36 -109 rlineto
          -9 3 11 -3 16 hhcurveto
          27 hlineto
          20 10 4 7 3 -1 3 -1 5 hvcurveto
          -39 124 -8 23 -15 19 -6 6 rlinecurve
          4 vlineto
          29 15 23 31 43 vvcurveto
          67 -30 38 -80 vhcurveto
          -92 hlineto
          -13 -7 -7 -15 hvcurveto
          -352 vlineto
          -12 10 -6 22 vhcurveto
          54 228 rmoveto
          91 27 vlineto
          14 8 -17 -26 -26 -10 -22 -9 hvcurveto
          endchar
        </CharString>
        <CharString name="ring">
          -255 158 550 -74 callgsubr
          endchar
        </CharString>
        <CharString name="s">
          -33 callgsubr
          endchar
        </CharString>
        <CharString name="sacute">
          -158 169 575 rmoveto
          -105 callsubr
          -40 -583 -88 callsubr
          endchar
        </CharString>
        <CharString name="sacute.loclPLK">
          -158 179 575 -76 callgsubr
          -50 -583 -88 callsubr
          endchar
        </CharString>
        <CharString name="scaron">
          -158 200 572 -103 callsubr
          -71 -580 -88 callsubr
          endchar
        </CharString>
        <CharString name="scedilla">
          -158 229 410 rmoveto
          32 21 -18 9 hhcurveto
          17 30 57 24 2 hvcurveto
          43 5 -80 15 -49 hhcurveto
          -97 -74 -59 -102 -11 hvcurveto
          -9 -90 48 -34 40 -25 33 -20 28 -15 -4 -35 rrcurveto
          -24 -2 -17 -14 -26 -36 -20 27 -12 hhcurveto
          -20 -40 -55 -28 -2 hvcurveto
          -4 -37 59 -22 57 -5 rrcurveto
          -17 -46 -6 -18 -8 -65 callgsubr
          13 44 85 17 53 65 9 83 rlinecurve
          9 81 -40 36 -38 26 -34 24 -37 13 4 35 rrcurveto
          24 3 17 10 25 hhcurveto
          endchar
        </CharString>
        <CharString name="scircumflex">
          -158 99 572 -107 callsubr
          30 -580 -88 callsubr
          endchar
        </CharString>
        <CharString name="scommaaccent">
          -33 callgsubr
          -13 -232 -77 callsubr
          endchar
        </CharString>
        <CharString name="section">
          -156 132 -8 rmoveto
          105 80 69 97 30 -5 26 -22 27 hvcurveto
          38 30 23 53 50 vvcurveto
          64 -28 38 -57 31 vhcurveto
          -29 15 -31 12 25 vvcurveto
          19 18 9 17 vhcurveto
          41 22 -19 8 hhcurveto
          18 32 63 20 43 -80 13 -43 -105 -78 -66 -98 -27 7 -30 21 -24 hvcurveto
          -41 -33 -20 -50 -46 vvcurveto
          -63 22 -38 59 -35 vhcurveto
          33 -19 30 -10 -24 vvcurveto
          -19 -14 -12 -20 vhcurveto
          -41 -19 24 -10 hhcurveto
          -20 -38 -63 -23 -41 77 -18 50 hvcurveto
          74 312 rmoveto
          -32 12 -28 13 4 35 1 11 4 13 13 10 33 -12 28 -13 -4 -35 -1 -12 -6 -12 -12 -10 rrcurveto
          endchar
        </CharString>
        <CharString name="semicolon">
          -323 87 369 -57 callsubr
          -124 -494 -10 callsubr
        </CharString>
        <CharString name="seven">
          -52 79 -2 rmoveto
          37 hlineto
          29 23 4 16 7 hvcurveto
          285 579 2 3 1 5 1 5 rlinecurve
          31 3 -13 59 -11 hhcurveto
          -345 -9 callsubr
          -4 8 -15 21 hhcurveto
          214 hlineto
          -267 -545 -4 -8 -4 -8 -1 -5 rlinecurve
          -12 -1 17 -7 39 hhcurveto
          endchar
        </CharString>
        <CharString name="six">
          -52 207 -8 rmoveto
          100 113 62 162 17 hvcurveto
          162 17 -98 50 -62 hhcurveto
          -23 -26 -4 -19 -34 hvcurveto
          36 98 70 67 98 30 11 4 2 3 2 14 rrcurveto
          20 2 -9 63 -34 hhcurveto
          -12 -310 -67 -384 -40 hvcurveto
          -193 -20 101 -68 99 hhcurveto
          13 117 rmoveto
          -31 -23 33 99 11 hvcurveto
          2 19 2 18 3 18 rrcurveto
          9 16 16 6 17 hhcurveto
          40 20 -38 -61 -6 hvcurveto
          -61 -7 -29 -42 -31 hhcurveto
          endchar
        </CharString>
        <CharString name="slash">
          -191 22 -13 callgsubr
        </CharString>
        <CharString name="space">
          -374 endchar
        </CharString>
        <CharString name="sterling">
          -100 20 hmoveto
          317 hlineto
          21 -31 callgsubr
          3 -7 15 -21 hhcurveto
          -177 hlineto
          31 28 17 43 7 63 6 60 rcurveline
          68 hlineto
          21 -24 callgsubr
          2 17 3 callgsubr
          -68 hlineto
          9 79 rlineto
          63 6 24 26 41 19 31 -8 2 hhcurveto
          17 27 39 36 4 hvcurveto
          38 4 -63 7 -35 hhcurveto
          -133 -75 -68 -138 -15 hvcurveto
          -8 -74 rlineto
          -33 hlineto
          -21 -38 callgsubr
          21 hhcurveto
          33 hlineto
          -14 -136 -7 -68 -77 -7 -4 -41 rlinecurve
          -2 -19 rlineto
          -28 -3 11 -12 28 hhcurveto
          endchar
        </CharString>
        <CharString name="summation">
          -37 479 700 rmoveto
          -379 hlineto
          -27 -12 -12 -28 -3 hvcurveto
          -4 -39 -2 -14 3 -11 5 -11 rlinecurve
          123 -266 -185 -306 -7 -11 -4 -11 -2 -14 rlinecurve
          -4 -39 rlineto
          -28 -3 9 -12 27 hhcurveto
          393 hlineto
          18 8 25 callsubr
          -235 hlineto
          -1 2 153 251 6 9 3 8 1 8 rlinecurve
          1 8 -3 8 -3 8 -101 237 rcurveline
          2 3 rlineto
          222 hlineto
          18 9 25 callsubr
          endchar
        </CharString>
        <CharString name="t">
          -213 166 -8 -68 callgsubr
          endchar
        </CharString>
        <CharString name="tbar">
          -213 261 340 rmoveto
          -46 hlineto
          2 20 2 22 3 24 rrcurveto
          19 hlineto
          39 19 60 37 14 -2 6 -14 hvcurveto
          -49 hlineto
          10 96 rlineto
          -23 callsubr
          -10 -95 rlineto
          -12 hlineto
          -29 -9 -35 -46 -25 8 -11 18 hvcurveto
          12 hlineto
          -2 -22 -3 -23 -2 -21 rrcurveto
          -16 hlineto
          -22 -11 -12 -28 -4 hvcurveto
          -2 -15 rlineto
          -28 -2 8 -12 22 hhcurveto
          17 hlineto
          -8 -68 -5 -51 -13 9 callgsubr
          4 4 37 7 72 hvcurveto
          46 hlineto
          23 11 29 callsubr
          -23 hhcurveto
          endchar
        </CharString>
        <CharString name="tcaron">
          -213 317 563 -42 callsubr
          -151 -571 -68 callgsubr
          endchar
        </CharString>
        <CharString name="thorn">
          -28 63 -206 -3 callsubr
          21 15 callgsubr
          18 -54 95 -86 hhcurveto
          -43 -38 -23 -33 -24 hvcurveto
          26 247 rlineto
          -62 callgsubr
          -94 -896 rlineto
          -21 -2 17 -11 42 hhcurveto
          162 315 rmoveto
          -18 -12 7 7 -10 hvcurveto
          26 247 rlineto
          22 14 18 18 22 hhcurveto
          34 11 -42 -106 -11 hvcurveto
          -112 -12 -23 -41 -39 hhcurveto
          endchar
        </CharString>
        <CharString name="three">
          -52 186 -8 rmoveto
          123 94 79 133 14 hvcurveto
          9 82 -30 67 -76 30 rrcurveto
          4 vlineto
          60 24 41 53 8 69 rrcurveto
          107 11 -66 68 -115 hhcurveto
          -91 -89 -23 -50 -6 hvcurveto
          -27 -3 25 -49 20 14 23 31 59 hhcurveto
          49 21 -32 -49 -5 hvcurveto
          -50 -5 -40 -33 -60 hhcurveto
          -26 hlineto
          -21 9 callsubr
          -2 -18 rlineto
          -35 -4 8 -15 21 hhcurveto
          35 hlineto
          79 27 -36 -66 -7 hvcurveto
          -62 -6 -41 -35 -55 -66 -34 41 -15 hhcurveto
          -23 -32 -57 -19 -2 hvcurveto
          -62 -6 130 -20 69 hhcurveto
          endchar
        </CharString>
        <CharString name="threequarters">
          116 136 287 -75 callsubr
          52 -287 rmoveto
          16 hlineto
          19 15 7 20 8 hvcurveto
          266 647 rlineto
          3 7 2 4 4 vvcurveto
          7 -6 4 -14 vhcurveto
          -16 hlineto
          -18 -16 -7 -19 -8 hvcurveto
          -266 -648 rlineto
          -2 35 callsubr
          321 -37 callgsubr
        </CharString>
        <CharString name="tilde">
          -219 20 580 rmoveto
          -104 callgsubr
          endchar
        </CharString>
        <CharString name="tildecomb">
          -511 -137 580 rmoveto
          -104 callgsubr
          endchar
        </CharString>
        <CharString name="trademark">
          106 317 305 rmoveto
          19 hlineto
          23 10 6 12 hvcurveto
          203 4 vlineto
          48 -115 rlineto
          -8 3 9 -3 10 hhcurveto
          11 hlineto
          10 8 3 8 3 hvcurveto
          50 115 rlineto
          4 -203 hlineto
          -12 9 -6 24 vhcurveto
          18 hlineto
          24 10 6 12 hvcurveto
          360 vlineto
          12 -10 6 -24 vhcurveto
          -28 hlineto
          -13 -15 -3 -12 -5 hvcurveto
          -61 -144 -11 -32 -12 32 -57 144 rlineto
          12 -5 -13 3 -14 hhcurveto
          -29 hlineto
          -24 -9 -6 -12 hvcurveto
          -360 vlineto
          -12 9 -6 24 vhcurveto
          -181 hmoveto
          24 hlineto
          22 11 6 12 hvcurveto
          303 62 vlineto
          12 5 9 19 hvcurveto
          18 vlineto
          20 -5 8 -12 vhcurveto
          -213 hlineto
          -12 -5 -8 -20 hvcurveto
          -18 vlineto
          -19 5 -9 12 vhcurveto
          62 -303 hlineto
          -12 10 -6 22 vhcurveto
          endchar
        </CharString>
        <CharString name="two">
          -52 6 hmoveto
          357 hlineto
          21 -31 callgsubr
          3 -7 15 -21 hhcurveto
          -201 hlineto
          200 255 38 47 25 50 6 56 rlinecurve
          106 11 -62 77 -136 hhcurveto
          -90 -110 -33 -59 -6 hvcurveto
          -26 -2 21 -43 31 17 45 43 59 hhcurveto
          46 30 -22 -48 -5 hvcurveto
          -3 -30 -15 -29 -31 -41 -252 -317 rcurveline
          -2 -3 -1 -5 -1 -7 rrcurveto
          -29 -3 7 -59 15 hhcurveto
          endchar
        </CharString>
        <CharString name="u">
          443 12 callsubr
          4 9 83 9 87 hvcurveto
          7 62 6 62 7 62 rrcurveto
          -28 callsubr
          -35 -103 callgsubr
          endchar
        </CharString>
        <CharString name="uacute">
          239 575 rmoveto
          -105 callsubr
          204 -462 -34 callsubr
          4 9 83 9 87 hvcurveto
          7 62 6 62 7 62 rrcurveto
          -28 callsubr
          -35 -103 callgsubr
          endchar
        </CharString>
        <CharString name="ubreve">
          273 -79 callsubr
          170 -462 -34 callsubr
          4 9 83 9 87 hvcurveto
          7 62 6 62 7 62 rrcurveto
          -28 callsubr
          -35 -103 callgsubr
          endchar
        </CharString>
        <CharString name="ucircumflex">
          169 572 -107 callsubr
          274 -459 -34 callsubr
          4 9 83 9 87 hvcurveto
          7 62 6 62 7 62 rrcurveto
          -28 callsubr
          -35 -103 callgsubr
          endchar
        </CharString>
        <CharString name="udieresis">
          194 578 -102 callsubr
          87 -465 -34 callsubr
          4 9 83 9 87 hvcurveto
          7 62 6 62 7 62 rrcurveto
          -28 callsubr
          -35 -103 callgsubr
          endchar
        </CharString>
        <CharString name="ugrave">
          299 575 -97 callsubr
          144 -462 -34 callsubr
          4 9 83 9 87 hvcurveto
          7 62 6 62 7 62 rrcurveto
          -28 callsubr
          -35 -103 callgsubr
          endchar
        </CharString>
        <CharString name="uhorn">
          453 485 rmoveto
          58 10 25 33 48 vvcurveto
          -47 callsubr
          -50 -103 callgsubr
          -6 -1 -2 -7 hhcurveto
          -9 -4 6 16 4 9 83 9 87 hvcurveto
          7 59 5 60 7 59 rrcurveto
          endchar
        </CharString>
        <CharString name="uhungarumlaut">
          172 575 -78 callsubr
          106 -462 -34 callsubr
          4 9 83 9 87 hvcurveto
          7 62 6 62 7 62 rrcurveto
          -28 callsubr
          -35 -103 callgsubr
          endchar
        </CharString>
        <CharString name="umacron">
          180 597 -85 callsubr
          263 -484 -34 callsubr
          4 9 83 9 87 hvcurveto
          7 62 6 62 7 62 rrcurveto
          -28 callsubr
          -35 -103 callgsubr
          endchar
        </CharString>
        <CharString name="underscore">
          -84 -31 -143 rmoveto
          402 hlineto
          20 11 -19 callgsubr
          7 vlineto
          35 4 -7 15 -20 hhcurveto
          -402 hlineto
          -20 -11 -15 -35 -4 hvcurveto
          -7 vlineto
          -35 -4 7 -15 20 hhcurveto
          endchar
        </CharString>
        <CharString name="uni00A0">
          -374 endchar
        </CharString>
        <CharString name="uni00AD">
          -255 39 212 rmoveto
          167 hlineto
          20 10 -20 callgsubr
          -7 15 -20 hhcurveto
          -167 hlineto
          -20 -11 -37 callsubr
          8 -15 20 hhcurveto
          endchar
        </CharString>
        <CharString name="uni00B2">
          -231 33 293 rmoveto
          -56 callsubr
          endchar
        </CharString>
        <CharString name="uni00B3">
          -231 136 287 -75 callsubr
          endchar
        </CharString>
        <CharString name="uni00B5">
          -58 -43 callsubr
        </CharString>
        <CharString name="uni00B9">
          -231 165 -59 callgsubr
          endchar
        </CharString>
        <CharString name="uni0162">
          -57 464 700 rmoveto
          -380 hlineto
          -20 -11 -15 -35 -3 hvcurveto
          -4 -31 rlineto
          -35 -3 7 -15 20 hhcurveto
          111 hlineto
          -57 -539 -2 -18 12 -11 31 -2 rlinecurve
          -18 -51 -7 -19 -8 -65 callgsubr
          14 46 34 2 15 11 2 19 rlinecurve
          57 539 rlineto
          112 hlineto
          21 -45 callgsubr
          -21 hhcurveto
          endchar
        </CharString>
        <CharString name="uni0163">
          -213 241 406 rmoveto
          39 19 60 37 14 -2 6 -14 hvcurveto
          -49 hlineto
          10 96 rlineto
          -23 callsubr
          -10 -95 rlineto
          -12 hlineto
          -29 -9 -35 -46 -25 8 -11 18 hvcurveto
          12 hlineto
          -15 -140 -15 -131 -22 vvcurveto
          -68 30 -38 54 -11 vhcurveto
          -17 -49 -7 -18 -8 -65 callgsubr
          12 42 rlineto
          48 8 29 30 47 vvcurveto
          20 -8 14 -15 vhcurveto
          -16 callgsubr
          endchar
        </CharString>
        <CharString name="uni018F">
          49 235 -1 rmoveto
          153 102 95 237 25 hvcurveto
          246 26 -65 131 -182 hhcurveto
          -77 -131 -31 -54 -6 hvcurveto
          -25 -3 26 -52 21 18 54 39 78 hhcurveto
          68 39 -34 -175 -14 hvcurveto
          -273 hlineto
          -13 -42 -42 -17 -2 hvcurveto
          -180 -19 55 -138 162 hhcurveto
          11 120 rmoveto
          -72 -8 62 96 10 hvcurveto
          182 hlineto
          -119 -24 -30 -39 -58 hhcurveto
          endchar
        </CharString>
        <CharString name="uni01C4">
          573 882 749 -103 callsubr
          -820 -749 rmoveto
          190 hlineto
          176 90 118 232 24 hvcurveto
          232 24 -64 118 -176 hhcurveto
          -190 hlineto
          -26 -12 -12 -28 -3 hvcurveto
          -66 -620 rlineto
          -28 -3 10 -12 26 hhcurveto
          550 -52 callgsubr
          -415 131 rmoveto
          46 438 rlineto
          64 hlineto
          70 23 -58 -161 -17 hvcurveto
          -161 -17 -35 -58 -70 hhcurveto
          endchar
        </CharString>
        <CharString name="uni01C5">
          471 809 572 -103 callsubr
          -747 -572 rmoveto
          -70 callsubr
          339 -131 rmoveto
          -93 callgsubr
          endchar
        </CharString>
        <CharString name="uni01C6">
          375 -75 callgsubr
          559 580 -103 callsubr
          -209 -572 rmoveto
          -93 callgsubr
          -287 113 -17 callsubr
        </CharString>
        <CharString name="uni01C7">
          207 201 702 rmoveto
          -35 -44 callgsubr
          -67 -638 rlineto
          -24 9 -8 27 vhcurveto
          270 hlineto
          29 9 39 52 28 -8 12 -18 hvcurveto
          -153 hlineto
          57 540 rlineto
          29 -40 2 -17 vhcurveto
          438 hmoveto
          -35 -44 callgsubr
          -67 -617 rlineto
          -73 -8 -27 -31 -60 -44 -11 9 -8 hhcurveto
          -7 -13 -11 -86 -37 56 -6 40 149 71 83 127 14 hvcurveto
          70 643 rlineto
          29 -40 2 -17 vhcurveto
          endchar
        </CharString>
        <CharString name="uni01C8">
          146 67 hmoveto
          -67 callsubr
          496 -35 callsubr
        </CharString>
        <CharString name="uni01C9">
          8 153 -8 -73 callgsubr
          272 586 -33 callsubr
        </CharString>
        <CharString name="uni01CA">
          434 675 -8 -65 callsubr
          -593 6 -99 callsubr
          endchar
        </CharString>
        <CharString name="uni01CB">
          328 -43 callgsubr
          663 580 -33 callsubr
        </CharString>
        <CharString name="uni01CC">
          220 637 -82 callgsubr
          -193 -465 -98 callgsubr
          51 -325 -83 callsubr
        </CharString>
        <CharString name="uni01EA">
          88 347 708 rmoveto
          -177 -97 -107 -251 -26 hvcurveto
          -251 -26 97 -107 153 hhcurveto
          12 hlineto
          -15 -32 -4 -30 -19 -55 callgsubr
          -26 callgsubr
          20 4 25 11 25 hvcurveto
          130 28 72 110 22 212 rrcurveto
          250 26 -93 108 -156 hhcurveto
          65 -358 rmoveto
          -178 -19 -39 -49 -68 hhcurveto
          -69 -30 49 178 19 hvcurveto
          178 19 40 48 69 hhcurveto
          68 29 -48 -178 -19 hvcurveto
          endchar
        </CharString>
        <CharString name="uni01EB">
          -34 266 531 rmoveto
          -135 -79 -95 -174 -18 hvcurveto
          -18 -171 58 -96 130 -3 rrcurveto
          -16 -33 -5 -33 -19 -55 callgsubr
          28 callsubr
          26 11 25 hvcurveto
          101 24 61 92 15 148 rrcurveto
          174 18 -59 95 -136 hhcurveto
          27 -269 rmoveto
          -113 -12 -19 -40 -39 hhcurveto
          -40 -11 40 113 12 hvcurveto
          113 12 19 39 40 hhcurveto
          39 11 -39 -113 -12 hvcurveto
          endchar
        </CharString>
        <CharString name="uni01F1">
          573 62 hmoveto
          190 hlineto
          176 90 118 232 24 hvcurveto
          232 24 -64 118 -176 hhcurveto
          -190 hlineto
          -26 -12 -12 -28 -3 hvcurveto
          -66 -620 rlineto
          -28 -3 10 -12 26 hhcurveto
          550 -52 callgsubr
          -415 131 rmoveto
          46 438 rlineto
          64 hlineto
          70 23 -58 -161 -17 hvcurveto
          -161 -17 -35 -58 -70 hhcurveto
          endchar
        </CharString>
        <CharString name="uni01F2">
          471 -22 callgsubr
          339 -131 rmoveto
          -93 callgsubr
          endchar
        </CharString>
        <CharString name="uni01F3">
          375 -75 callgsubr
          350 8 rmoveto
          -93 callgsubr
          -287 113 -17 callsubr
        </CharString>
        <CharString name="uni021A">
          -57 179 -2 -59 callsubr
          -7 -238 -77 callsubr
          endchar
        </CharString>
        <CharString name="uni021B">
          -213 166 -8 -68 callgsubr
          -30 -232 -77 callsubr
          endchar
        </CharString>
        <CharString name="uni0237">
          -262 13 -212 -83 callsubr
        </CharString>
        <CharString name="uni0259">
          -57 222 531 rmoveto
          -47 -85 -15 -40 -22 hvcurveto
          -9 -16 -4 -22 -20 vvcurveto
          -26 6 -22 14 vhcurveto
          17 34 44 67 hhcurveto
          45 32 -19 -81 2 hvcurveto
          4 -20 -23 2 -31 hhcurveto
          -106 -79 -72 -111 hvcurveto
          -52 -1 26 -93 141 hhcurveto
          167 76 143 176 hvcurveto
          135 2 -61 85 -141 hhcurveto
          -35 -422 rmoveto
          -25 -15 14 33 52 34 23 54 hvcurveto
          30 hlineto
          -68 -12 -23 -54 -43 hhcurveto
          endchar
        </CharString>
        <CharString name="uni02BC">
          -421 66 532 -77 callsubr
          endchar
        </CharString>
        <CharString name="uni02C9">
          -255 66 597 -85 callsubr
          endchar
        </CharString>
        <CharString name="uni0302">
          -511 -68 572 -107 callsubr
          endchar
        </CharString>
        <CharString name="uni0304">
          -511 -59 597 -85 callsubr
          endchar
        </CharString>
        <CharString name="uni0306">
          -511 32 -79 callsubr
          endchar
        </CharString>
        <CharString name="uni0307">
          -511 36 -82 callgsubr
          endchar
        </CharString>
        <CharString name="uni0308">
          -511 -47 578 -102 callsubr
          endchar
        </CharString>
        <CharString name="uni030A">
          -511 29 550 -74 callgsubr
          endchar
        </CharString>
        <CharString name="uni030B">
          -511 -149 575 -78 callsubr
          endchar
        </CharString>
        <CharString name="uni030C">
          -511 38 572 -103 callsubr
          endchar
        </CharString>
        <CharString name="uni0326">
          -511 -160 -240 -77 callsubr
          endchar
        </CharString>
        <CharString name="uni0327">
          -511 24 -48 rmoveto
          17 58 rlineto
          -64 hlineto
          -21 -59 -8 -21 -9 -65 callgsubr
          endchar
        </CharString>
        <CharString name="uni0394">
          70 -28 callgsubr
        </CharString>
        <CharString name="uni03A9">
          88 -50 callgsubr
        </CharString>
        <CharString name="uni03BC">
          -44 -43 callsubr
        </CharString>
        <CharString name="uni1E0C">
          -23 callgsubr
          -38 -335 rmoveto
          -106 callsubr
          endchar
        </CharString>
        <CharString name="uni1E0D">
          -30 -75 callgsubr
          63 121 -42 callgsubr
          30 -317 rmoveto
          -106 callsubr
          endchar
        </CharString>
        <CharString name="uni1E24">
          90 88 -2 -57 callgsubr
          165 -202 rmoveto
          -106 callsubr
          endchar
        </CharString>
        <CharString name="uni1E25">
          -26 361 -8 -64 callsubr
          -137 -196 rmoveto
          -106 callsubr
          endchar
        </CharString>
        <CharString name="uni1E44">
          79 350 755 rmoveto
          -106 callsubr
          -268 -757 -99 callsubr
          endchar
        </CharString>
        <CharString name="uni1E45">
          274 -82 callgsubr
          170 -465 -98 callgsubr
          endchar
        </CharString>
        <CharString name="uni1E5A">
          2 87 -2 -84 callgsubr
          -65 -606 rmoveto
          -106 callsubr
          endchar
        </CharString>
        <CharString name="uni1E5B">
          -174 85 -2 -72 callgsubr
          -204 vmoveto
          -106 callsubr
          endchar
        </CharString>
        <CharString name="uni1E62">
          -41 callsubr
          -33 -196 rmoveto
          -106 callsubr
          endchar
        </CharString>
        <CharString name="uni1E63">
          -33 callgsubr
          -5 -196 rmoveto
          -106 callsubr
          endchar
        </CharString>
        <CharString name="uni1E6C">
          -57 179 -2 -59 callsubr
          1 -202 rmoveto
          -106 callsubr
          endchar
        </CharString>
        <CharString name="uni1E6D">
          -213 166 -8 -68 callgsubr
          -22 -196 rmoveto
          -106 callsubr
          endchar
        </CharString>
        <CharString name="uni1E92">
          -4 35 -52 callgsubr
          170 -204 rmoveto
          -106 callsubr
          endchar
        </CharString>
        <CharString name="uni1E93">
          -106 23 hmoveto
          -93 callgsubr
          130 -204 rmoveto
          -106 callsubr
          endchar
        </CharString>
        <CharString name="uni1E9E">
          82 350 -8 rmoveto
          119 81 79 133 14 hvcurveto
          14 130 -56 46 -54 30 108 180 rcurveline
          1 2 0 2 4 vvcurveto
          3 26 -14 64 -16 2 rrcurveto
          10 -54 -80 8 -72 hhcurveto
          -164 -96 -94 -182 -19 hvcurveto
          -42 -402 3 callsubr
          35 hlineto
          42 -14 callsubr
          42 401 rlineto
          93 10 34 52 63 hhcurveto
          30 25 -2 -3 22 hvcurveto
          -100 -164 -1 -2 -1 -4 -1 -4 rlinecurve
          -27 -3 16 -62 17 hhcurveto
          16 hlineto
          51 23 -36 -66 -7 hvcurveto
          -62 -6 -24 -35 -41 -37 -27 27 -11 hhcurveto
          -23 -32 -57 -19 -2 hvcurveto
          -51 -6 105 -17 40 hhcurveto
          endchar
        </CharString>
        <CharString name="uni1EA0">
          -6 23 -2 -106 callgsubr
          -105 -467 rmoveto
          -106 callsubr
          endchar
        </CharString>
        <CharString name="uni1EA1">
          -30 155 -9 -107 callgsubr
          5 -316 rmoveto
          -106 callsubr
          endchar
        </CharString>
        <CharString name="uni1EA2">
          -6 324 747 -89 callsubr
          -301 -749 -106 callgsubr
          endchar
        </CharString>
        <CharString name="uni1EA3">
          -30 290 570 -89 callsubr
          -135 -579 -105 callgsubr
        </CharString>
        <CharString name="uni1EA4">
          -6 420 -64 callgsubr
          -185 -751 -106 callgsubr
          endchar
        </CharString>
        <CharString name="uni1EA5">
          -30 377 709 rmoveto
          -105 callsubr
          -203 -137 -80 callgsubr
        </CharString>
        <CharString name="uni1EA6">
          -6 471 -63 callgsubr
          -185 -751 -106 callgsubr
          endchar
        </CharString>
        <CharString name="uni1EA7">
          -30 437 709 -97 callsubr
          -263 -137 -80 callgsubr
        </CharString>
        <CharString name="uni1EA8">
          -6 444 861 -52 callsubr
          -236 -112 -102 callgsubr
          -185 -751 -106 callgsubr
          endchar
        </CharString>
        <CharString name="uni1EA9">
          -30 430 704 -89 callsubr
          -256 -132 -80 callgsubr
        </CharString>
        <CharString name="uni1EAA">
          -6 212 891 -79 callgsubr
          6 -145 rmoveto
          27 hlineto
          28 7 5 14 15 hvcurveto
          27 39 16 -40 rlineto
          -13 10 9 -5 29 hhcurveto
          28 hlineto
          13 7 4 6 1 hvcurveto
          3 -4 11 -3 7 vhcurveto
          -43 74 rlineto
          15 -10 -14 4 -31 hhcurveto
          -2 hlineto
          -33 -15 -4 -15 -12 hvcurveto
          -59 -74 rlineto
          -6 -7 -5 -11 -3 vvcurveto
          -8 -1 5 -2 16 hhcurveto
          -185 -751 -106 callgsubr
          endchar
        </CharString>
        <CharString name="uni1EAB">
          -30 184 756 -79 callgsubr
          -7 -187 -107 callsubr
          -12 -80 callsubr
        </CharString>
        <CharString name="uni1EAC">
          -6 201 749 -107 callsubr
          -178 -751 -106 callgsubr
          -105 -467 rmoveto
          -106 callsubr
          endchar
        </CharString>
        <CharString name="uni1EAD">
          -30 167 572 -107 callsubr
          -12 -581 -107 callgsubr
          5 -316 rmoveto
          -106 callsubr
          endchar
        </CharString>
        <CharString name="uni1EAE">
          -6 296 864 rmoveto
          35 12 7 8 8 hvcurveto
          61 74 13 16 10 vvcurveto
          19 -14 5 -26 -35 -29 -6 -21 -11 vhcurveto
          -25 -67 -10 -21 -9 vvcurveto
          -11 5 -4 16 vhcurveto
          9 -112 rmoveto
          86 50 52 42 5 hvcurveto
          26 3 -19 8 -21 hhcurveto
          -14 -10 -7 -9 -5 hvcurveto
          -12 -8 -5 -24 -53 hhcurveto
          -50 -2 22 12 -5 hvcurveto
          10 -4 -9 8 -16 hhcurveto
          -22 -18 -8 -27 -3 hvcurveto
          -42 -5 40 -51 85 hhcurveto
          -282 -754 -106 callgsubr
          endchar
        </CharString>
        <CharString name="uni1EAF">
          -30 255 738 rmoveto
          -105 callsubr
          16 -163 -95 callgsubr
        </CharString>
        <CharString name="uni1EB0">
          -6 347 864 rmoveto
          20 5 4 11 9 -8 21 -26 67 hvcurveto
          21 -10 -32 6 -37 hhcurveto
          -28 -15 -5 -15 -10 9 -10 64 -80 hvcurveto
          -10 9 13 -9 36 hhcurveto
          -42 -112 rmoveto
          86 50 52 42 5 hvcurveto
          26 3 -19 8 -21 hhcurveto
          -14 -10 -7 -9 -5 hvcurveto
          -12 -8 -5 -24 -53 hhcurveto
          -50 -2 22 12 -5 hvcurveto
          10 -4 -9 8 -16 hhcurveto
          -22 -18 -8 -27 -3 hvcurveto
          -42 -5 40 -51 85 hhcurveto
          -282 -754 -106 callgsubr
          endchar
        </CharString>
        <CharString name="uni1EB1">
          -30 315 738 -97 callsubr
          -44 -163 -95 callgsubr
        </CharString>
        <CharString name="uni1EB2">
          -6 320 872 -52 callsubr
          -15 -120 rmoveto
          86 50 52 42 5 hvcurveto
          26 3 -19 8 -21 hhcurveto
          -14 -10 -7 -9 -5 hvcurveto
          -12 -8 -5 -24 -53 hhcurveto
          -50 -2 22 12 -5 hvcurveto
          10 -4 -9 8 -16 hhcurveto
          -22 -18 -8 -27 -3 hvcurveto
          -42 -5 40 -51 85 hhcurveto
          -282 -754 -106 callgsubr
          endchar
        </CharString>
        <CharString name="uni1EB3">
          -30 308 733 -89 callsubr
          -37 -158 -95 callgsubr
        </CharString>
        <CharString name="uni1EB4">
          -6 214 924 -79 callgsubr
          101 -175 rmoveto
          86 50 52 42 5 hvcurveto
          26 3 -19 8 -21 hhcurveto
          -14 -10 -7 -9 -5 hvcurveto
          -12 -8 -5 -24 -53 hhcurveto
          -50 -2 22 12 -5 hvcurveto
          10 -4 -9 8 -16 hhcurveto
          -22 -18 -8 -27 -3 hvcurveto
          -42 -5 40 -51 85 hhcurveto
          -282 -754 -106 callgsubr
          endchar
        </CharString>
        <CharString name="uni1EB5">
          -30 181 756 -79 callgsubr
          100 -184 -95 callgsubr
        </CharString>
        <CharString name="uni1EB6">
          -6 305 -68 callsubr
          -282 -754 -106 callgsubr
          -105 -467 rmoveto
          -106 callsubr
          endchar
        </CharString>
        <CharString name="uni1EB7">
          -30 271 575 -95 callsubr
          5 -316 rmoveto
          -106 callsubr
          endchar
        </CharString>
        <CharString name="uni1EB8">
          -54 67 hmoveto
          -104 callsubr
          123 -204 rmoveto
          -106 callsubr
          endchar
        </CharString>
        <CharString name="uni1EB9">
          -57 441 386 -101 callgsubr
          -372 vmoveto
          -63 callsubr
        </CharString>
        <CharString name="uni1EBA">
          -54 319 747 -89 callsubr
          -252 -747 rmoveto
          -104 callsubr
          endchar
        </CharString>
        <CharString name="uni1EBB">
          -57 236 678 -58 callgsubr
          205 -292 -97 callgsubr
        </CharString>
        <CharString name="uni1EBC">
          -54 169 757 rmoveto
          -104 callgsubr
          -91 -760 rmoveto
          -104 callsubr
          endchar
        </CharString>
        <CharString name="uni1EBD">
          -57 136 583 rmoveto
          11 -3 rlineto
          -104 callgsubr
          305 -197 -97 callgsubr
        </CharString>
        <CharString name="uni1EBE">
          -54 415 -64 callgsubr
          -136 -749 rmoveto
          -104 callsubr
          endchar
        </CharString>
        <CharString name="uni1EBF">
          -57 490 868 rmoveto
          -36 -33 -7 -20 -10 hvcurveto
          -40 -80 -16 -26 -69 callgsubr
          50 13 13 12 9 vhcurveto
          83 107 5 1 12 vvcurveto
          11 -18 3 -36 vhcurveto
          -309 -296 -102 callgsubr
          94 -41 rmoveto
          -167 -76 -143 -176 hvcurveto
          -135 -2 61 -85 141 hhcurveto
          47 85 15 40 22 hvcurveto
          9 16 4 22 20 vvcurveto
          26 -6 22 -14 vhcurveto
          -17 -34 -44 -67 hhcurveto
          -45 -32 19 81 -2 hvcurveto
          -4 20 23 -2 31 hhcurveto
          106 79 72 111 hvcurveto
          -36 callgsubr
          -56 -239 rmoveto
          -30 hlineto
          18 callgsubr
        </CharString>
        <CharString name="uni1EC0">
          -54 466 -63 callgsubr
          -136 -749 rmoveto
          -104 callsubr
          endchar
        </CharString>
        <CharString name="uni1EC1">
          -57 418 841 rmoveto
          20 -11 -33 7 -36 hhcurveto
          -36 -18 -3 -11 -12 5 -2 84 -106 hvcurveto
          -11 8 13 -14 50 hhcurveto
          24 5 4 11 11 -13 25 -42 81 hvcurveto
          -237 -269 -102 callgsubr
          94 -41 rmoveto
          -167 -76 -143 -176 hvcurveto
          -135 -2 61 -85 141 hhcurveto
          47 85 15 40 22 hvcurveto
          9 16 4 22 20 vvcurveto
          26 -6 22 -14 vhcurveto
          -17 -34 -44 -67 hhcurveto
          -45 -32 19 81 -2 hvcurveto
          -4 20 23 -2 31 hhcurveto
          106 79 72 111 hvcurveto
          -36 callgsubr
          -56 -239 rmoveto
          -30 hlineto
          18 callgsubr
        </CharString>
        <CharString name="uni1EC2">
          -54 439 861 -52 callsubr
          -236 -112 -102 callgsubr
          -136 -749 rmoveto
          -104 callsubr
          endchar
        </CharString>
        <CharString name="uni1EC3">
          -57 426 885 rmoveto
          -35 -45 -18 -13 -15 22 -27 8 hvcurveto
          9 11 12 22 hhcurveto
          16 16 -8 -14 hvcurveto
          -30 -67 -28 -17 vvcurveto
          -8 30 -15 24 -47 callgsubr
          vhcurveto
          -245 -313 -102 callgsubr
          94 -41 rmoveto
          -167 -76 -143 -176 hvcurveto
          -135 -2 61 -85 141 hhcurveto
          47 85 15 40 22 hvcurveto
          9 16 4 22 20 vvcurveto
          26 -6 22 -14 vhcurveto
          -17 -34 -44 -67 hhcurveto
          -45 -32 19 81 -2 hvcurveto
          -4 20 23 -2 31 hhcurveto
          106 79 72 111 hvcurveto
          -36 callgsubr
          -56 -239 rmoveto
          -30 hlineto
          18 callgsubr
        </CharString>
        <CharString name="uni1EC4">
          -54 207 891 -79 callgsubr
          6 -145 rmoveto
          27 hlineto
          28 7 5 14 15 hvcurveto
          27 39 16 -40 rlineto
          -13 10 9 -5 29 hhcurveto
          28 hlineto
          13 7 4 6 1 hvcurveto
          3 -4 11 -3 7 vhcurveto
          -43 74 rlineto
          15 -10 -14 4 -31 hhcurveto
          -2 hlineto
          -33 -15 -4 -15 -12 hvcurveto
          -59 -74 rlineto
          -6 -7 -5 -11 -3 vvcurveto
          -8 -1 5 -2 16 hhcurveto
          -136 -749 rmoveto
          -104 callsubr
          endchar
        </CharString>
        <CharString name="uni1EC5">
          -57 181 759 rmoveto
          10 -3 rlineto
          -92 callsubr
          -7 -187 -107 callsubr
          267 -186 -97 callgsubr
        </CharString>
        <CharString name="uni1EC6">
          -54 196 749 -107 callsubr
          -129 -749 rmoveto
          -104 callsubr
          123 -204 rmoveto
          -106 callsubr
          endchar
        </CharString>
        <CharString name="uni1EC7">
          -54 callgsubr
          -372 vmoveto
          -63 callsubr
        </CharString>
        <CharString name="uni1EC8">
          -249 202 747 -89 callsubr
          -119 -750 -84 callsubr
          endchar
        </CharString>
        <CharString name="uni1EC9">
          -257 172 570 -89 callsubr
          -49 -578 -94 callsubr
          endchar
        </CharString>
        <CharString name="uni1ECA">
          -249 83 -3 -84 callsubr
          1 -201 rmoveto
          -106 callsubr
          endchar
        </CharString>
        <CharString name="uni1ECB">
          -257 153 -82 callgsubr
          -30 -586 -94 callsubr
          -26 -196 rmoveto
          -106 callsubr
          endchar
        </CharString>
        <CharString name="uni1ECC">
          88 271 -8 -101 callsubr
          -34 -327 rmoveto
          -106 callsubr
          endchar
        </CharString>
        <CharString name="uni1ECD">
          -34 210 -8 -100 callgsubr
          -29 -313 rmoveto
          -106 callsubr
          endchar
        </CharString>
        <CharString name="uni1ECE">
          88 370 747 -89 callsubr
          -99 -755 -101 callsubr
          endchar
        </CharString>
        <CharString name="uni1ECF">
          -34 290 570 -89 callsubr
          -80 -578 -98 callsubr
        </CharString>
        <CharString name="uni1ED0">
          88 466 -64 callgsubr
          17 -757 -101 callsubr
          endchar
        </CharString>
        <CharString name="uni1ED1">
          -34 377 709 rmoveto
          -105 callsubr
          -203 -137 -72 callsubr
        </CharString>
        <CharString name="uni1ED2">
          88 517 -63 callgsubr
          17 -757 -101 callsubr
          endchar
        </CharString>
        <CharString name="uni1ED3">
          -34 437 709 -97 callsubr
          -263 -137 -72 callsubr
        </CharString>
        <CharString name="uni1ED4">
          88 490 861 -52 callsubr
          -236 -112 -102 callgsubr
          17 -757 -101 callsubr
          endchar
        </CharString>
        <CharString name="uni1ED5">
          -34 430 704 -89 callsubr
          -256 -132 -72 callsubr
        </CharString>
        <CharString name="uni1ED6">
          88 258 891 -79 callgsubr
          6 -145 rmoveto
          27 hlineto
          28 7 5 14 15 hvcurveto
          27 39 16 -40 rlineto
          -13 10 9 -5 29 hhcurveto
          28 hlineto
          13 7 4 6 1 hvcurveto
          3 -4 11 -3 7 vhcurveto
          -43 74 rlineto
          15 -10 -14 4 -31 hhcurveto
          -2 hlineto
          -33 -15 -4 -15 -12 hvcurveto
          -59 -74 rlineto
          -6 -7 -5 -11 -3 vvcurveto
          -8 -1 5 -2 16 hhcurveto
          17 -757 -101 callsubr
          endchar
        </CharString>
        <CharString name="uni1ED7">
          -34 184 756 -79 callgsubr
          -7 -187 -107 callsubr
          43 -62 callsubr
        </CharString>
        <CharString name="uni1ED8">
          88 247 749 -107 callsubr
          24 -757 -101 callsubr
          -34 -327 rmoveto
          -106 callsubr
          endchar
        </CharString>
        <CharString name="uni1ED9">
          -34 167 572 -107 callsubr
          43 -580 -100 callgsubr
          -29 -313 rmoveto
          -106 callsubr
          endchar
        </CharString>
        <CharString name="uni1EDA">
          88 325 752 rmoveto
          -105 callsubr
          319 -50 -90 callgsubr
          endchar
        </CharString>
        <CharString name="uni1EDB">
          -34 237 575 rmoveto
          -105 callsubr
          281 -29 -89 callgsubr
          endchar
        </CharString>
        <CharString name="uni1EDC">
          88 377 752 -97 callsubr
          267 -50 -90 callgsubr
          endchar
        </CharString>
        <CharString name="uni1EDD">
          -34 297 575 -97 callsubr
          221 -29 -89 callgsubr
          endchar
        </CharString>
        <CharString name="uni1EDE">
          88 370 747 -89 callsubr
          274 -45 -90 callgsubr
          endchar
        </CharString>
        <CharString name="uni1EDF">
          -34 290 570 -89 callsubr
          228 -24 -89 callgsubr
          endchar
        </CharString>
        <CharString name="uni1EE0">
          88 233 757 rmoveto
          -78 callgsubr
          421 -58 -90 callgsubr
          endchar
        </CharString>
        <CharString name="uni1EE1">
          -34 153 580 rmoveto
          -78 callgsubr
          375 -37 -89 callgsubr
          endchar
        </CharString>
        <CharString name="uni1EE2">
          88 644 702 -90 callgsubr
          -160 -554 rmoveto
          -106 callsubr
          endchar
        </CharString>
        <CharString name="uni1EE3">
          -34 518 546 -89 callgsubr
          -29 -313 rmoveto
          -106 callsubr
          endchar
        </CharString>
        <CharString name="uni1EE4">
          72 264 -8 rmoveto
          -39 callsubr
          49 465 -74 callsubr
          -39 -100 callsubr
          -19 -196 rmoveto
          -106 callsubr
          endchar
        </CharString>
        <CharString name="uni1EE5">
          443 12 callsubr
          4 9 83 9 87 hvcurveto
          7 62 6 62 7 62 rrcurveto
          -28 callsubr
          -35 -103 callgsubr
          -258 -317 rmoveto
          -106 callsubr
          endchar
        </CharString>
        <CharString name="uni1EE6">
          72 362 747 -89 callsubr
          -98 -755 rmoveto
          -39 callsubr
          49 465 -74 callsubr
          -39 -100 callsubr
          endchar
        </CharString>
        <CharString name="uni1EE7">
          292 570 -89 callsubr
          151 -457 -34 callsubr
          4 9 83 9 87 hvcurveto
          7 62 6 62 7 62 rrcurveto
          -28 callsubr
          -35 -103 callgsubr
          endchar
        </CharString>
        <CharString name="uni1EE8">
          72 309 752 rmoveto
          -105 callsubr
          344 1 rmoveto
          -47 callsubr
          -51 -100 callsubr
          -39 callsubr
          48 458 rlineto
          55 10 24 33 47 vvcurveto
          endchar
        </CharString>
        <CharString name="uni1EE9">
          239 575 rmoveto
          -105 callsubr
          214 -90 rmoveto
          58 10 25 33 48 vvcurveto
          -47 callsubr
          -50 -103 callgsubr
          -6 -1 -2 -7 hhcurveto
          -9 -4 6 16 4 9 83 9 87 hvcurveto
          7 59 5 60 7 59 rrcurveto
          endchar
        </CharString>
        <CharString name="uni1EEA">
          72 369 752 -97 callsubr
          284 1 rmoveto
          -47 callsubr
          -51 -100 callsubr
          -39 callsubr
          48 458 rlineto
          55 10 24 33 47 vvcurveto
          endchar
        </CharString>
        <CharString name="uni1EEB">
          299 575 -97 callsubr
          154 -90 rmoveto
          58 10 25 33 48 vvcurveto
          -47 callsubr
          -50 -103 callgsubr
          -6 -1 -2 -7 hhcurveto
          -9 -4 6 16 4 9 83 9 87 hvcurveto
          7 59 5 60 7 59 rrcurveto
          endchar
        </CharString>
        <CharString name="uni1EEC">
          72 301 855 -58 callgsubr
          352 -102 rmoveto
          -47 callsubr
          -51 -100 callsubr
          -39 callsubr
          48 458 rlineto
          55 10 24 33 47 vvcurveto
          endchar
        </CharString>
        <CharString name="uni1EED">
          231 678 -58 callgsubr
          222 -193 rmoveto
          58 10 25 33 48 vvcurveto
          -47 callsubr
          -50 -103 callgsubr
          -6 -1 -2 -7 hhcurveto
          -9 -4 6 16 4 9 83 9 87 hvcurveto
          7 59 5 60 7 59 rrcurveto
          endchar
        </CharString>
        <CharString name="uni1EEE">
          72 201 760 rmoveto
          11 -3 rlineto
          -104 callgsubr
          452 -7 rmoveto
          -47 callsubr
          -51 -100 callsubr
          -39 callsubr
          48 458 rlineto
          55 10 24 33 47 vvcurveto
          endchar
        </CharString>
        <CharString name="uni1EEF">
          145 583 rmoveto
          10 -3 rlineto
          -78 callgsubr
          308 -98 rmoveto
          58 10 25 33 48 vvcurveto
          -47 callsubr
          -50 -103 callgsubr
          -6 -1 -2 -7 hhcurveto
          -9 -4 6 16 4 9 83 9 87 hvcurveto
          7 59 5 60 7 59 rrcurveto
          endchar
        </CharString>
        <CharString name="uni1EF0">
          72 653 753 rmoveto
          -47 callsubr
          -51 -100 callsubr
          -39 callsubr
          48 458 rlineto
          55 10 24 33 47 vvcurveto
          -398 -833 rmoveto
          -63 callsubr
        </CharString>
        <CharString name="uni1EF1">
          453 485 rmoveto
          58 10 25 33 48 vvcurveto
          -47 callsubr
          -50 -103 callgsubr
          -6 -1 -2 -7 hhcurveto
          -9 -4 6 16 4 9 83 9 87 hvcurveto
          7 59 5 60 7 59 rrcurveto
          -258 -565 rmoveto
          -63 callsubr
        </CharString>
        <CharString name="uni1EF4">
          -27 195 -2 -86 callsubr
          1 -202 rmoveto
          -106 callsubr
          endchar
        </CharString>
        <CharString name="uni1EF4.loclGUA">
          -13 440 701 -96 callgsubr
          -224 -781 rmoveto
          -63 callsubr
        </CharString>
        <CharString name="uni1EF5">
          -103 368 525 -96 callsubr
          -71 -627 rmoveto
          -63 callsubr
        </CharString>
        <CharString name="uni1EF5.loclGUA">
          453 493 rmoveto
          21 3 -17 11 -42 hhcurveto
          -93 callsubr
          35 -174 rmoveto
          -63 callsubr
        </CharString>
        <CharString name="uni1EF6">
          -27 312 747 -89 callsubr
          -117 -749 -86 callgsubr
        </CharString>
        <CharString name="uni1EF6.loclGUA">
          -13 258 855 -58 callgsubr
          182 -154 -96 callgsubr
          endchar
        </CharString>
        <CharString name="uni1EF7">
          -103 189 678 -58 callgsubr
          179 -153 -96 callsubr
          endchar
        </CharString>
        <CharString name="uni1EF7.loclGUA">
          227 678 -58 callgsubr
          170 -153 rmoveto
          -93 callsubr
          42 400 -4 callgsubr
          endchar
        </CharString>
        <CharString name="uni1EF8">
          -27 162 757 rmoveto
          -104 callgsubr
          44 -762 -86 callgsubr
        </CharString>
        <CharString name="uni1EF8.loclGUA">
          -13 158 760 rmoveto
          11 -3 rlineto
          -104 callgsubr
          282 -59 -96 callgsubr
          endchar
        </CharString>
        <CharString name="uni1EF9">
          -103 89 583 rmoveto
          11 -3 rlineto
          -104 callgsubr
          279 -58 -96 callsubr
          endchar
        </CharString>
        <CharString name="uni1EF9.loclGUA">
          127 583 rmoveto
          11 -3 rlineto
          -104 callgsubr
          270 -58 rmoveto
          -93 callsubr
          42 400 -4 callgsubr
          endchar
        </CharString>
        <CharString name="uni2002">
          -25 endchar
        </CharString>
        <CharString name="uni2003">
          375 endchar
        </CharString>
        <CharString name="uni2004">
          -178 endchar
        </CharString>
        <CharString name="uni2005">
          -261 endchar
        </CharString>
        <CharString name="uni20B2">
          -49 callgsubr
          -70 -38 52 171 18 hvcurveto
          152 16 46 70 86 hhcurveto
          endchar
        </CharString>
        <CharString name="uni20B2.bold">
          -49 callgsubr
          -8 -7 1 1 -7 hvcurveto
          46 439 rlineto
          3 11 11 1 12 hhcurveto
          -148 -222 rmoveto
          9 81 17 58 27 37 -38 -358 rcurveline
          -18 33 -7 58 10 91 rrcurveto
          endchar
        </CharString>
        <CharString name="uni2113">
          -168 145 -8 rmoveto
          38 83 13 46 5 hvcurveto
          12 1 -5 60 -20 -12 -21 -14 -19 hhcurveto
          -22 -7 13 30 3 hvcurveto
          15 138 97 85 76 131 12 113 rlinecurve
          74 7 -26 62 -81 hhcurveto
          -74 -116 -27 -272 -29 hvcurveto
          -18 -180 -19 -12 -18 -12 -18 -12 rlinecurve
          -12 -7 -6 -12 -1 -11 -1 -7 1 -7 3 -5 rrcurveto
          -11 4 8 -7 11 hhcurveto
          5 5 1 4 6 hvcurveto
          23 15 -4 -39 rlineto
          -111 -12 46 -51 92 hhcurveto
          50 400 rmoveto
          252 26 24 19 31 hhcurveto
          20 7 -16 -29 -4 hvcurveto
          -9 -86 -46 -79 -49 -61 rrcurveto
          endchar
        </CharString>
        <CharString name="uni2126">
          74 -50 callgsubr
        </CharString>
        <CharString name="uni2153">
          123 142 -59 callgsubr
          5 -51 callgsubr
          297 -7 -75 callsubr
          endchar
        </CharString>
        <CharString name="uni2154">
          181 33 293 rmoveto
          -56 callsubr
          192 -293 rmoveto
          16 hlineto
          19 15 7 20 8 hvcurveto
          266 647 rlineto
          3 7 2 4 4 vvcurveto
          7 -6 4 -14 vhcurveto
          -16 hlineto
          -18 -17 -7 -19 -7 hvcurveto
          -266 -648 rlineto
          -2 35 callsubr
          327 -7 -75 callsubr
          endchar
        </CharString>
        <CharString name="uni2206">
          55 -28 callgsubr
        </CharString>
        <CharString name="uni2215">
          -290 -10 -13 callgsubr
        </CharString>
        <CharString name="uni2219">
          -286 116 289 rmoveto
          41 27 31 39 4 hvcurveto
          39 4 -20 31 -41 hhcurveto
          -40 -29 -31 -39 -4 hvcurveto
          -39 -4 22 -31 40 hhcurveto
          endchar
        </CharString>
        <CharString name="uogonek">
          471 29 callgsubr
          19 4 25 10 24 hvcurveto
          30 16 15 29 35 vvcurveto
          13 -4 16 -10 vhcurveto
          -90 callsubr
          4 9 83 9 87 hvcurveto
          7 62 6 62 7 62 rrcurveto
          -28 callsubr
          -35 hlineto
          -39 -19 -10 -22 -2 hvcurveto
          -37 -348 rlineto
          -15 -12 -18 -17 -23 hhcurveto
          -29 -6 18 32 3 hvcurveto
          35 330 -74 callsubr
          -34 -81 callgsubr
          -38 -363 rlineto
          -91 -10 35 -48 77 hhcurveto
          62 47 41 40 29 hvcurveto
          7 -52 28 -24 42 -4 rrcurveto
          -12 -29 -4 -29 -17 -9 callgsubr
        </CharString>
        <CharString name="uring">
          270 550 -74 callgsubr
          165 -499 -34 callsubr
          4 9 83 9 87 hvcurveto
          7 62 6 62 7 62 rrcurveto
          -28 callsubr
          -35 -103 callgsubr
          endchar
        </CharString>
        <CharString name="utilde">
          142 580 rmoveto
          -104 callgsubr
          312 -470 -34 callsubr
          4 9 83 9 87 hvcurveto
          7 62 6 62 7 62 rrcurveto
          -28 callsubr
          -35 -103 callgsubr
          endchar
        </CharString>
        <CharString name="v">
          -99 155 -2 rmoveto
          48 hlineto
          28 21 5 16 6 hvcurveto
          170 466 rlineto
          3 7 1 6 5 vvcurveto
          14 2 -15 8 -36 hhcurveto
          -40 hlineto
          -28 -24 -5 -16 -4 hvcurveto
          -57 -224 -10 -41 -13 -53 -11 -50 rlinecurve
          -4 hlineto
          -1 50 -2 52 -2 42 -13 224 rcurveline
          16 -1 -21 5 -28 hhcurveto
          -39 hlineto
          -36 -17 -8 -14 -2 hvcurveto
          -5 -1 -6 1 -7 vhcurveto
          76 -466 rlineto
          -16 3 19 -5 27 hhcurveto
          endchar
        </CharString>
        <CharString name="w">
          105 132 -2 -91 callsubr
        </CharString>
        <CharString name="wacute">
          105 306 575 rmoveto
          -105 callsubr
          -174 -577 -91 callsubr
        </CharString>
        <CharString name="wcircumflex">
          105 236 572 -107 callsubr
          -104 -574 -91 callsubr
        </CharString>
        <CharString name="wdieresis">
          105 261 578 -102 callsubr
          -291 -580 -91 callsubr
        </CharString>
        <CharString name="wgrave">
          105 366 575 -97 callsubr
          -234 -577 -91 callsubr
        </CharString>
        <CharString name="x">
          -107 12 1 rmoveto
          58 -1 rlineto
          28 20 -2 19 8 hvcurveto
          55 125 5 11 2 10 4 11 rlinecurve
          2 -11 1 -10 3 -11 29 -125 rcurveline
          -19 4 21 2 28 hhcurveto
          59 hlineto
          16 21 5 11 1 hvcurveto
          1 6 -3 8 -5 11 -95 213 rcurveline
          139 227 7 12 4 7 1 7 rlinecurve
          11 1 -19 7 -39 hhcurveto
          -36 hlineto
          -27 -23 0 -19 -8 hvcurveto
          -50 -113 -6 -13 -2 -11 -4 -12 rlinecurve
          -2 12 -1 11 -3 12 -27 114 rcurveline
          19 -5 -22 0 -27 hhcurveto
          -33 hlineto
          -39 -21 -7 -11 -1 hvcurveto
          -1 -7 2 -7 5 -12 92 -205 rcurveline
          -144 -235 -7 -11 -4 -8 -1 -6 rlinecurve
          -11 -1 13 -4 26 hhcurveto
          endchar
        </CharString>
        <CharString name="y">
          -103 368 525 -96 callsubr
          endchar
        </CharString>
        <CharString name="y.loclGUA">
          397 525 rmoveto
          -93 callsubr
          42 400 -4 callgsubr
          endchar
        </CharString>
        <CharString name="yacute">
          -103 197 575 rmoveto
          -105 callsubr
          171 -50 -96 callsubr
          endchar
        </CharString>
        <CharString name="yacute.loclGUA">
          235 575 rmoveto
          -105 callsubr
          162 -50 rmoveto
          -93 callsubr
          42 400 -4 callgsubr
          endchar
        </CharString>
        <CharString name="ycircumflex">
          -103 127 572 -107 callsubr
          241 -47 -96 callsubr
          endchar
        </CharString>
        <CharString name="ycircumflex.loclGUA">
          165 572 -107 callsubr
          232 -47 rmoveto
          -93 callsubr
          42 400 -4 callgsubr
          endchar
        </CharString>
        <CharString name="ydieresis">
          -103 152 578 -102 callsubr
          54 -53 -96 callsubr
          endchar
        </CharString>
        <CharString name="ydieresis.loclGUA">
          190 578 -102 callsubr
          45 -53 rmoveto
          -93 callsubr
          42 400 -4 callgsubr
          endchar
        </CharString>
        <CharString name="yen">
          -41 465 702 rmoveto
          -42 hlineto
          -28 -23 -3 -16 -6 hvcurveto
          -111 -281 -44 281 rlineto
          15 -2 -24 4 -27 hhcurveto
          -51 hlineto
          -40 -21 -8 -12 -1 hvcurveto
          -1 -6 3 -9 4 -10 87 -265 rcurveline
          -64 21 callgsubr
          97 hlineto
          5 -15 -5 -49 rlineto
          -104 21 callgsubr
          104 hlineto
          -16 -148 -1 callgsubr
          39 hlineto
          41 -18 callsubr
          16 148 rlineto
          92 hlineto
          20 10 9 27 callsubr
          -92 hlineto
          5 46 9 17 rlineto
          85 hlineto
          20 10 10 27 callsubr
          -52 hlineto
          141 265 5 11 4 8 1 6 rlinecurve
          12 1 -18 8 -44 hhcurveto
          endchar
        </CharString>
        <CharString name="ygrave">
          -103 257 575 -97 callsubr
          111 -50 -96 callsubr
          endchar
        </CharString>
        <CharString name="ygrave.loclGUA">
          295 575 -97 callsubr
          102 -50 rmoveto
          -93 callsubr
          42 400 -4 callgsubr
          endchar
        </CharString>
        <CharString name="z">
          -106 23 hmoveto
          -93 callgsubr
          endchar
        </CharString>
        <CharString name="zacute">
          -106 201 575 rmoveto
          -105 callsubr
          -178 -575 rmoveto
          -93 callgsubr
          endchar
        </CharString>
        <CharString name="zacute.loclPLK">
          -106 211 575 -76 callgsubr
          -188 -575 rmoveto
          -93 callgsubr
          endchar
        </CharString>
        <CharString name="zcaron">
          -106 232 572 -103 callsubr
          -209 -572 rmoveto
          -93 callgsubr
          endchar
        </CharString>
        <CharString name="zdotaccent">
          -106 237 -82 callgsubr
          -214 -578 rmoveto
          -93 callgsubr
          endchar
        </CharString>
        <CharString name="zero">
          -52 201 -8 rmoveto
          140 79 133 225 23 hvcurveto
          225 24 -51 133 -140 hhcurveto
          -140 -78 -133 -225 -24 hvcurveto
          -225 -23 50 -133 140 hhcurveto
          12 117 rmoveto
          -36 -12 40 201 21 hvcurveto
          201 21 21 40 36 hhcurveto
          36 11 -40 -201 -21 hvcurveto
          -201 -21 -20 -40 -36 hhcurveto
          endchar
        </CharString>
      <CharString index="0">
        rmoveto
        57 35 33 44 23 hvcurveto
        -54 9 31 -22 47 -32 callsubr
        5 15 140 11 108 hvcurveto
        4 38 8 61 15 vvcurveto
        16 -19 9 -40 vhcurveto
        -12 hlineto
        -49 -5 -12 -34 -11 hvcurveto
        21 -18 -28 31 -54 hhcurveto
        -91 -74 -86 -175 -19 hvcurveto
        -131 -14 21 -148 116 hhcurveto
        62 121 rmoveto
        -42 -4 72 83 9 hvcurveto
        110 12 24 37 39 hhcurveto
        19 12 -9 -11 10 hvcurveto
        -3 -13 -4 -26 -4 -30 -16 -159 rcurveline
        -29 -9 -18 -25 -25 hhcurveto
        return
      </CharString>
      <CharString index="1">
        rmoveto
        -73 callsubr
        13 -122 rlineto
        -16 3 20 -5 28 hhcurveto
        49 hlineto
        31 13 8 14 1 hvcurveto
        1 5 0 6 -1 7 -93 636 rcurveline
        19 -3 -19 9 -37 hhcurveto
        -56 hlineto
        -35 -22 -9 -19 -7 hvcurveto
        -224 -636 -3 -7 -1 -6 -1 -5 rlinecurve
        -14 -1 14 -8 33 hhcurveto
        171 265 rmoveto
        68 212 8 25 6 26 6 25 rlinecurve
        5 hlineto
        -25 2 -26 2 -25 vhcurveto
        21 -212 rlineto
        return
      </CharString>
      <CharString index="2">
        -107 callgsubr
        endchar
      </CharString>
      <CharString index="3">
        -1 4 5 -1 4 hhcurveto
        12 7 6 11 9 hvcurveto
        15 10 9 14 callsubr
        27 56 -28 33 hhcurveto
        44 33 33 37 14 hvcurveto
        1 4 2 24 callgsubr
        -6 10 -17 -21 callgsubr
        -5 -4 1 -5 hhcurveto
        -13 -7 -7 -10 -7 hvcurveto
        -15 -12 -8 -1 -6 hhcurveto
        1 -27 -55 28 -34 hhcurveto
        -45 -31 -31 -38 -14 30 callsubr
        -9 5 -12 18 -5 vhcurveto
        return
      </CharString>
      <CharString index="4">
        hlineto
        -39 -19 -10 -22 -2 hvcurveto
        -37 -348 rlineto
        -15 -12 -18 -17 -23 hhcurveto
        -29 -6 18 32 3 hvcurveto
        35 330 -74 callsubr
        -34 -81 callgsubr
        -38 -363 rlineto
        -91 -10 35 -48 77 hhcurveto
        62 47 41 40 29 hvcurveto
        -69 callsubr
        return
      </CharString>
      <CharString index="5">
        rmoveto
        27 hlineto
        21 20 2 17 11 hvcurveto
        25 45 15 -46 rlineto
        -12 5 18 -6 27 hhcurveto
        27 hlineto
        12 8 3 7 1 hvcurveto
        4 -1 5 -3 6 vhcurveto
        -45 102 rlineto
        18 -8 -20 1 -26 hhcurveto
        -2 hlineto
        -27 -20 -1 -18 -12 hvcurveto
        -67 -102 rlineto
        -3 -6 -3 -4 -5 vvcurveto
        -8 -1 5 -2 16 hhcurveto
        return
      </CharString>
      <CharString index="6">
        rmoveto
        -36 callgsubr
        -167 -76 -143 -176 hvcurveto
        -135 -2 61 -85 141 hhcurveto
        47 85 15 40 22 hvcurveto
        9 16 4 22 20 vvcurveto
        26 -6 22 -14 vhcurveto
        -17 -34 -44 -67 hhcurveto
        -45 -32 19 81 -2 hvcurveto
        -4 20 23 -2 31 hhcurveto
        106 79 72 111 hvcurveto
        -252 -94 rmoveto
        68 12 23 54 43 hhcurveto
        25 15 -14 -33 -52 -34 -23 -54 hvcurveto
        return
      </CharString>
      <CharString index="7">
        rmoveto
        135 80 96 174 18 hvcurveto
        174 18 -59 95 -136 hhcurveto
        -135 -79 -95 -174 -18 hvcurveto
        -174 -18 60 -96 134 hhcurveto
        13 117 rmoveto
        -40 -11 40 113 12 hvcurveto
        113 12 19 39 40 hhcurveto
        39 11 -39 -113 -12 hvcurveto
        -113 -12 -19 -40 -39 hhcurveto
        return
      </CharString>
      <CharString index="8">
        rmoveto
        93 44 58 48 5 hvcurveto
        26 3 -18 8 -21 hhcurveto
        -14 -11 -7 -9 -5 hvcurveto
        -10 -7 -5 -23 -53 hhcurveto
        -50 -2 20 11 -6 hvcurveto
        11 -4 -8 7 -16 hhcurveto
        -22 -19 -8 -26 -3 hvcurveto
        -49 -5 33 -57 91 hhcurveto
        return
      </CharString>
      <CharString index="9">
        -34 callsubr
        6 16 145 11 108 hvcurveto
        91 10 -33 48 -74 hhcurveto
        -61 -48 -38 -38 -30 hvcurveto
        36 -3 6 31 -34 hhcurveto
        -21 -95 -7 10 callsubr
        7 -26 -10 -98 -2 callsubr
        16 -11 40 hhcurveto
        35 hlineto
        39 19 10 22 2 hvcurveto
        37 347 rlineto
        15 12 18 17 23 hhcurveto
        29 6 -18 -33 -3 hvcurveto
        -7 -72 -8 -72 -7 -72 rrcurveto
        -66 callsubr
        -85 callgsubr
        vhcurveto
        return
      </CharString>
      <CharString index="10">
        -101 callgsubr
        endchar
      </CharString>
      <CharString index="11">
        rmoveto
        -11 callsubr
        -30 -281 rlineto
        -27 -13 -19 -31 -34 hhcurveto
        -37 -15 20 36 4 hvcurveto
        30 283 -60 callsubr
        -32 -305 rlineto
        -104 -11 40 -52 98 hhcurveto
        53 43 23 35 29 hvcurveto
        -5 -47 rlineto
        -74 -8 -37 -37 -68 -77 -46 40 -12 hhcurveto
        -9 -11 -11 -27 -3 hvcurveto
        -1 -11 -1 -20 -17 vvcurveto
        -43 3 86 -28 97 hhcurveto
        149 71 92 190 20 hvcurveto
        42 396 -6 callgsubr
        return
      </CharString>
      <CharString index="12">
        -95 callsubr
        endchar
      </CharString>
      <CharString index="13">
        rmoveto
        145 71 62 105 11 hvcurveto
        8 80 -54 41 -63 15 -59 14 -55 0 4 39 3 23 20 11 29 1 95 3 74 56 12 111 3 30 -4 25 -9 15 3 4 rcurveline
        -2 7 17 -2 9 hhcurveto
        16 8 13 30 4 5 callsubr
        32 4 -8 14 -19 hhcurveto
        -130 hlineto
        5 -20 -22 3 -22 hhcurveto
        -105 -83 -54 -125 -13 hvcurveto
        -8 -74 22 -48 42 -27 -32 -21 -21 -29 -4 -35 -4 -33 11 -27 27 -16 -1 -3 rcurveline
        -51 -24 -32 -40 -6 -54 rrcurveto
        -89 -10 81 -44 107 hhcurveto
        52 488 rmoveto
        -31 -24 15 63 7 hvcurveto
        63 7 27 16 30 hhcurveto
        31 24 -16 -63 -7 hvcurveto
        -63 -7 -26 -15 -31 hhcurveto
        -28 -382 rmoveto
        -47 -28 16 34 4 hvcurveto
        3 24 15 22 24 13 71 -11 41 -5 -4 -41 rrcurveto
        -32 -3 -26 -20 -50 hhcurveto
        endchar
      </CharString>
      <CharString index="14">
        301 hlineto
        20 -31 callgsubr
        3 -7 15 -20 hhcurveto
        -149 hlineto
        203 314 rlineto
        2 4 2 4 7 vvcurveto
        28 3 -13 49 -9 hhcurveto
        -285 hlineto
        -20 -38 callgsubr
        20 hhcurveto
        132 hlineto
        -203 -316 rlineto
        -1 -3 -2 -5 -6 vvcurveto
        -26 -3 9 -50 13 hhcurveto
        return
      </CharString>
      <CharString index="15">
        rmoveto
        149 93 86 152 87 -42 39 -73 47 hvcurveto
        -46 30 -43 21 54 vvcurveto
        18 5 50 72 14 19 -3 -11 30 vhcurveto
        -3 9 12 -4 9 hhcurveto
        28 17 60 30 14 -9 12 -15 9 hvcurveto
        19 -31 -52 9 -40 hhcurveto
        -125 -99 -84 -142 -90 39 -39 69 -44 hvcurveto
        49 -31 47 -22 -51 vvcurveto
        -63 -43 -19 -38 -40 -26 14 19 -35 vhcurveto
        4 -7 -6 3 -6 hhcurveto
        -28 -24 -62 -35 1 hvcurveto
        -27 35 -20 31 -11 vhcurveto
        -10 29 35 -6 36 hhcurveto
        return
      </CharString>
      <CharString index="16">
        rmoveto
        56 hlineto
        26 22 7 14 5 hvcurveto
        101 353 23 107 rlineto
        -107 vlineto
        36 -353 rlineto
        -14 1 20 -7 26 hhcurveto
        56 hlineto
        30 21 7 14 4 hvcurveto
        195 642 3 6 -1 5 1 4 rlinecurve
        16 1 -17 10 -41 hhcurveto
        -23 hlineto
        -40 -22 -10 -21 -5 hvcurveto
        -87 -369 -11 -46 -11 -54 -14 -53 rlinecurve
        -2 53 -1 54 -3 46 -25 379 rcurveline
        16 -1 -17 5 -32 hhcurveto
        -40 hlineto
        -32 -18 -5 -16 -4 hvcurveto
        -96 -379 -10 -44 -16 -53 -13 -53 rlinecurve
        -1 53 1 53 -2 44 -8 369 rcurveline
        21 -1 -20 10 -40 hhcurveto
        -29 hlineto
        -41 -19 -10 -16 -1 hvcurveto
        -1 -4 -2 -5 1 -6 69 -642 rcurveline
        -14 1 17 -7 31 hhcurveto
        endchar
      </CharString>
</ttFont>
